<svg width="24" height="23" viewBox="0 0 24 23" fill="none" xmlns="http://www.w3.org/2000/svg">
<g id="la:female">
<path id="Vector" d="M11.9999 1.4375C10.4187 1.4375 9.12494 2.73125 9.12494 4.3125C9.12494 5.12397 9.47569 5.85422 10.0234 6.37891C9.85358 6.49835 9.69569 6.63386 9.55187 6.78356C8.94812 7.42325 8.5715 8.27713 8.40619 9.20863H8.42847L6.99097 16.3961L6.81128 17.25H9.84369V21.5625H11.2812V17.25H12.7187V21.5625H14.1562V17.25H17.1886L17.0089 16.3961L15.5714 9.20863C15.4061 8.32169 15.0467 7.47644 14.448 6.82812C14.2977 6.66339 14.1324 6.513 13.9542 6.37891C14.5098 5.85422 14.8749 5.12972 14.8749 4.3125C14.8749 2.73125 13.5812 1.4375 11.9999 1.4375ZM11.9999 2.875C12.8028 2.875 13.4374 3.50966 13.4374 4.3125C13.4374 5.11534 12.8028 5.75 11.9999 5.75C11.1971 5.75 10.5624 5.11534 10.5624 4.3125C10.5624 3.50966 11.1971 2.875 11.9999 2.875ZM11.9999 7.1875C12.5951 7.1875 13.022 7.41463 13.3929 7.81641C13.763 8.21819 14.0548 8.81331 14.1785 9.47888L15.4363 15.8125H8.56431L9.82212 9.47816H9.84369C9.97019 8.75941 10.2455 8.15566 10.6077 7.77184C10.9692 7.38659 11.3912 7.1875 11.9999 7.1875Z" fill="#411E75"/>
</g>
</svg>
