<svg width="23" height="23" viewBox="0 0 23 23" fill="none" xmlns="http://www.w3.org/2000/svg">
<g id="la:male">
<path id="Vector" d="M11.5001 1.4375C9.91887 1.4375 8.62512 2.73125 8.62512 4.3125C8.6279 5.05133 8.91786 5.76013 9.43372 6.28906C8.10259 7.02434 7.18762 8.44244 7.18762 10.0625V13.9481L7.38959 14.173L8.62512 15.4078V21.5625H10.0626V14.8019L9.86065 14.577L8.62512 13.3422V10.0625C8.62512 8.46759 9.90522 7.1875 11.5001 7.1875C13.095 7.1875 14.3751 8.46759 14.3751 10.0625V13.3422L13.1396 14.577L12.9376 14.8019V21.5625H14.3751V15.4078L15.6107 14.173L15.8126 13.9481V10.0625C15.8126 8.44244 14.8977 7.02434 13.5665 6.28906C14.0824 5.76013 14.3723 5.05133 14.3751 4.3125C14.3751 2.73125 13.0814 1.4375 11.5001 1.4375ZM11.5001 2.875C12.303 2.875 12.9376 3.50966 12.9376 4.3125C12.9376 5.11534 12.303 5.75 11.5001 5.75C10.6973 5.75 10.0626 5.11534 10.0626 4.3125C10.0626 3.50966 10.6973 2.875 11.5001 2.875Z" fill="#411E75"/>
</g>
</svg>
