<svg width="23" height="23" viewBox="0 0 23 23" fill="none" xmlns="http://www.w3.org/2000/svg">
<g id="mdi:human-transgender">
<path id="Vector" d="M12.8949 8.19214L12.8971 8.19935L12.8995 8.20648L15.176 14.8778H12.9375H12.4822V15.3332V20.6278H10.0387V13.8957V13.4403H9.58337H8.60123V8.62484C8.60123 7.82216 9.25986 7.16353 10.0625 7.16353L11.5 7.16353L11.5015 7.16353C11.8134 7.16252 12.1174 7.26203 12.3684 7.44729C12.6193 7.63256 12.804 7.89374 12.8949 8.19214ZM11.5 2.37186C11.8876 2.37186 12.2593 2.52582 12.5333 2.79987C12.8074 3.07392 12.9614 3.44561 12.9614 3.83317C12.9614 4.22073 12.8074 4.59242 12.5333 4.86647C12.2593 5.14052 11.8876 5.29448 11.5 5.29448C10.6878 5.29448 10.0387 4.64543 10.0387 3.83317C10.0387 3.02239 10.6959 2.37186 11.5 2.37186Z" stroke="#411E75" stroke-width="0.910714"/>
</g>
</svg>
