<svg width="24" height="24" viewBox="0 0 24 24" fill="none" xmlns="http://www.w3.org/2000/svg">
<path d="M1.07391 0.710938L1.07391 3.29797C2.48156 4.27531 4.64484 5.63984 6.54844 6.95703C7.5375 7.64141 8.45625 8.31172 9.15937 8.91641C9.86719 9.51641 10.3828 9.99453 10.5422 10.5898L10.5562 10.6367V10.6836C10.575 11.3961 10.7297 11.8648 10.9266 12.1461C11.1234 12.4273 11.3531 12.5492 11.6578 12.5914C12.2625 12.6805 13.1672 12.3102 13.875 11.6914C14.5781 11.0727 15.0469 10.243 15.0094 9.61953C14.9906 9.31016 14.8734 9.03828 14.5687 8.77109C14.2687 8.50391 13.7578 8.25078 12.9797 8.08672C12.4172 7.96953 11.6766 7.55234 10.6688 6.94766C9.66094 6.34766 8.44219 5.56484 7.17656 4.73516C4.95469 3.27078 2.63719 1.69812 1.07391 0.710938ZM8.99531 0.844531C9.82031 1.37938 11.25 2.34406 12.7406 3.52719C15.0328 5.34453 17.4094 7.70703 17.8453 9.47891V9.48359C17.9578 9.95234 18.0094 11.2086 17.9766 12.7273C17.9438 14.2414 17.85 16.0508 17.7328 17.7898C17.5922 19.9086 17.4234 21.9102 17.3156 23.157H18.1641C18.2719 21.9008 18.4359 19.932 18.5766 17.8461C18.6891 16.1023 18.7875 14.2836 18.8203 12.7414C18.8531 11.2039 18.8391 9.98516 18.6609 9.28203V9.27734C18.1078 7.03203 15.6047 4.72109 13.2656 2.86578C12.2719 2.07781 11.3016 1.38406 10.5141 0.844531L8.99531 0.844531ZM0.84375 6.68984L0.84375 7.83828C3.13828 9.92891 6.39844 12.6055 8.52656 14.1336C8.02969 16.8898 8.12344 20.3539 8.19844 23.157H9.04219C8.9625 20.2555 8.87812 16.6742 9.39844 14.0305L9.45469 13.7586L9.22969 13.5992C6.98906 12.0195 3.16828 8.86016 0.84375 6.68984ZM15.7172 8.23672L16.0922 11.968C16.4906 11.7383 16.7391 11.4617 16.8891 11.1711C17.0906 10.768 17.1141 10.3086 17.0016 9.84922C16.8188 9.14609 16.2891 8.50859 15.7172 8.23672ZM14.85 12.3383C14.7281 12.418 14.5313 12.6102 14.2313 12.8164C13.6781 13.2008 12.7594 13.557 11.1328 13.4633C11.0953 13.843 11.2547 14.1758 11.6109 14.518C12.0516 14.9492 12.8016 15.3242 13.6828 15.5211L13.8234 15.5539L13.9172 15.6664C14.1281 15.9289 14.1844 16.2102 14.2687 16.6086C14.3531 17.007 14.4281 17.5039 14.4938 18.0664C14.625 19.1961 14.7234 20.5977 14.7938 21.9664C14.8125 22.3695 14.8313 22.768 14.8453 23.157H16.2047C16.1484 20.6586 16.1766 17.8508 16.4484 14.8883C16.4531 14.3117 16.425 13.7492 16.2422 13.3086C16.0594 12.868 15.7547 12.5398 15.0703 12.3008C14.9813 12.268 14.9062 12.3008 14.85 12.3383ZM11.2594 15.3336C11.2594 15.4836 11.2641 15.6336 11.2734 15.7836C11.3062 16.4211 11.4281 16.9883 11.6109 17.2273L11.7 17.3445L11.6812 23.157L12.5156 23.157L12.6141 17.1898L12.7219 17.0727C12.9891 16.782 13.1062 16.5336 13.1906 16.2617C12.4453 16.0602 11.775 15.7508 11.2594 15.3336Z" fill="#411E75"/>
</svg>
