<svg width="24" height="24" viewBox="0 0 24 24" fill="none" xmlns="http://www.w3.org/2000/svg">
<path d="M18.5 16.1481C18.5 17.9383 17.7888 19.6552 16.523 20.9211C15.2571 22.1869 13.5402 22.8981 11.75 22.8981C9.95979 22.8981 8.2429 22.1869 6.97703 20.9211C5.71116 19.6552 5 17.9383 5 16.1481C5 11.2781 9.448 3.93611 11.122 1.34811C11.1893 1.2426 11.2822 1.15576 11.3919 1.0956C11.5017 1.03544 11.6248 1.00391 11.75 1.00391C11.8752 1.00391 11.9983 1.03544 12.1081 1.0956C12.2178 1.15576 12.3107 1.2426 12.378 1.34811C14.052 3.93611 18.5 11.2781 18.5 16.1481Z" stroke="#411E75" stroke-width="1.5" stroke-linecap="round" stroke-linejoin="round"/>
<path d="M11.75 19.9014C11.2573 19.9014 10.7694 19.8043 10.3142 19.6157C9.85908 19.4271 9.44555 19.1506 9.09729 18.802C8.74903 18.4535 8.47287 18.0397 8.28459 17.5844C8.09631 17.1291 7.99961 16.6411 8 16.1484" stroke="#411E75" stroke-width="1.5" stroke-linecap="round" stroke-linejoin="round"/>
</svg>
