<svg width="24" height="24" viewBox="0 0 24 24" fill="none" xmlns="http://www.w3.org/2000/svg">
<path fill-rule="evenodd" clip-rule="evenodd" d="M6.27395 15.3763C0.84195 13.0848 2.98545 5.35132 6.75645 4.07382C8.32095 3.54382 10.0465 5.30232 10.036 6.39382C10.031 6.86632 9.78745 7.32632 9.53345 7.80632C9.20045 8.43582 8.84945 9.09832 8.99845 9.86482C9.26095 11.2148 9.55495 13.4928 8.79745 14.5743C8.03995 15.6553 7.27845 15.7993 6.27395 15.3763ZM6.66245 14.4548C7.05395 14.6198 7.24595 14.6088 7.35145 14.5783C7.45995 14.5473 7.67145 14.4393 7.97845 14.0003C8.16495 13.7343 8.29195 13.1728 8.28045 12.3338C8.27045 11.5453 8.14295 10.7043 8.01695 10.0558C7.81495 9.01582 8.22995 8.14682 8.52645 7.57332L8.66645 7.30582C8.76595 7.11882 8.84545 6.96832 8.91545 6.80732C9.00945 6.59232 9.03545 6.46532 9.03545 6.38382C9.03595 6.35782 9.01845 6.22582 8.88895 6.00832C8.7466 5.77707 8.56604 5.57165 8.35495 5.40082C7.87345 5.00832 7.40745 4.90882 7.07745 5.02082C5.67245 5.49682 4.35145 7.33032 4.05495 9.48182C3.76995 11.5453 4.47495 13.5318 6.66245 14.4548ZM17.1734 4.07382C20.9444 5.35132 23.0884 13.0848 17.6559 15.3763C16.6514 15.7998 15.8899 15.6553 15.1324 14.5743C14.3749 13.4933 14.6689 11.2148 14.9314 9.86482C15.0804 9.09832 14.7294 8.43582 14.3964 7.80582C14.1424 7.32632 13.8989 6.86582 13.8944 6.39432C13.8834 5.30232 15.6094 3.54382 17.1734 4.07382ZM16.5785 14.5788C16.684 14.6088 16.8764 14.6198 17.2674 14.4548C19.4549 13.5323 20.16 11.5453 19.8755 9.48182C19.5785 7.33032 18.258 5.49682 16.853 5.02082C16.523 4.90882 16.0564 5.00832 15.5749 5.40082C15.3479 5.58582 15.1629 5.80382 15.0414 6.00782C14.9114 6.22582 14.8939 6.35782 14.8944 6.38382C14.8949 6.46532 14.9209 6.59282 15.0144 6.80732C15.0844 6.96832 15.1644 7.11882 15.2634 7.30582C15.3061 7.38615 15.3528 7.47532 15.4034 7.57332C15.6999 8.14682 16.1154 9.01532 15.9134 10.0558C15.7869 10.7043 15.6599 11.5458 15.6494 12.3338C15.6384 13.1728 15.7654 13.7343 15.9514 14.0003C16.2589 14.4393 16.4705 14.5478 16.5785 14.5788Z" fill="#411E75"/>
<path d="M14.3089 11.3896L14.3439 11.8881H14.3519L14.3394 11.8896C14.2285 11.9097 14.1234 11.9538 14.0314 12.0186C13.8864 12.1216 13.6734 12.3506 13.6734 12.9286L13.6734 20.1621H12.6734L12.6734 12.9281C12.6734 12.0451 13.0284 11.5046 13.4509 11.2031C13.6685 11.0491 13.918 10.946 14.1809 10.9016C14.2074 10.8976 14.2341 10.8942 14.2609 10.8916L14.2689 10.8906H14.2739C14.2739 10.8906 14.2749 10.8906 14.3089 11.3891M9.62087 11.3896C9.58687 11.8881 9.58587 11.8881 9.58587 11.8881H9.57837L9.59037 11.8896C9.70136 11.9097 9.80665 11.9537 9.89887 12.0186C10.0439 12.1216 10.2569 12.3506 10.2569 12.9286L10.2569 20.1621H11.2569L11.2569 12.9281C11.2569 12.0451 10.9019 11.5046 10.4789 11.2031C10.2613 11.0491 10.0118 10.946 9.74887 10.9016C9.7223 10.8976 9.69562 10.8942 9.66887 10.8916L9.66137 10.8906H9.65587L9.62087 11.3896Z" fill="#411E75"/>
</svg>
