<svg width="24" height="24" viewBox="0 0 24 24" fill="none" xmlns="http://www.w3.org/2000/svg">
<path fill-rule="evenodd" clip-rule="evenodd" d="M12 6.5C12.5967 6.5 13.169 6.26295 13.591 5.84099C14.0129 5.41903 14.25 4.84674 14.25 4.25C14.25 3.65326 14.0129 3.08097 13.591 2.65901C13.169 2.23705 12.5967 2 12 2C11.4033 2 10.831 2.23705 10.409 2.65901C9.98705 3.08097 9.75 3.65326 9.75 4.25C9.75 4.84674 9.98705 5.41903 10.409 5.84099C10.831 6.26295 11.4033 6.5 12 6.5ZM13.25 4.25C13.25 4.58152 13.1183 4.89946 12.8839 5.13388C12.6495 5.3683 12.3315 5.5 12 5.5C11.6685 5.5 11.3505 5.3683 11.1161 5.13388C10.8817 4.89946 10.75 4.58152 10.75 4.25C10.75 3.91848 10.8817 3.60054 11.1161 3.36612C11.3505 3.1317 11.6685 3 12 3C12.3315 3 12.6495 3.1317 12.8839 3.36612C13.1183 3.60054 13.25 3.91848 13.25 4.25ZM6 10.5H7.177C7.38977 10.6878 7.64008 10.8282 7.91129 10.9118C8.1825 10.9955 8.46841 11.0204 8.75 10.985V14.4575C8.73734 14.526 8.72183 14.5938 8.7035 14.661C8.63769 14.8994 8.56348 15.1354 8.481 15.3685C8.32438 15.815 8.15818 16.2581 7.9825 16.6975C7.70051 17.0258 7.53261 17.4367 7.504 17.8685C7.25077 18.4734 6.99126 19.0755 6.7255 19.675C6.585 19.992 6.4855 20.3785 6.54 20.7665C6.5975 21.1795 6.825 21.556 7.255 21.802C7.57857 21.9871 7.95949 22.0451 8.3235 21.9647C8.68751 21.8843 9.00854 21.6712 9.224 21.367L9.974 20.308C9.99433 20.2797 10.0137 20.2502 10.032 20.2195L10.255 19.8525C10.6523 19.6906 10.9869 19.4052 11.2096 19.0385C11.4322 18.6718 11.5311 18.2432 11.4915 17.816L12.125 16.7725L14.218 20.2195C14.236 20.2495 14.2553 20.279 14.276 20.308L15.026 21.367C15.2415 21.6712 15.5625 21.8843 15.9265 21.9647C16.2905 22.0451 16.6714 21.9871 16.995 21.802C17.425 21.556 17.6525 21.1795 17.71 20.7665C17.764 20.3785 17.665 19.992 17.5245 19.675C17.177 18.8902 16.84 18.1008 16.5135 17.307C16.2486 16.6674 16.0003 16.021 15.769 15.3685C15.6865 15.1354 15.6123 14.8994 15.5465 14.661L15.5385 14.629V13.095C15.8354 12.8876 16.0779 12.6115 16.2453 12.2903C16.4127 11.9691 16.5001 11.6122 16.5 11.25C16.5 10.987 16.455 10.735 16.372 10.5H18C18.3978 10.5 18.7794 10.342 19.0607 10.0607C19.342 9.77936 19.5 9.39782 19.5 9C19.5 8.60218 19.342 8.22064 19.0607 7.93934C18.7794 7.65804 18.3978 7.5 18 7.5L9.823 7.5C9.45762 7.17776 8.98718 6.99997 8.5 7C8.01282 6.99997 7.54238 7.17776 7.177 7.5H6C5.60218 7.5 5.22064 7.65804 4.93934 7.93934C4.65804 8.22064 4.5 8.60218 4.5 9C4.5 9.39782 4.65804 9.77936 4.93934 10.0607C5.22064 10.342 5.60218 10.5 6 10.5ZM6.563 8.5H6C5.86739 8.5 5.74021 8.55268 5.64645 8.64645C5.55268 8.74021 5.5 8.86739 5.5 9C5.5 9.13261 5.55268 9.25979 5.64645 9.35355C5.74021 9.44732 5.86739 9.5 6 9.5H6.563C6.47832 9.17204 6.47832 8.82796 6.563 8.5ZM9.75 12.9965V10.5615C10.0515 10.321 10.2769 9.99836 10.3988 9.63249C10.5207 9.26662 10.534 8.87325 10.437 8.5L18 8.5C18.1326 8.5 18.2598 8.55268 18.3536 8.64645C18.4473 8.74021 18.5 8.86739 18.5 9C18.5 9.13261 18.4473 9.25979 18.3536 9.35355C18.2598 9.44732 18.1326 9.5 18 9.5H15.6645C15.375 9.26608 15.032 9.10762 14.6663 9.03882C14.3005 8.97001 13.9234 8.99301 13.5687 9.10575C13.214 9.2185 12.8929 9.41746 12.634 9.68482C12.3751 9.95219 12.1865 10.2796 12.0852 10.6377C11.984 10.9959 11.9731 11.3735 12.0536 11.7369C12.1342 12.1002 12.3036 12.4379 12.5467 12.7197C12.7898 13.0015 13.099 13.2186 13.4466 13.3516C13.7942 13.4845 14.1694 13.5292 14.5385 13.4815V14.69C14.5385 14.7291 14.543 14.768 14.552 14.806L14.58 14.917C14.637 15.1325 14.7205 15.397 14.824 15.696C15.061 16.3659 15.3156 17.0295 15.5875 17.686C15.9169 18.4891 16.258 19.2873 16.6105 20.0805C16.7065 20.2965 16.739 20.4885 16.7195 20.6285C16.7035 20.7435 16.6525 20.846 16.498 20.934C16.3902 20.9956 16.2633 21.0149 16.142 20.9881C16.0208 20.9613 15.9138 20.8903 15.842 20.789L15.092 19.73L15.0725 19.7005L12.5525 15.5495C12.5079 15.476 12.4452 15.4153 12.3703 15.3731C12.2954 15.331 12.2109 15.3088 12.125 15.3088C12.0391 15.3088 11.9546 15.331 11.8797 15.3731C11.8048 15.4153 11.7421 15.476 11.6975 15.5495L11.0075 16.686C10.7995 16.4467 10.5375 16.2604 10.2432 16.1426C9.94883 16.0248 9.63065 15.9788 9.315 16.0085C9.354 15.9015 9.391 15.7973 9.426 15.696C9.51653 15.4393 9.59791 15.1795 9.67 14.917C9.69913 14.8119 9.72249 14.7052 9.74 14.5975C9.74652 14.5654 9.74987 14.5327 9.75 14.5V12.9965ZM7.893 19.5035L7.981 19.301C8.24977 19.6151 8.60926 19.8381 9.01 19.9395L8.408 20.789C8.33617 20.8904 8.22914 20.9615 8.10776 20.9883C7.98638 21.0151 7.85937 20.9958 7.7515 20.934C7.5975 20.846 7.5465 20.744 7.5305 20.629C7.5105 20.4885 7.5435 20.2965 7.6395 20.0805C7.701 19.9425 7.788 19.7445 7.893 19.5035ZM8.5 10C8.76522 10 9.01957 9.89464 9.20711 9.70711C9.39464 9.51957 9.5 9.26522 9.5 9C9.5 8.73478 9.39464 8.48043 9.20711 8.29289C9.01957 8.10536 8.76522 8 8.5 8C8.23478 8 7.98043 8.10536 7.79289 8.29289C7.60536 8.48043 7.5 8.73478 7.5 9C7.5 9.26522 7.60536 9.51957 7.79289 9.70711C7.98043 9.89464 8.23478 10 8.5 10ZM14.25 12.5C14.5815 12.5 14.8995 12.3683 15.1339 12.1339C15.3683 11.8995 15.5 11.5815 15.5 11.25C15.5 10.9185 15.3683 10.6005 15.1339 10.3661C14.8995 10.1317 14.5815 10 14.25 10C13.9185 10 13.6005 10.1317 13.3661 10.3661C13.1317 10.6005 13 10.9185 13 11.25C13 11.5815 13.1317 11.8995 13.3661 12.1339C13.6005 12.3683 13.9185 12.5 14.25 12.5ZM9.5 19C9.76522 19 10.0196 18.8946 10.2071 18.7071C10.3946 18.5196 10.5 18.2652 10.5 18C10.5 17.7348 10.3946 17.4804 10.2071 17.2929C10.0196 17.1054 9.76522 17 9.5 17C9.23478 17 8.98043 17.1054 8.79289 17.2929C8.60536 17.4804 8.5 17.7348 8.5 18C8.5 18.2652 8.60536 18.5196 8.79289 18.7071C8.98043 18.8946 9.23478 19 9.5 19Z" fill="#411E75"/>
</svg>
