<svg width="24" height="24" viewBox="0 0 24 24" fill="none" xmlns="http://www.w3.org/2000/svg">
<path fill-rule="evenodd" clip-rule="evenodd" d="M9.00011 15.3529C8.47592 15.5729 7.91255 15.6841 7.34411 15.6799C6.42661 15.6799 6.12311 16.4144 5.80061 17.1949C5.43511 18.0794 5.04461 19.0234 3.70661 19.0234C1.18811 19.0234 1.80961 11.2734 3.30961 8.27344C4.80961 5.27344 6.86261 5.02344 11.0596 5.02344C13.6311 5.02344 14.2831 5.41544 14.7881 5.71944C15.1076 5.91144 15.3681 6.06794 16.0186 6.06794C16.6901 6.06794 17.6306 5.86794 18.5706 5.66694C19.9806 5.36594 21.3916 5.06544 21.8951 5.44144C22.7346 6.06794 20.2161 10.6649 17.6976 10.6649C16.4016 10.6649 15.6241 11.5944 14.8696 12.4964C14.1586 13.3464 13.4676 14.1724 12.3811 14.1724C11.3351 14.1724 10.6556 14.5019 10.0001 14.8524V19.7734H9.00011L9.00011 15.3529ZM4.34661 17.8024C4.23661 17.9149 4.07861 18.0234 3.70661 18.0234H3.70561C3.67911 18.0234 3.65911 18.0234 3.60661 17.9719C3.53211 17.8989 3.42161 17.7379 3.31461 17.4334C3.09861 16.8204 2.98761 15.8934 3.00111 14.7854C3.02811 12.5639 3.54411 10.0404 4.20411 8.72044C4.86211 7.40544 5.57161 6.80044 6.50911 6.46544C7.54561 6.09544 8.93361 6.02344 11.0596 6.02344C11.2179 6.02344 11.3679 6.02494 11.5096 6.02794C11.0681 6.59244 10.8276 7.21294 10.6986 7.75044C10.613 8.11041 10.5639 8.47811 10.5521 8.84794C10.5473 8.99229 10.5495 9.13679 10.5586 9.28094L10.5601 9.30044L10.5611 9.30894L10.5616 9.31794V9.32094L10.5621 9.32244L11.0596 9.27344L11.5571 9.22394L11.5561 9.20894L11.5526 9.14294C11.5489 9.05482 11.5486 8.96658 11.5516 8.87844C11.5586 8.65044 11.5866 8.33344 11.6706 7.98344C11.8221 7.35294 12.1471 6.64044 12.8326 6.11494C13.5226 6.20344 13.8376 6.33744 14.0246 6.43394C14.1081 6.47744 14.1796 6.51994 14.2751 6.57744L14.3041 6.59494C14.4071 6.65694 14.5476 6.74044 14.7126 6.81544C15.0781 6.98144 15.4806 7.06794 16.0186 7.06794C16.5396 7.06794 17.1436 6.97344 17.7146 6.86444C18.0774 6.79349 18.4394 6.71882 18.8006 6.64044C19.0336 6.59044 19.2611 6.54244 19.4711 6.49944C20.0451 6.38244 20.5376 6.29744 20.9226 6.27294L20.9786 6.26944C20.8536 6.66444 20.5956 7.18944 20.2301 7.72394C19.8546 8.27294 19.4001 8.78144 18.9271 9.14244C18.4451 9.51044 18.0256 9.66494 17.6976 9.66494C15.9356 9.66494 14.8901 10.9144 14.1976 11.7414L14.1321 11.8194C13.7601 12.2639 13.4781 12.6009 13.1731 12.8469C12.8881 13.0779 12.6481 13.1724 12.3811 13.1724C11.3616 13.1724 10.6111 13.4359 10.0001 13.7289V11.5234C10.0001 11.3259 10.0976 11.1414 10.2671 10.9934C10.4456 10.8369 10.6451 10.7734 10.7501 10.7734L10.7501 9.77344C10.3551 9.77344 9.93011 9.95994 9.60861 10.2409C9.28661 10.5224 9.01511 10.9474 9.00061 11.4794H6.45361C5.25861 11.4794 3.82561 12.0049 5.25861 13.0559C6.29861 13.8189 8.09311 13.2119 9.00011 12.8209L9.00011 14.2509C8.49061 14.5089 8.02761 14.6799 7.34411 14.6799C6.49411 14.6799 5.90011 15.0759 5.50511 15.6009C5.21411 15.9864 5.01411 16.4754 4.87061 16.8254L4.81311 16.9654C4.63561 17.3889 4.50461 17.6404 4.34661 17.8024Z" fill="#411E75"/>
</svg>
