<svg width="24" height="24" viewBox="0 0 24 24" fill="none" xmlns="http://www.w3.org/2000/svg">
<path fill-rule="evenodd" clip-rule="evenodd" d="M9.29491 1.3545C9.12358 1.25318 8.91903 1.22408 8.72624 1.27359C8.53345 1.3231 8.36823 1.44717 8.26691 1.6185C8.1656 1.78983 8.1365 1.99438 8.18601 2.18717C8.23552 2.37996 8.35958 2.54518 8.53091 2.6465L8.72691 2.7625L2.00191 14.3705C1.63399 15.0059 1.39515 15.7077 1.29912 16.4357C1.20309 17.1636 1.25175 17.9034 1.44231 18.6125C1.63287 19.3216 1.96158 19.9861 2.40958 20.5678C2.85757 21.1495 3.41603 21.6371 4.05291 22.0025C5.3394 22.7435 6.86716 22.9444 8.30145 22.5611C9.73575 22.1777 10.9596 21.2415 11.7049 19.9575L18.4339 8.3435L18.6259 8.4535C18.7981 8.54919 19.001 8.5733 19.1908 8.52063C19.3806 8.46796 19.5421 8.34272 19.6403 8.17198C19.7386 8.00125 19.7657 7.79871 19.7158 7.60814C19.666 7.41757 19.5432 7.25426 19.3739 7.1535L18.5339 6.6705L10.1259 1.8465L9.29491 1.3545ZM3.29991 15.1225L10.0229 3.5165L17.1329 7.5965L15.6279 10.1935L13.7179 9.0955C13.5457 8.9998 13.3428 8.97569 13.153 9.02836C12.9632 9.08104 12.8017 9.20627 12.7035 9.37701C12.6053 9.54775 12.5781 9.75028 12.628 9.94085C12.6778 10.1314 12.8007 10.2947 12.9699 10.3955L14.8759 11.4915L13.9149 13.1515L10.3599 11.1065C10.2745 11.0556 10.1798 11.0223 10.0813 11.0083C9.98289 10.9944 9.88265 11.0002 9.78646 11.0254C9.69027 11.0505 9.60004 11.0946 9.52102 11.1549C9.44201 11.2153 9.37578 11.2907 9.32619 11.3769C9.2766 11.4631 9.24465 11.5583 9.23218 11.6569C9.21971 11.7555 9.22699 11.8557 9.25357 11.9515C9.28016 12.0473 9.32553 12.1369 9.38705 12.215C9.44857 12.2931 9.52501 12.3582 9.61191 12.4065L13.1619 14.4495L12.2769 15.9775L10.3129 14.8475C10.1407 14.7518 9.93782 14.7277 9.74801 14.7804C9.5582 14.833 9.39673 14.9583 9.29849 15.129C9.20025 15.2997 9.17313 15.5023 9.22298 15.6929C9.27283 15.8834 9.39565 16.0467 9.56491 16.1475L11.5249 17.2755L10.4069 19.2055C9.86053 20.1458 8.96374 20.8312 7.91298 21.1116C6.86221 21.392 5.74315 21.2446 4.80091 20.7015C4.3351 20.4345 3.9266 20.0782 3.59887 19.6529C3.27115 19.2276 3.03065 18.7418 2.89118 18.2233C2.75171 17.7049 2.71603 17.1639 2.78617 16.6316C2.85631 16.0993 3.0309 15.5871 3.29991 15.1225ZM21.1749 12.1025C21.0243 11.9417 20.8423 11.8136 20.6402 11.726C20.4381 11.6384 20.2202 11.5932 19.9999 11.5932C19.7796 11.5932 19.5617 11.6384 19.3596 11.726C19.1575 11.8136 18.9755 11.9417 18.8249 12.1025C18.4616 12.4778 18.1317 12.884 17.8389 13.3165C17.5549 13.7465 17.2499 14.3245 17.2499 14.9165C17.2499 16.4525 18.4529 17.7505 19.9999 17.7505C21.5469 17.7505 22.7499 16.4525 22.7499 14.9175C22.7499 14.3245 22.4459 13.7475 22.1609 13.3165C21.8681 12.884 21.5382 12.4778 21.1749 12.1025ZM19.9139 13.1335C19.9429 13.1035 19.9739 13.0935 19.9999 13.0935C20.0164 13.0938 20.0326 13.0976 20.0476 13.1044C20.0625 13.1113 20.0759 13.1212 20.0869 13.1335C20.3649 13.4275 20.6739 13.7865 20.9099 14.1435C21.1629 14.5265 21.2499 14.7895 21.2499 14.9175C21.2499 15.6825 20.6619 16.2505 19.9999 16.2505C19.3379 16.2505 18.7499 15.6825 18.7499 14.9175C18.7499 14.7895 18.8369 14.5275 19.0899 14.1425C19.3259 13.7865 19.6349 13.4275 19.9139 13.1335Z" fill="#411E75"/>
</svg>
