<svg width="24" height="24" viewBox="0 0 24 24" fill="none" xmlns="http://www.w3.org/2000/svg">
<path fill-rule="evenodd" clip-rule="evenodd" d="M20.329 12.0019L16.954 12.0044C17.009 12.1609 17.0395 12.3294 17.04 12.5044V12.8244C17.04 13.3179 16.8025 13.7559 16.435 14.0294C16.58 14.2594 16.6635 14.5324 16.664 14.8244V15.1444C16.6642 15.3414 16.6256 15.5365 16.5503 15.7186C16.4751 15.9007 16.3647 16.0662 16.2255 16.2057C16.0863 16.3451 15.921 16.4557 15.7391 16.5313C15.5571 16.6068 15.362 16.6457 15.165 16.6459H14.8945C14.9495 16.8024 14.98 16.9709 14.98 17.1459L14.9805 17.4659C14.9807 17.6629 14.9421 17.858 14.8668 18.0401C14.7916 18.2222 14.6812 18.3877 14.542 18.5272C14.4028 18.6666 14.2375 18.7772 14.0556 18.8528C13.8736 18.9283 13.6785 18.9672 13.4815 18.9674L7.94999 18.9719C4.66099 18.9744 1.99249 16.3104 1.98999 13.0214C1.98886 11.798 2.36452 10.604 3.06589 9.60173C3.76726 8.59942 4.7603 7.83743 5.90999 7.41938L11.9005 5.24188C12.1908 5.13608 12.5053 5.11603 12.8067 5.18412C13.108 5.25221 13.3834 5.40556 13.6 5.62588C14.422 6.46088 14.106 7.86588 13.006 8.26988L11.8635 8.68838L20.3265 8.68188C20.7668 8.68155 21.1891 8.85612 21.5007 9.1672C21.8122 9.47828 21.9874 9.90037 21.9877 10.3406C21.9881 10.7809 21.8135 11.2033 21.5024 11.5148C21.1913 11.8263 20.7693 12.0015 20.329 12.0019ZM20.327 9.68188C20.502 9.68175 20.67 9.75116 20.7938 9.87484C20.9177 9.99852 20.9874 10.1663 20.9875 10.3414C20.9876 10.5164 20.9182 10.6843 20.7945 10.8082C20.6709 10.9321 20.503 11.0017 20.328 11.0019H19.987L19.988 10.9649V10.9619C19.988 10.5479 19.54 10.2119 18.988 10.2129C18.4355 10.2129 17.988 10.5494 17.988 10.9634C17.988 10.9767 17.9885 10.99 17.9895 11.0034L12.747 11.0079L12.748 12.0079L15.5395 12.0054C15.6721 12.0054 15.7993 12.0581 15.893 12.1518C15.9868 12.2456 16.0395 12.3728 16.0395 12.5054L16.04 12.8254C16.04 12.958 15.9873 13.0852 15.8935 13.1789C15.7998 13.2727 15.6726 13.3254 15.54 13.3254L12.749 13.3279L12.75 14.3279L15.1635 14.3259C15.2961 14.3259 15.4233 14.3786 15.517 14.4723C15.6108 14.5661 15.6635 14.6933 15.6635 14.8259L15.664 15.1454C15.664 15.278 15.6113 15.4052 15.5175 15.4989C15.4238 15.5927 15.2966 15.6454 15.164 15.6454L11.611 15.6489L11.612 16.6489L13.48 16.6474C13.6125 16.6474 13.7396 16.7 13.8334 16.7937C13.9271 16.8873 13.9799 17.0144 13.98 17.1469L13.9805 17.4669C13.9805 17.5995 13.9278 17.7267 13.834 17.8204C13.7403 17.9142 13.6131 17.9669 13.4805 17.9669L7.94899 17.9719C5.21249 17.9739 2.99199 15.7569 2.98999 13.0204C2.98913 12.0025 3.30177 11.009 3.88541 10.1751C4.46905 9.34114 5.29536 8.70717 6.25199 8.35938L12.242 6.18188C12.3929 6.1322 12.5572 6.14316 12.7002 6.21243C12.8432 6.2817 12.9536 6.40386 13.0082 6.55308C13.0627 6.7023 13.0571 6.86689 12.9925 7.01204C12.9279 7.15719 12.8094 7.27153 12.662 7.33088L11.519 7.74988C10.4695 8.13488 10.7465 9.68988 11.864 9.68838L20.327 9.68188Z" fill="#411E75"/>
<path d="M18.9929 16.7109C19.8329 16.7109 20.4924 16.0809 20.4919 15.2809C20.4909 14.5384 18.9894 12.7109 18.9894 12.7109C18.9894 12.7109 17.4909 14.4839 17.4919 15.2839C17.4919 16.0839 18.1529 16.7119 18.9929 16.7109Z" fill="#411E75"/>
</svg>
