<svg width="24" height="24" viewBox="0 0 24 24" fill="none" xmlns="http://www.w3.org/2000/svg">
<path fill-rule="evenodd" clip-rule="evenodd" d="M10.7919 5.04491L10.7889 5.04791L10.7824 4.93091L10.7784 4.85191C10.7604 4.52191 10.7324 4.02191 10.5294 3.62691C10.413 3.39018 10.223 3.19755 9.98794 3.07791C9.73044 2.94991 9.43644 2.92091 9.12244 2.96391C8.84394 3.00241 8.59744 3.11391 8.40244 3.30291C8.21144 3.48791 8.09744 3.71991 8.03544 3.95691C7.91394 4.41591 7.96544 4.96491 8.09044 5.49341C8.34394 6.56141 8.95944 7.79341 9.65194 8.63141C9.91844 8.95391 9.99994 9.43991 9.99994 9.64941L9.99994 10.7514L10.9999 11.0014V10.3439C11.4414 10.1799 11.7394 10.1049 12.0189 10.0989C12.2899 10.0939 12.5789 10.1529 12.9999 10.3269V11.0014L13.9999 10.7514V9.64941C13.9999 9.43991 14.0819 8.95441 14.3479 8.63141C15.0354 7.79891 15.6819 6.57241 15.9679 5.50741C16.1089 4.98191 16.1794 4.43341 16.0734 3.97241C16.0189 3.73441 15.9119 3.49791 15.7224 3.30841C15.5289 3.11541 15.2809 3.00241 15.0024 2.96391C14.6884 2.92091 14.3939 2.94991 14.1369 3.07791C13.8769 3.20791 13.7054 3.41191 13.5949 3.62691C13.3919 4.02191 13.3644 4.52191 13.3464 4.85191L13.3419 4.93091L13.3354 5.04791L13.3324 5.04491C13.0939 4.83241 12.7779 4.75991 12.5649 4.72891C12.4191 4.70883 12.2721 4.69798 12.1249 4.69641H11.9999C11.8527 4.69798 11.7058 4.70933 11.5599 4.72941C11.3464 4.76041 11.0309 4.83291 10.7919 5.04541M11.4569 5.79241L11.4719 5.78291L11.4999 5.76991V8.00141H12.4999V5.73241C12.5393 5.74074 12.5733 5.75007 12.6019 5.76041C12.6248 5.76861 12.6468 5.77916 12.6674 5.79191C12.8789 5.98041 13.0939 6.13941 13.3094 6.21191C13.4254 6.25041 13.5729 6.27491 13.7314 6.23591C13.8817 6.19883 14.0146 6.11128 14.1079 5.98791C14.2504 5.80291 14.2889 5.56691 14.3069 5.42491C14.3249 5.28491 14.3334 5.12391 14.3409 4.97741L14.3449 4.90641C14.3649 4.53341 14.3959 4.25641 14.4849 4.08391C14.5199 4.01491 14.5529 3.98791 14.5819 3.97391C14.6139 3.95741 14.6939 3.93091 14.8659 3.95441C14.9559 3.96691 14.9949 3.99541 15.0159 4.01591C15.0404 4.04091 15.0749 4.09141 15.0989 4.19591C15.1504 4.42091 15.1274 4.78091 15.0019 5.24841C14.7549 6.16991 14.1769 7.26841 13.5769 7.99491C13.2419 8.39991 13.0914 8.89741 13.0324 9.27141C12.6754 9.15241 12.3434 9.09241 11.9984 9.09941C11.6584 9.10641 11.3264 9.17891 10.9709 9.29441C10.9144 8.91791 10.7644 8.40841 10.4229 7.99441C9.82794 7.27441 9.28144 6.18091 9.06394 5.26291C8.95394 4.79791 8.94244 4.43791 9.00244 4.21191C9.03044 4.10591 9.06794 4.05041 9.09794 4.02141C9.12444 3.99641 9.16794 3.96691 9.25894 3.95441C9.43044 3.93091 9.51044 3.95741 9.54244 3.97341C9.57144 3.98791 9.60444 4.01491 9.63994 4.08391C9.72894 4.25641 9.75994 4.53341 9.77994 4.90641L9.78394 4.97741C9.79144 5.12391 9.79994 5.28491 9.81744 5.42491C9.83594 5.56691 9.87394 5.80291 10.0164 5.98791C10.1009 6.09791 10.2254 6.19491 10.3929 6.23591C10.5519 6.27491 10.6994 6.25041 10.8149 6.21141C11.0309 6.13941 11.2454 5.98041 11.4574 5.79141M11.9999 21.0014C12.5304 21.0014 13.0391 20.7907 13.4142 20.4156C13.7892 20.0405 13.9999 19.5318 13.9999 19.0014V17.9179L12.9999 16.8349L12.9999 17.6589C12.5584 17.8229 12.2604 17.8979 11.9809 17.9039C11.7099 17.9089 11.4209 17.8499 10.9999 17.6759V16.8349L9.99994 17.9179L9.99994 19.0014C9.99994 19.5318 10.2107 20.0405 10.5857 20.4156C10.9608 20.7907 11.4695 21.0014 11.9999 21.0014ZM11.9999 20.0014C11.7347 20.0014 11.4804 19.8961 11.2928 19.7085C11.1053 19.521 10.9999 19.2666 10.9999 19.0014V18.7419C11.3449 18.8539 11.6674 18.9104 12.0014 18.9034C12.3324 18.8964 12.6554 18.8279 12.9999 18.7179V19.0014C12.9999 19.2666 12.8946 19.521 12.707 19.7085C12.5195 19.8961 12.2652 20.0014 11.9999 20.0014Z" fill="#411E75"/>
<path d="M5.5 9.5C5.63261 9.5 5.75979 9.44732 5.85355 9.35355C5.94732 9.25979 6 9.13261 6 9C6 8.86739 5.94732 8.74021 5.85355 8.64645C5.75979 8.55268 5.63261 8.5 5.5 8.5C5.36739 8.5 5.24021 8.55268 5.14645 8.64645C5.05268 8.74021 5 8.86739 5 9C5 9.13261 5.05268 9.25979 5.14645 9.35355C5.24021 9.44732 5.36739 9.5 5.5 9.5ZM7 11C7 11.1326 6.94732 11.2598 6.85355 11.3536C6.75979 11.4473 6.63261 11.5 6.5 11.5C6.36739 11.5 6.24021 11.4473 6.14645 11.3536C6.05268 11.2598 6 11.1326 6 11C6 10.8674 6.05268 10.7402 6.14645 10.6464C6.24021 10.5527 6.36739 10.5 6.5 10.5C6.63261 10.5 6.75979 10.5527 6.85355 10.6464C6.94732 10.7402 7 10.8674 7 11ZM5.5 13.5C5.63261 13.5 5.75979 13.4473 5.85355 13.3536C5.94732 13.2598 6 13.1326 6 13C6 12.8674 5.94732 12.7402 5.85355 12.6464C5.75979 12.5527 5.63261 12.5 5.5 12.5C5.36739 12.5 5.24021 12.5527 5.14645 12.6464C5.05268 12.7402 5 12.8674 5 13C5 13.1326 5.05268 13.2598 5.14645 13.3536C5.24021 13.4473 5.36739 13.5 5.5 13.5ZM8.5 15.5C8.5 15.6326 8.44732 15.7598 8.35355 15.8536C8.25979 15.9473 8.13261 16 8 16C7.86739 16 7.74021 15.9473 7.64645 15.8536C7.55268 15.7598 7.5 15.6326 7.5 15.5C7.5 15.3674 7.55268 15.2402 7.64645 15.1464C7.74021 15.0527 7.86739 15 8 15C8.13261 15 8.25979 15.0527 8.35355 15.1464C8.44732 15.2402 8.5 15.3674 8.5 15.5ZM6 16C6.13261 16 6.25979 15.9473 6.35355 15.8536C6.44732 15.7598 6.5 15.6326 6.5 15.5C6.5 15.3674 6.44732 15.2402 6.35355 15.1464C6.25979 15.0527 6.13261 15 6 15C5.86739 15 5.74021 15.0527 5.64645 15.1464C5.55268 15.2402 5.5 15.3674 5.5 15.5C5.5 15.6326 5.55268 15.7598 5.64645 15.8536C5.74021 15.9473 5.86739 16 6 16ZM8.5 13.5C8.5 13.6326 8.44732 13.7598 8.35355 13.8536C8.25979 13.9473 8.13261 14 8 14C7.86739 14 7.74021 13.9473 7.64645 13.8536C7.55268 13.7598 7.5 13.6326 7.5 13.5C7.5 13.3674 7.55268 13.2402 7.64645 13.1464C7.74021 13.0527 7.86739 13 8 13C8.13261 13 8.25979 13.0527 8.35355 13.1464C8.44732 13.2402 8.5 13.3674 8.5 13.5ZM10 14.5C10.1326 14.5 10.2598 14.4473 10.3536 14.3536C10.4473 14.2598 10.5 14.1326 10.5 14C10.5 13.8674 10.4473 13.7402 10.3536 13.6464C10.2598 13.5527 10.1326 13.5 10 13.5C9.86739 13.5 9.74021 13.5527 9.64645 13.6464C9.55268 13.7402 9.5 13.8674 9.5 14C9.5 14.1326 9.55268 14.2598 9.64645 14.3536C9.74021 14.4473 9.86739 14.5 10 14.5ZM18 9C18 9.13261 18.0527 9.25979 18.1464 9.35355C18.2402 9.44732 18.3674 9.5 18.5 9.5C18.6326 9.5 18.7598 9.44732 18.8536 9.35355C18.9473 9.25979 19 9.13261 19 9C19 8.86739 18.9473 8.74021 18.8536 8.64645C18.7598 8.55268 18.6326 8.5 18.5 8.5C18.3674 8.5 18.2402 8.55268 18.1464 8.64645C18.0527 8.74021 18 8.86739 18 9ZM17.5 11.5C17.3674 11.5 17.2402 11.4473 17.1464 11.3536C17.0527 11.2598 17 11.1326 17 11C17 10.8674 17.0527 10.7402 17.1464 10.6464C17.2402 10.5527 17.3674 10.5 17.5 10.5C17.6326 10.5 17.7598 10.5527 17.8536 10.6464C17.9473 10.7402 18 10.8674 18 11C18 11.1326 17.9473 11.2598 17.8536 11.3536C17.7598 11.4473 17.6326 11.5 17.5 11.5ZM18 13C18 13.1326 18.0527 13.2598 18.1464 13.3536C18.2402 13.4473 18.3674 13.5 18.5 13.5C18.6326 13.5 18.7598 13.4473 18.8536 13.3536C18.9473 13.2598 19 13.1326 19 13C19 12.8674 18.9473 12.7402 18.8536 12.6464C18.7598 12.5527 18.6326 12.5 18.5 12.5C18.3674 12.5 18.2402 12.5527 18.1464 12.6464C18.0527 12.7402 18 12.8674 18 13ZM16 16C15.8674 16 15.7402 15.9473 15.6464 15.8536C15.5527 15.7598 15.5 15.6326 15.5 15.5C15.5 15.3674 15.5527 15.2402 15.6464 15.1464C15.7402 15.0527 15.8674 15 16 15C16.1326 15 16.2598 15.0527 16.3536 15.1464C16.4473 15.2402 16.5 15.3674 16.5 15.5C16.5 15.6326 16.4473 15.7598 16.3536 15.8536C16.2598 15.9473 16.1326 16 16 16ZM17.5 15.5C17.5 15.6326 17.5527 15.7598 17.6464 15.8536C17.7402 15.9473 17.8674 16 18 16C18.1326 16 18.2598 15.9473 18.3536 15.8536C18.4473 15.7598 18.5 15.6326 18.5 15.5C18.5 15.3674 18.4473 15.2402 18.3536 15.1464C18.2598 15.0527 18.1326 15 18 15C17.8674 15 17.7402 15.0527 17.6464 15.1464C17.5527 15.2402 17.5 15.3674 17.5 15.5ZM16 14C15.8674 14 15.7402 13.9473 15.6464 13.8536C15.5527 13.7598 15.5 13.6326 15.5 13.5C15.5 13.3674 15.5527 13.2402 15.6464 13.1464C15.7402 13.0527 15.8674 13 16 13C16.1326 13 16.2598 13.0527 16.3536 13.1464C16.4473 13.2402 16.5 13.3674 16.5 13.5C16.5 13.6326 16.4473 13.7598 16.3536 13.8536C16.2598 13.9473 16.1326 14 16 14ZM13.5 14C13.5 14.1326 13.5527 14.2598 13.6464 14.3536C13.7402 14.4473 13.8674 14.5 14 14.5C14.1326 14.5 14.2598 14.4473 14.3536 14.3536C14.4473 14.2598 14.5 14.1326 14.5 14C14.5 13.8674 14.4473 13.7402 14.3536 13.6464C14.2598 13.5527 14.1326 13.5 14 13.5C13.8674 13.5 13.7402 13.5527 13.6464 13.6464C13.5527 13.7402 13.5 13.8674 13.5 14ZM12 14.5C12.1326 14.5 12.2598 14.4473 12.3536 14.3536C12.4473 14.2598 12.5 14.1326 12.5 14C12.5 13.8674 12.4473 13.7402 12.3536 13.6464C12.2598 13.5527 12.1326 13.5 12 13.5C11.8674 13.5 11.7402 13.5527 11.6464 13.6464C11.5527 13.7402 11.5 13.8674 11.5 14C11.5 14.1326 11.5527 14.2598 11.6464 14.3536C11.7402 14.4473 11.8674 14.5 12 14.5Z" fill="#411E75"/>
<path fill-rule="evenodd" clip-rule="evenodd" d="M16.613 7.36251C16.9155 6.60951 17.323 6.04151 17.819 5.72801C18.3415 5.39801 18.933 5.37501 19.459 5.67801C19.955 5.96301 20.336 6.50301 20.592 7.18851C20.8505 7.88351 21 8.77451 21 9.84101V14.9345C21 15.3595 20.918 16.3425 20.4415 17.2385C19.9465 18.17 19.0225 19 17.423 19C16.6255 19 16.03 18.775 15.547 18.4245C15.1145 18.1115 14.784 17.7035 14.497 17.3495L14.439 17.278C14.124 16.891 13.845 16.564 13.4805 16.323C13.1305 16.0915 12.677 15.925 12 15.925C11.323 15.925 10.8695 16.0915 10.52 16.323C10.155 16.5635 9.876 16.891 9.561 17.278L9.503 17.35C9.216 17.7035 8.8855 18.111 8.453 18.4245C7.97 18.7745 7.3745 19 6.577 19C4.9775 19 4.0535 18.1695 3.5585 17.2385C3.082 16.3425 3 15.359 3 14.935L3 9.84101C3 8.77451 3.1495 7.88301 3.408 7.18901C3.664 6.50251 4.045 5.96301 4.5405 5.67801C5.067 5.37501 5.6585 5.39801 6.1805 5.72801C6.6765 6.04151 7.0845 6.60951 7.387 7.36251C7.464 7.55401 7.539 7.76051 7.6175 7.97651C7.877 8.68801 8.174 9.50401 8.696 10.234C9.343 11.138 10.318 11.869 12 11.869C13.682 11.869 14.657 11.138 15.304 10.234C15.826 9.50401 16.123 8.68801 16.3825 7.97651C16.461 7.76051 16.5365 7.55401 16.613 7.36251ZM7.883 10.8155C8.69 11.944 9.951 12.869 12 12.869C14.049 12.869 15.31 11.944 16.117 10.8155C16.7285 9.96051 17.091 8.96151 17.352 8.24151C17.4215 8.05051 17.4835 7.87901 17.541 7.73501C17.801 7.08851 18.1015 6.73251 18.353 6.57401C18.578 6.43201 18.772 6.43601 18.9605 6.54451C19.1805 6.67101 19.4445 6.97351 19.655 7.53801C19.862 8.09401 20 8.86201 20 9.84101V14.9345C20 15.2745 19.928 16.0735 19.5585 16.7695C19.207 17.43 18.593 18 17.4235 18C16.836 18 16.446 17.841 16.1335 17.615C15.8115 17.3815 15.558 17.0695 15.249 16.689L15.215 16.647C14.905 16.2655 14.54 15.824 14.0315 15.4885C13.509 15.1435 12.8615 14.925 12 14.925C11.1385 14.925 10.491 15.143 9.9685 15.4885C9.4605 15.824 9.0955 16.2655 8.785 16.647L8.751 16.689C8.442 17.069 8.1885 17.3815 7.866 17.615C7.554 17.841 7.164 18 6.577 18C5.407 18 4.793 17.43 4.4415 16.769C4.0715 16.074 4 15.274 4 14.9345L4 9.84101C4 8.86201 4.138 8.09401 4.345 7.53801C4.5555 6.97351 4.82 6.67101 5.0395 6.54451C5.228 6.43601 5.422 6.43201 5.647 6.57401C5.898 6.73251 6.199 7.08901 6.459 7.73501C6.5165 7.87901 6.579 8.05001 6.648 8.24101C6.909 8.96101 7.2715 9.96051 7.883 10.8155Z" fill="#411E75"/>
</svg>
