<svg width="24" height="24" viewBox="0 0 24 24" fill="none" xmlns="http://www.w3.org/2000/svg">
<path d="M4.5 6V4.5H5.5V6H4.5ZM6.5 4.5V6H7.5V4.5L6.5 4.5ZM8.5 6V4.5H9.5V6H8.5ZM10.5 4.5V6H11.5V4.5H10.5ZM12.5 6V4.5L13.5 4.5V6H12.5ZM14.5 4.5V6H15.5V4.5H14.5ZM16.5 6V4.5H17.5V6H16.5ZM18.5 4.5V6L19.5 6V4.5L18.5 4.5Z" fill="#411E75"/>
<path fill-rule="evenodd" clip-rule="evenodd" d="M19.4285 7.5H21V4.5C21 4.10218 20.842 3.72064 20.5607 3.43934C20.2794 3.15804 19.8978 3 19.5 3L4.5 3C4.10218 3 3.72064 3.15804 3.43934 3.43934C3.15804 3.72064 3 4.10218 3 4.5L3 7.5H4.0715C4.0715 7.52267 4.07217 7.54567 4.0735 7.569L4.724 17H4.7065L4.8085 18.2245L4.936 20.069C4.94167 20.1527 4.95717 20.2328 4.9825 20.3095L5.04 21L18.4745 21L18.5095 20.334C18.5395 20.25 18.5578 20.1617 18.5645 20.069L19.4265 7.569C19.4278 7.54567 19.4285 7.52267 19.4285 7.5ZM20 6.5V4.5C20 4.36739 19.9473 4.24021 19.8536 4.14645C19.7598 4.05268 19.6326 4 19.5 4L4.5 4C4.36739 4 4.24021 4.05268 4.14645 4.14645C4.05268 4.24021 4 4.36739 4 4.5V6.5L20 6.5ZM18.222 10.5L18.4285 7.5L5.0715 7.5L5.175 9H10.5C10.7652 9 11.0196 9.10536 11.2071 9.29289C11.3946 9.48043 11.5 9.73478 11.5 10V10.5L18.222 10.5ZM10.7975 17.955C11.0011 17.8915 11.1791 17.7646 11.3055 17.5928C11.4319 17.421 11.5001 17.2133 11.5 17V11.5H17.973L17.5255 20L5.96 20L5.8055 18.1485L5.7955 18H10.7675L10.7975 17.955ZM10.5 10H5.557L5.946 17H10.2325L10.5 16.5985L10.5 10Z" fill="#411E75"/>
</svg>
