<svg width="24" height="24" viewBox="0 0 24 24" fill="none" xmlns="http://www.w3.org/2000/svg">
<path d="M6.375 3.75C5.28135 3.75119 4.23283 4.18617 3.4595 4.9595C2.68617 5.73283 2.25119 6.78135 2.25 7.875L2.25 16.125C2.25 18.399 4.10025 20.25 6.375 20.25C8.64975 20.25 10.5 18.399 10.5 16.125V12.303L15.0413 18.552C15.4244 19.0795 15.9271 19.5087 16.5081 19.8044C17.0892 20.1001 17.732 20.2538 18.384 20.253C19.2534 20.2533 20.1005 19.9778 20.8035 19.4662V19.4647C21.6873 18.8208 22.2796 17.8525 22.4504 16.7724C22.6212 15.6923 22.3567 14.5885 21.7147 13.7032L16.866 7.02825C16.2223 6.14435 15.2541 5.55197 14.1741 5.38112C13.0941 5.21028 11.9904 5.47493 11.1053 6.117C10.828 6.32047 10.5773 6.55781 10.359 6.8235C9.8925 5.058 8.28675 3.75 6.375 3.75ZM6.375 5.25C7.8225 5.25 9 6.4275 9 7.875V11.25H3.75V7.875C3.75 6.4275 4.9275 5.25 6.375 5.25ZM13.5262 6.82875C13.941 6.82816 14.35 6.92586 14.7197 7.11385C15.0895 7.30184 15.4094 7.57476 15.6533 7.91025L17.637 10.6395L13.3905 13.7272L11.4052 10.9973C10.9966 10.4336 10.8283 9.73087 10.9373 9.04327C11.0462 8.35567 11.4236 7.7394 11.9865 7.32975C12.4515 6.99225 12.9915 6.82875 13.5262 6.82875ZM18.5182 11.8523L20.5035 14.5837C20.9115 15.1477 21.0793 15.8503 20.9702 16.5377C20.8611 17.2252 20.484 17.8413 19.9215 18.2512C19.3581 18.6597 18.6557 18.828 17.9684 18.7192C17.2812 18.6103 16.6651 18.2333 16.2555 17.6708L14.2717 14.94L18.5182 11.8523ZM3.75 12.75L9 12.75V16.125C9 17.5725 7.8225 18.75 6.375 18.75C4.9275 18.75 3.75 17.5725 3.75 16.125L3.75 12.75Z" fill="#411E75"/>
</svg>
