<svg width="24" height="24" viewBox="0 0 24 24" fill="none" xmlns="http://www.w3.org/2000/svg">
<g id="fluent-mdl2:family">
<path id="Vector" d="M20.9766 20.121C21.7422 20.496 22.375 21.0233 22.875 21.703C23.375 22.3827 23.6914 23.1483 23.8242 23.9999H22.5352C22.4492 23.5546 22.2891 23.1405 22.0547 22.7577C21.8203 22.3749 21.5352 22.0468 21.1992 21.7733C20.8633 21.4999 20.4844 21.2811 20.0625 21.1171C19.6406 20.953 19.2031 20.8749 18.75 20.8827C18.2891 20.8827 17.8516 20.9608 17.4375 21.1171C17.0234 21.2733 16.6445 21.4882 16.3008 21.7616C15.957 22.035 15.6719 22.3671 15.4453 22.7577C15.2188 23.1483 15.0586 23.5624 14.9648 23.9999H13.6758C13.8008 23.1561 14.1133 22.3944 14.6133 21.7147C15.1133 21.035 15.75 20.5038 16.5234 20.121C16.0781 19.7694 15.7344 19.3436 15.4922 18.8436C15.25 18.3436 15.125 17.8124 15.1172 17.2499C15.1172 16.8983 15.1641 16.5585 15.2578 16.2303C15.3516 15.9022 15.4922 15.5936 15.6797 15.3046C15.8672 15.0155 16.0898 14.7577 16.3477 14.5311C16.6055 14.3046 16.8945 14.1132 17.2148 13.9569C17.0039 13.6522 16.7617 13.3827 16.4883 13.1483C16.2148 12.9139 15.918 12.7069 15.5977 12.5272C15.2773 12.3475 14.9414 12.2186 14.5898 12.1405C14.2383 12.0624 13.875 12.0155 13.5 11.9999C12.875 11.9999 12.2773 12.121 11.707 12.3632C11.1367 12.6053 10.6406 12.9608 10.2188 13.4296C10.4062 13.9374 10.5 14.4608 10.5 14.9999C10.5 15.7186 10.3398 16.3944 10.0195 17.0272C9.69922 17.66 9.25 18.1913 8.67188 18.621C9.17969 18.8788 9.63672 19.1952 10.043 19.5702C10.4492 19.9452 10.8008 20.3671 11.0977 20.8358C11.3945 21.3046 11.6172 21.8046 11.7656 22.3358C11.9141 22.8671 11.9922 23.4218 12 23.9999H10.5C10.5 23.3827 10.3828 22.8007 10.1484 22.2538C9.91406 21.7069 9.59375 21.2303 9.1875 20.8241C8.78125 20.4178 8.30078 20.0936 7.74609 19.8514C7.19141 19.6093 6.60938 19.4921 6 19.4999C5.375 19.4999 4.79297 19.6171 4.25391 19.8514C3.71484 20.0858 3.23828 20.4061 2.82422 20.8124C2.41016 21.2186 2.08594 21.6991 1.85156 22.2538C1.61719 22.8085 1.5 23.3905 1.5 23.9999H0C0 23.4296 0.078125 22.8788 0.234375 22.3475C0.390625 21.8163 0.613281 21.3163 0.902344 20.8475C1.19141 20.3788 1.53906 19.9569 1.94531 19.5819C2.35156 19.2069 2.8125 18.8866 3.32812 18.621C2.75 18.1913 2.30078 17.66 1.98047 17.0272C1.66016 16.3944 1.5 15.7186 1.5 14.9999C1.5 14.3827 1.61719 13.8007 1.85156 13.2538C2.08594 12.7069 2.40625 12.2303 2.8125 11.8241C3.21875 11.4178 3.69531 11.0936 4.24219 10.8514C4.78906 10.6093 5.375 10.4921 6 10.4999C6.66406 10.4999 7.29297 10.6405 7.88672 10.9218C8.48047 11.203 8.99609 11.5936 9.43359 12.0936C9.63672 11.8983 9.85547 11.7225 10.0898 11.5663C10.3242 11.41 10.5703 11.2616 10.8281 11.121C10.25 10.6913 9.80078 10.16 9.48047 9.52722C9.16016 8.89441 9 8.21863 9 7.49988C9 6.88269 9.11719 6.30066 9.35156 5.75378C9.58594 5.20691 9.90625 4.73035 10.3125 4.3241C10.7188 3.91785 11.1953 3.59363 11.7422 3.35144C12.2891 3.10925 12.875 2.99207 13.5 2.99988C14.1172 2.99988 14.6992 3.11707 15.2461 3.35144C15.793 3.58582 16.2695 3.90613 16.6758 4.31238C17.082 4.71863 17.4062 5.1991 17.6484 5.75378C17.8906 6.30847 18.0078 6.8905 18 7.49988C18 8.21863 17.8398 8.89441 17.5195 9.52722C17.1992 10.16 16.75 10.6913 16.1719 11.121C16.7188 11.41 17.2109 11.7616 17.6484 12.1757C18.0859 12.5897 18.457 13.0702 18.7617 13.6171C19.2617 13.6171 19.7305 13.7108 20.168 13.8983C20.6055 14.0858 20.9922 14.3475 21.3281 14.6835C21.6641 15.0194 21.9219 15.4022 22.1016 15.8319C22.2812 16.2616 22.375 16.7343 22.3828 17.2499C22.3828 17.8124 22.2617 18.3436 22.0195 18.8436C21.7773 19.3436 21.4297 19.7694 20.9766 20.121ZM6 17.9999C6.41406 17.9999 6.80078 17.9218 7.16016 17.7655C7.51953 17.6093 7.83984 17.3944 8.12109 17.121C8.40234 16.8475 8.61719 16.5311 8.76562 16.1718C8.91406 15.8124 8.99219 15.4218 9 14.9999C9 14.5858 8.92188 14.1991 8.76562 13.8397C8.60938 13.4803 8.39453 13.16 8.12109 12.8788C7.84766 12.5975 7.53125 12.3827 7.17188 12.2343C6.8125 12.0858 6.42188 12.0077 6 11.9999C5.58594 11.9999 5.19922 12.078 4.83984 12.2343C4.48047 12.3905 4.16016 12.6053 3.87891 12.8788C3.59766 13.1522 3.38281 13.4686 3.23438 13.828C3.08594 14.1874 3.00781 14.578 3 14.9999C3 15.4139 3.07812 15.8007 3.23438 16.16C3.39062 16.5194 3.60547 16.8397 3.87891 17.121C4.15234 17.4022 4.46875 17.6171 4.82812 17.7655C5.1875 17.9139 5.57812 17.9921 6 17.9999ZM10.5 7.49988C10.5 7.91394 10.5781 8.30066 10.7344 8.66003C10.8906 9.01941 11.1055 9.33972 11.3789 9.62097C11.6523 9.90222 11.9688 10.1171 12.3281 10.2655C12.6875 10.4139 13.0781 10.4921 13.5 10.4999C13.9141 10.4999 14.3008 10.4218 14.6602 10.2655C15.0195 10.1093 15.3398 9.89441 15.6211 9.62097C15.9023 9.34753 16.1172 9.03113 16.2656 8.67175C16.4141 8.31238 16.4922 7.92175 16.5 7.49988C16.5 7.08582 16.4219 6.6991 16.2656 6.33972C16.1094 5.98035 15.8945 5.66003 15.6211 5.37878C15.3477 5.09753 15.0312 4.88269 14.6719 4.73425C14.3125 4.58582 13.9219 4.50769 13.5 4.49988C13.0859 4.49988 12.6992 4.578 12.3398 4.73425C11.9805 4.8905 11.6602 5.10535 11.3789 5.37878C11.0977 5.65222 10.8828 5.96863 10.7344 6.328C10.5859 6.68738 10.5078 7.078 10.5 7.49988ZM18.75 14.8827C18.4219 14.8827 18.1172 14.9452 17.8359 15.0702C17.5547 15.1952 17.3047 15.3632 17.0859 15.5741C16.8672 15.785 16.6953 16.035 16.5703 16.3241C16.4453 16.6132 16.3828 16.9218 16.3828 17.2499C16.3828 17.578 16.4453 17.8827 16.5703 18.1639C16.6953 18.4452 16.8633 18.6952 17.0742 18.9139C17.2852 19.1327 17.5352 19.3046 17.8242 19.4296C18.1133 19.5546 18.4219 19.6171 18.75 19.6171C19.0781 19.6171 19.3828 19.5546 19.6641 19.4296C19.9453 19.3046 20.1953 19.1366 20.4141 18.9257C20.6328 18.7147 20.8047 18.4647 20.9297 18.1757C21.0547 17.8866 21.1172 17.578 21.1172 17.2499C21.1172 16.9218 21.0547 16.6171 20.9297 16.3358C20.8047 16.0546 20.6367 15.8046 20.4258 15.5858C20.2148 15.3671 19.9648 15.1952 19.6758 15.0702C19.3867 14.9452 19.0781 14.8827 18.75 14.8827Z" fill="#353535"/>
</g>
</svg>
