<svg width="24" height="24" viewBox="0 0 24 24" fill="none" xmlns="http://www.w3.org/2000/svg">
<g id="healthicons:mental-disorders-outline">
<g id="Group">
<path id="Vector" d="M17.3614 12.75C17.3614 13.164 17.0189 13.5 16.5954 13.5C16.1724 13.5 15.8299 13.164 15.8299 12.75C15.8299 12.336 16.1729 12 16.5954 12C17.0189 12 17.3614 12.336 17.3614 12.75ZM8.68091 17H10.7234V16H8.68091V17ZM10.7234 19H8.68091V18H10.7234V19Z" fill="#353535"/>
<path id="Vector_2" fill-rule="evenodd" clip-rule="evenodd" d="M13.6459 11.073C13.8959 11.073 13.9369 11.0275 14.0164 10.94C14.0629 10.89 14.1214 10.825 14.2414 10.7475C14.5762 10.9595 14.9652 11.07 15.3614 11.0655L16.6274 10.6265C16.9803 10.3523 17.2259 9.96306 17.3214 9.5265C17.4128 9.09382 17.3461 8.64274 17.1334 8.255C16.9144 7.85927 16.5664 7.55048 16.1474 7.38C16.0477 6.95694 15.8033 6.58201 15.4564 6.32L14.2204 5.908H14.0814C13.7997 5.5212 13.3878 5.24917 12.9214 5.142L10.7824 5C10.3424 5.035 9.92695 5.21 9.60345 5.497C9.07824 5.37426 8.52579 5.4645 8.06695 5.748C7.75155 5.94163 7.49957 6.22315 7.34195 6.558L6.33595 7.237C6.08697 7.55616 5.95149 7.94921 5.95095 8.354C5.94845 8.5225 5.97195 8.69 6.02095 8.8515C5.75882 9.17353 5.6161 9.57628 5.61695 9.9915C5.61852 10.4742 5.81125 10.9366 6.15295 11.2775C6.18045 11.62 6.30595 11.9485 6.51595 12.2275C6.72595 12.5075 7.01095 12.7265 7.34245 12.8625C7.72031 13.0872 8.04318 13.3935 8.28745 13.759C8.52845 14.1215 8.62745 14.531 8.68095 14.957H10.7824V12.968C10.7824 12.615 10.8854 12.269 11.0809 11.969C11.1106 11.9233 11.1388 11.8792 11.1654 11.8365C11.3154 11.5975 11.4364 11.4035 11.7184 11.2715C12.0271 11.1589 12.3073 10.98 12.5394 10.7475C12.869 10.9604 13.2531 11.0733 13.6454 11.0725M14.4129 9.6595L14.7994 9.907C14.9209 9.9845 15.0614 10.0355 15.2089 10.054L16.0929 9.7475C16.2094 9.6245 16.2874 9.476 16.3209 9.3185C16.364 9.11598 16.3326 8.90471 16.2324 8.7235C16.1247 8.53064 15.9543 8.38035 15.7494 8.2975L15.2669 8.0975L15.1509 7.5975C15.1157 7.44712 15.0402 7.30918 14.9324 7.1985L14.0509 6.9045H13.5509L13.2459 6.4805C13.1238 6.31253 12.9499 6.18924 12.7509 6.1295L10.8019 6.0005C10.6117 6.02656 10.4333 6.10793 10.2889 6.2345L9.89395 6.585L9.37445 6.4685C9.24583 6.43727 9.11228 6.43188 8.98157 6.45265C8.85085 6.47343 8.72555 6.51994 8.61295 6.5895C8.46454 6.68058 8.34574 6.81275 8.27095 6.97L8.15345 7.221L7.07645 7.9485C7.00695 8.073 6.97145 8.2105 6.97145 8.3495V8.3655C6.97045 8.43317 6.97978 8.49983 6.99945 8.5655L7.14945 9.0625L6.82045 9.469C6.69895 9.619 6.63645 9.8 6.63795 9.982V9.9895C6.63795 10.2035 6.72295 10.4145 6.88495 10.578L7.14095 10.836L7.17045 11.195C7.18295 11.35 7.23995 11.5015 7.33795 11.632C7.43645 11.7635 7.57295 11.8695 7.73595 11.936L7.80745 11.9655L7.87395 12.0055C8.02595 12.0955 8.17078 12.1952 8.30845 12.3045C8.48595 12.441 8.70695 12.6405 8.99345 12.9985C9.29345 13.3735 9.45745 13.793 9.50195 13.9555H9.76345V13.518C9.76345 13.474 9.76278 13.4225 9.76145 13.3635C9.75645 13.0765 9.74795 12.635 9.83745 12.2875C9.94495 11.8695 10.1664 11.4615 10.4434 11.0725C10.7209 10.684 11.1399 10.4125 11.2974 10.354C11.4549 10.2955 11.6144 10.235 11.7699 10.0825C11.8949 9.9605 12.2399 9.61 12.3964 9.45L13.0964 9.909C13.2304 9.9965 13.4079 10.0455 13.4794 10.059C13.4989 10.044 13.5594 9.9965 13.6469 9.932C13.7349 9.868 14.0799 9.644 14.2419 9.5395L14.4129 9.6595Z" fill="#353535"/>
<path id="Vector_3" fill-rule="evenodd" clip-rule="evenodd" d="M20.28 12.683C20.28 12.683 21.606 13.851 21.431 14.788C21.256 15.725 19.5295 15.983 19.5295 15.983C19.5295 19.7695 15.8365 19.5285 13.9935 19.1725C13.6488 19.1081 13.3079 19.0246 12.9725 18.9225V19.6345C12.9725 19.6345 12.934 19.7535 12.8155 19.9215C12.534 20.32 11.801 20.9925 10.058 20.9925C8.89146 21.083 6.89497 20.3355 6.36597 19.2815V16.057C4.50097 14.692 3.06396 12.8535 3.06396 10.47C3.06396 8.48853 3.90796 6.58853 5.41096 5.18803C6.91396 3.78753 8.95247 3.00003 11.078 3.00003C12.694 2.99634 14.2935 3.32462 15.7775 3.96453C16.9375 4.41953 17.9535 5.14453 18.7275 6.06953C19.4355 7.04103 19.8275 8.18253 19.8575 9.35603C19.8635 9.62603 19.86 9.88203 19.856 10.1295C19.843 11.003 19.831 11.7725 20.28 12.683ZM19.4475 13.295L19.36 13.1175C18.7955 11.9725 18.816 10.9095 18.833 10.009C18.837 9.78903 18.841 9.57953 18.8365 9.38053C18.808 8.40763 18.4874 7.4658 17.9165 6.67753C17.256 5.89803 16.3905 5.28253 15.3975 4.89253L15.381 4.88603L15.3645 4.87903C14.0112 4.29688 12.5531 3.99775 11.08 4.00003H11.0785C9.20846 4.00003 7.42347 4.69303 6.11597 5.91203C4.80947 7.12953 4.08596 8.77053 4.08596 10.47C4.08596 12.411 5.24547 13.9885 6.97797 15.256L7.38797 15.556V18.991C7.55797 19.1895 7.88896 19.4365 8.38596 19.651C8.99546 19.9145 9.61296 20.024 9.97796 19.996L10.018 19.9925H10.0585C11.0945 19.9925 11.583 19.714 11.7935 19.543C11.866 19.4845 11.917 19.429 11.9515 19.3855V17.5425L13.2895 17.9725H13.291L13.2985 17.975L13.3415 17.988C13.3818 18 13.4421 18.0169 13.5225 18.0385C13.6825 18.081 13.915 18.138 14.195 18.192C14.763 18.302 15.487 18.392 16.185 18.347C16.8945 18.302 17.4635 18.126 17.8435 17.8095C18.185 17.525 18.5085 17.015 18.5085 15.9835V15.1245L19.372 14.9955L19.3775 14.9945L19.413 14.988C19.6231 14.949 19.8291 14.8899 20.028 14.8115C20.1995 14.743 20.3235 14.6715 20.397 14.61L20.4235 14.586C20.4143 14.5354 20.3992 14.4861 20.3785 14.439C20.3051 14.2749 20.2119 14.1205 20.101 13.979C19.9503 13.7818 19.783 13.5978 19.601 13.429L19.597 13.4265V13.426L19.596 13.4255L19.5955 13.4245L19.4475 13.295ZM20.4415 14.565V14.566L20.44 14.567L20.4415 14.565Z" fill="#353535"/>
</g>
</g>
</svg>
