<svg width="24" height="24" viewBox="0 0 24 24" fill="none" xmlns="http://www.w3.org/2000/svg">
<g id="fluent:premium-20-regular">
<path id="Vector" d="M6.6 3.6001C6.49631 3.60008 6.39439 3.62693 6.30416 3.67803C6.21394 3.72914 6.1385 3.80275 6.0852 3.8917L2.4852 9.8917C2.4213 9.99846 2.39217 10.1225 2.40184 10.2465C2.41152 10.3706 2.45952 10.4885 2.5392 10.5841L11.5392 21.3841C11.5955 21.4516 11.666 21.5059 11.7456 21.5432C11.8252 21.5805 11.9121 21.5998 12 21.5998C12.0879 21.5998 12.1748 21.5805 12.2544 21.5432C12.334 21.5059 12.4045 21.4516 12.4608 21.3841L21.4608 10.5841C21.5405 10.4885 21.5885 10.3706 21.5982 10.2465C21.6078 10.1225 21.5787 9.99846 21.5148 9.8917L17.9148 3.8917C17.8615 3.80275 17.7861 3.72914 17.6958 3.67803C17.6056 3.62693 17.5037 3.60008 17.4 3.6001H6.6ZM4.0596 9.6001L6.9396 4.8001H9.3144L7.3944 9.6001H4.0596ZM7.3896 10.8001L10.11 17.7949L4.2816 10.8001H7.3896ZM12 19.3441L8.6772 10.8001H15.3228L12 19.3441ZM8.6868 9.6001L10.6068 4.8001H13.3932L15.3132 9.6001H8.6868ZM16.6068 9.6001L14.6868 4.8001H17.0604L19.9404 9.6001H16.6068ZM16.6104 10.8001H19.7184L13.89 17.7949L16.6104 10.8001Z" fill="#353535"/>
</g>
</svg>
