<svg width="24" height="24" viewBox="0 0 24 24" fill="none" xmlns="http://www.w3.org/2000/svg">
<g id="user">
<path id="Subtract" fill-rule="evenodd" clip-rule="evenodd" d="M2.02339 20.0001C1.6412 21.3334 2.00006 24.0001 11.9268 24.0001C21.8535 24.0001 22.2178 21.3334 21.8266 20.0001C20.261 16.4396 16.872 14.0025 11.8223 14.0015C7.03548 14.0005 3.63807 16.4248 2.03693 19.97L2.02339 20.0001ZM11.9268 16.0001C8.39363 15.9993 5.77818 17.5876 4.32082 20.0001C3.88057 20.6667 4.80006 22.0001 12.0001 22.0001C19.2001 22.0001 20.1394 20.6667 19.7091 20.0001C18.2691 17.5885 15.6432 16.0008 11.9268 16.0001Z" fill="#353535"/>
<path id="Subtract_2" fill-rule="evenodd" clip-rule="evenodd" d="M12 12C15.3137 12 18 9.31371 18 6C18 2.68629 15.3137 0 12 0C8.68629 0 6 2.68629 6 6C6 9.31371 8.68629 12 12 12ZM12 10C14.2091 10 16 8.20914 16 6C16 3.79086 14.2091 2 12 2C9.79086 2 8 3.79086 8 6C8 8.20914 9.79086 10 12 10Z" fill="#353535"/>
</g>
</svg>
