<svg width="13" height="14" viewBox="0 0 13 14" fill="none" xmlns="http://www.w3.org/2000/svg">
<path fill-rule="evenodd" clip-rule="evenodd" d="M3.82567 2.84182C5.43706 2.6634 7.06323 2.6634 8.67463 2.84182C9.56681 2.94182 10.2866 3.64442 10.3913 4.53973C10.5822 6.17411 10.5822 7.82515 10.3913 9.45953C10.2866 10.3548 9.56681 11.0574 8.67463 11.1574C7.06323 11.3359 5.43706 11.3359 3.82567 11.1574C2.93348 11.0574 2.21369 10.3548 2.109 9.45953C1.91809 7.82533 1.91809 6.17446 2.109 4.54026C2.16195 4.10529 2.36024 3.70096 2.67173 3.39278C2.98321 3.0846 3.38964 2.89064 3.82515 2.84234M6.25015 4.39911C6.35375 4.39911 6.4531 4.44026 6.52636 4.51352C6.59962 4.58678 6.64077 4.68613 6.64077 4.78973V6.609H8.46004C8.56364 6.609 8.663 6.65016 8.73626 6.72342C8.80951 6.79667 8.85067 6.89603 8.85067 6.99963C8.85067 7.10323 8.80951 7.20259 8.73626 7.27584C8.663 7.3491 8.56364 7.39025 8.46004 7.39025H6.64077V9.20953C6.64077 9.31313 6.59962 9.41248 6.52636 9.48574C6.4531 9.559 6.35375 9.60015 6.25015 9.60015C6.14655 9.60015 6.04719 9.559 5.97393 9.48574C5.90068 9.41248 5.85952 9.31313 5.85952 9.20953V7.39025H4.04025C3.93665 7.39025 3.83729 7.3491 3.76404 7.27584C3.69078 7.20259 3.64963 7.10323 3.64963 6.99963C3.64963 6.89603 3.69078 6.79667 3.76404 6.72342C3.83729 6.65016 3.93665 6.609 4.04025 6.609H5.85952V4.78973C5.85952 4.68613 5.90068 4.58678 5.97393 4.51352C6.04719 4.44026 6.14655 4.39911 6.25015 4.39911Z" fill="#411E75"/>
</svg>
