<svg width="16" height="17" viewBox="0 0 16 17" fill="none" xmlns="http://www.w3.org/2000/svg">
<g id="fluent:call-20-regular">
<path id="Vector" d="M5.5895 1.80655L5.0159 1.97935C4.50517 2.13337 4.04905 2.43009 3.70126 2.83458C3.35346 3.23907 3.12844 3.7345 3.0527 4.26255C2.8151 5.91695 3.3463 7.85135 4.6271 10.0698C5.9047 12.2826 7.3111 13.7082 8.8591 14.3322C9.35648 14.5326 9.90097 14.586 10.4278 14.486C10.9547 14.3861 11.4417 14.1369 11.8311 13.7682L12.2647 13.357C12.5463 13.0905 12.7215 12.7308 12.7578 12.3449C12.7942 11.9589 12.6892 11.5729 12.4623 11.2586L11.3775 9.75455C11.2308 9.55151 11.0243 9.39944 10.7869 9.31968C10.5495 9.23991 10.293 9.23644 10.0535 9.30975L8.4127 9.81135L8.3703 9.81935C8.1895 9.84575 7.7719 9.45455 7.2519 8.55375C6.7079 7.61135 6.5959 7.06015 6.7455 6.91775L7.5799 6.13935C7.88473 5.85472 8.09294 5.48191 8.17542 5.0731C8.2579 4.66428 8.21052 4.23991 8.0399 3.85935L7.5103 2.68255C7.35105 2.32842 7.06846 2.04429 6.7152 1.88312C6.36195 1.72195 5.96134 1.69473 5.5895 1.80655ZM6.7823 3.01055L7.3103 4.18735C7.41277 4.4156 7.44133 4.67018 7.39198 4.91546C7.34264 5.16075 7.21786 5.38447 7.0351 5.55535L6.1983 6.33455C5.6623 6.84175 5.8399 7.70735 6.5599 8.95375C7.2367 10.1266 7.8543 10.7058 8.5183 10.605L8.6175 10.5842L10.2879 10.0746C10.3677 10.05 10.4533 10.0511 10.5325 10.0777C10.6117 10.1042 10.6806 10.1549 10.7295 10.2226L11.8143 11.7266C11.9279 11.8837 11.9805 12.0768 11.9624 12.2699C11.9443 12.4629 11.8567 12.6428 11.7159 12.7762L11.2815 13.1874C11.0034 13.4506 10.6555 13.6284 10.2793 13.6997C9.90307 13.7711 9.51427 13.7329 9.1591 13.5898C7.8007 13.0426 6.5167 11.741 5.3207 9.66975C4.1215 7.59375 3.6359 5.82815 3.8447 4.37615C3.89875 3.99889 4.05946 3.64493 4.30792 3.35595C4.55637 3.06696 4.88222 2.85497 5.2471 2.74495L5.8207 2.57215C6.00667 2.51627 6.20661 2.52993 6.38325 2.6106C6.55988 2.69126 6.70115 2.83341 6.7807 3.01055" fill="white"/>
</g>
</svg>
