<svg width="24" height="25" viewBox="0 0 24 25" fill="none" xmlns="http://www.w3.org/2000/svg">
<path d="M11.5 8.5C14 8.5 16 10.5 16 13C16 15.5 14 17.5 11.5 17.5C9 17.5 7 15.5 7 13C7 10.5 9 8.5 11.5 8.5ZM11.5 9.5C10.5717 9.5 9.6815 9.86875 9.02513 10.5251C8.36875 11.1815 8 12.0717 8 13C8 13.9283 8.36875 14.8185 9.02513 15.4749C9.6815 16.1313 10.5717 16.5 11.5 16.5C12.4283 16.5 13.3185 16.1313 13.9749 15.4749C14.6313 14.8185 15 13.9283 15 13C15 12.0717 14.6313 11.1815 13.9749 10.5251C13.3185 9.86875 12.4283 9.5 11.5 9.5ZM5 5.5H7L9 3.5H14L16 5.5H18C18.7956 5.5 19.5587 5.81607 20.1213 6.37868C20.6839 6.94129 21 7.70435 21 8.5V17.5C21 18.2956 20.6839 19.0587 20.1213 19.6213C19.5587 20.1839 18.7956 20.5 18 20.5H5C4.20435 20.5 3.44129 20.1839 2.87868 19.6213C2.31607 19.0587 2 18.2956 2 17.5V8.5C2 7.70435 2.31607 6.94129 2.87868 6.37868C3.44129 5.81607 4.20435 5.5 5 5.5ZM9.41 4.5L7.41 6.5H5C4.46957 6.5 3.96086 6.71071 3.58579 7.08579C3.21071 7.46086 3 7.96957 3 8.5V17.5C3 18.0304 3.21071 18.5391 3.58579 18.9142C3.96086 19.2893 4.46957 19.5 5 19.5H18C18.5304 19.5 19.0391 19.2893 19.4142 18.9142C19.7893 18.5391 20 18.0304 20 17.5V8.5C20 7.96957 19.7893 7.46086 19.4142 7.08579C19.0391 6.71071 18.5304 6.5 18 6.5H15.59L13.59 4.5H9.41Z" fill="black"/>
</svg>
