<svg width="13" height="14" viewBox="0 0 13 14" fill="none" xmlns="http://www.w3.org/2000/svg">
<path d="M6.25 6.47917C6.80253 6.47917 7.33244 6.25967 7.72314 5.86897C8.11384 5.47827 8.33333 4.94837 8.33333 4.39583C8.33333 3.8433 8.11384 3.31339 7.72314 2.92269C7.33244 2.53199 6.80253 2.3125 6.25 2.3125C5.69747 2.3125 5.16756 2.53199 4.77686 2.92269C4.38616 3.31339 4.16667 3.8433 4.16667 4.39583C4.16667 4.94837 4.38616 5.47827 4.77686 5.86897C5.16756 6.25967 5.69747 6.47917 6.25 6.47917ZM4.48958 7.48021L4.68438 7.19427C5.15793 7.40944 5.67204 7.52078 6.19219 7.52083H6.30833C6.75435 7.52076 7.19657 7.43885 7.61302 7.27917L7.75 7.48021C7.81354 7.57396 7.8776 7.75625 7.92031 7.98698C7.96198 8.20937 7.97344 8.42031 7.96562 8.53646C7.96256 8.58939 7.96964 8.64242 7.98646 8.69271H7.78958C7.71429 8.6928 7.64059 8.71435 7.57712 8.75485C7.51365 8.79535 7.46305 8.85311 7.43125 8.92135L7.07135 9.69219C7.04324 9.75251 7.0308 9.81895 7.03517 9.88536C7.03954 9.95177 7.06058 10.016 7.09635 10.0721C7.13212 10.1282 7.18147 10.1744 7.23982 10.2064C7.29817 10.2384 7.36366 10.2552 7.43021 10.2552H8.02083V9.47396H8.67187V10.2552H9.23646C9.30301 10.2552 9.36849 10.2384 9.42685 10.2064C9.4852 10.1744 9.53455 10.1282 9.57032 10.0721C9.60609 10.016 9.62713 9.95177 9.6315 9.88536C9.63587 9.81895 9.62342 9.75251 9.59531 9.69219L9.23594 8.92135C9.20406 8.85295 9.1533 8.79508 9.08963 8.75457C9.02595 8.71406 8.95203 8.6926 8.87656 8.69271H8.72396C8.73532 8.65902 8.74232 8.62401 8.74479 8.58854C8.75833 8.39167 8.73854 8.11354 8.68854 7.84375C8.6401 7.58229 8.55208 7.27031 8.39583 7.04062L8.37031 7.00312C8.39665 7.00108 8.42306 7.00004 8.44948 7C8.77621 7 9.09974 7.06435 9.4016 7.18939C9.70346 7.31442 9.97774 7.49769 10.2088 7.72872C10.4398 7.95976 10.6231 8.23404 10.7481 8.5359C10.8731 8.83776 10.9375 9.16129 10.9375 9.48802V11.6875H1.5625V9.48802C1.5625 8.17552 2.57812 7.10052 3.86667 7.00677L3.84375 7.04062C3.53594 7.49323 3.48906 8.05417 3.52708 8.50417C3.5401 8.65885 3.56354 8.81146 3.59583 8.95521C3.46729 9.06943 3.38003 9.22288 3.34757 9.39175C3.31511 9.56062 3.33928 9.73548 3.41633 9.88922C3.49337 10.043 3.61898 10.167 3.77369 10.2421C3.9284 10.3171 4.10355 10.3391 4.272 10.3045C4.44044 10.2699 4.59276 10.1806 4.70534 10.0507C4.81792 9.92067 4.88446 9.75717 4.89466 9.58551C4.90485 9.41385 4.85812 9.24362 4.76172 9.10123C4.66531 8.95883 4.52462 8.85221 4.36146 8.79792C4.33435 8.67958 4.31556 8.5595 4.30521 8.43854C4.27396 8.07083 4.32604 7.72031 4.48958 7.48021Z" fill="#411E75"/>
</svg>
