<svg width="27" height="28" viewBox="0 0 27 28" fill="none" xmlns="http://www.w3.org/2000/svg">
<g id="duplicate">
<path id="Rectangle (Stroke)" fill-rule="evenodd" clip-rule="evenodd" d="M4.03064 11.2564C4.03064 9.77239 5.23369 8.56934 6.71774 8.56934H16.1226C17.6066 8.56934 18.8097 9.77239 18.8097 11.2564V20.6613C18.8097 22.1453 17.6066 23.3484 16.1226 23.3484H6.71774C5.23369 23.3484 4.03064 22.1453 4.03064 20.6613V11.2564ZM16.1226 11.2564H6.71774V20.6613H16.1226V11.2564Z" fill="#411E75"/>
<path id="Vector (Stroke)" fill-rule="evenodd" clip-rule="evenodd" d="M18.8097 7.36678L8.06129 7.36683L8.06128 4.67973L18.8097 4.67969C21.0357 4.67968 22.8403 6.48426 22.8403 8.71033V19.3173H20.1532V8.71033C20.1532 7.96831 19.5517 7.36678 18.8097 7.36678Z" fill="#411E75"/>
</g>
</svg>
