<svg width="18" height="17" viewBox="0 0 18 17" fill="none" xmlns="http://www.w3.org/2000/svg">
<g id="bxs:offer">
<path id="Vector" d="M15.1972 8.5006L15.9792 7.1491C16.0732 6.98649 16.0987 6.79322 16.0503 6.61177C16.0018 6.43033 15.8832 6.27556 15.7206 6.18151L14.3677 5.39951V3.84118C14.3677 3.65332 14.2931 3.47315 14.1603 3.34031C14.0274 3.20747 13.8473 3.13285 13.6594 3.13285H12.1018L11.3205 1.78064C11.2266 1.61795 11.0719 1.49922 10.8905 1.45055C10.8006 1.42647 10.7069 1.42033 10.6147 1.43249C10.5224 1.44464 10.4335 1.47485 10.3529 1.52139L8.99998 2.30339L7.64706 1.52068C7.48437 1.42675 7.29104 1.4013 7.10958 1.44992C6.92812 1.49854 6.77341 1.61724 6.67948 1.77993L5.89748 3.13285H4.33985C4.15199 3.13285 3.97183 3.20747 3.83899 3.34031C3.70615 3.47315 3.63152 3.65332 3.63152 3.84118V5.3988L2.2786 6.1808C2.19802 6.22737 2.1274 6.28937 2.07078 6.36325C2.01417 6.43713 1.97267 6.52144 1.94866 6.61137C1.92465 6.70129 1.91859 6.79507 1.93085 6.88734C1.9431 6.9796 1.97341 7.06855 2.02006 7.1491L2.80206 8.5006L2.02006 9.8521C1.92655 10.0149 1.90118 10.208 1.94948 10.3894C1.99778 10.5707 2.11583 10.7257 2.2779 10.8204L3.63081 11.6024V13.16C3.63081 13.3479 3.70544 13.528 3.83828 13.6609C3.97112 13.7937 4.15128 13.8683 4.33915 13.8683H5.89748L6.67948 15.2213C6.74219 15.3285 6.83173 15.4175 6.93928 15.4796C7.04684 15.5417 7.1687 15.5747 7.2929 15.5754C7.41615 15.5754 7.53869 15.5428 7.64777 15.4798L8.99927 14.6978L10.3522 15.4798C10.5148 15.5738 10.7081 15.5994 10.8895 15.5509C11.071 15.5024 11.2257 15.3838 11.3198 15.2213L12.1011 13.8683H13.6587C13.8465 13.8683 14.0267 13.7937 14.1596 13.6609C14.2924 13.528 14.367 13.3479 14.367 13.16V11.6024L15.7199 10.8204C15.8005 10.7738 15.8711 10.7118 15.9278 10.6379C15.9844 10.5641 16.0259 10.4797 16.0499 10.3898C16.0739 10.2999 16.0799 10.2061 16.0677 10.1139C16.0554 10.0216 16.0251 9.93264 15.9785 9.8521L15.1972 8.5006ZM7.22844 4.95185C7.51032 4.95194 7.78063 5.06401 7.97989 5.2634C8.17914 5.46279 8.29103 5.73317 8.29094 6.01505C8.29084 6.29694 8.17877 6.56724 7.97938 6.7665C7.77999 6.96576 7.50962 7.07765 7.22773 7.07755C6.94584 7.07746 6.67554 6.96539 6.47628 6.766C6.27702 6.56661 6.16514 6.29623 6.16523 6.01435C6.16532 5.73246 6.27739 5.46216 6.47678 5.2629C6.67617 5.06364 6.94655 4.95175 7.22844 4.95185ZM7.44094 11.7518L6.3076 10.9026L10.5576 5.23589L11.6909 6.08518L7.44094 11.7518ZM10.7701 12.0352C10.6305 12.0351 10.4923 12.0076 10.3634 11.9541C10.2345 11.9007 10.1173 11.8224 10.0187 11.7236C9.91999 11.6249 9.84174 11.5077 9.78837 11.3787C9.735 11.2498 9.70756 11.1115 9.7076 10.972C9.70765 10.8324 9.73519 10.6942 9.78865 10.5653C9.8421 10.4363 9.92043 10.3192 10.0192 10.2205C10.1179 10.1219 10.2351 10.0436 10.364 9.99024C10.493 9.93687 10.6312 9.90942 10.7708 9.90947C11.0527 9.90956 11.323 10.0216 11.5223 10.221C11.7215 10.4204 11.8334 10.6908 11.8333 10.9727C11.8332 11.2546 11.7211 11.5249 11.5218 11.7241C11.3224 11.9234 11.052 12.0353 10.7701 12.0352Z" fill="white"/>
</g>
</svg>
