<svg width="25" height="26" viewBox="0 0 25 26" fill="none" xmlns="http://www.w3.org/2000/svg">
<g id="mdi-light:delete">
<path id="Vector" d="M18.75 20.2917C18.75 21.1205 18.4207 21.9153 17.8347 22.5014C17.2486 23.0874 16.4538 23.4167 15.625 23.4167H8.33329C7.50449 23.4167 6.70964 23.0874 6.12358 22.5014C5.53753 21.9153 5.20829 21.1205 5.20829 20.2917V7.79167H4.16663V4.66667H8.85413L9.89579 3.625H14.0625L15.1041 4.66667H19.7916V7.79167H18.75V20.2917ZM6.24996 7.79167V20.2917C6.24996 20.8442 6.46945 21.3741 6.86015 21.7648C7.25085 22.1555 7.78076 22.375 8.33329 22.375H15.625C16.1775 22.375 16.7074 22.1555 17.0981 21.7648C17.4888 21.3741 17.7083 20.8442 17.7083 20.2917V7.79167H6.24996ZM18.75 6.75V5.70833H14.5833L13.5416 4.66667H10.4166L9.37496 5.70833H5.20829V6.75H18.75ZM8.33329 9.875H9.37496V20.2917H8.33329V9.875ZM14.5833 9.875H15.625V20.2917H14.5833V9.875Z" fill="#FF726D"/>
</g>
</svg>
