<svg width="15" height="15" viewBox="0 0 15 15" fill="none" xmlns="http://www.w3.org/2000/svg">
<g id="ep:food">
<path id="Vector" d="M1.87502 5.16475V5.15631C1.87501 4.32293 2.12183 3.50821 2.58434 2.81495C3.04684 2.12169 3.70432 1.58094 4.47381 1.26093C5.2433 0.940914 6.09034 0.855977 6.90805 1.01683C7.72576 1.17768 8.47751 1.57712 9.06846 2.16475C9.53342 1.93526 10.0528 1.83877 10.5691 1.88594C11.0855 1.93312 11.5788 2.12211 11.9944 2.43205C12.4101 2.74199 12.732 3.16081 12.9246 3.64224C13.1172 4.12366 13.1729 4.64895 13.0856 5.16006C13.2139 5.17197 13.3384 5.21019 13.4512 5.27233C13.5641 5.33448 13.6629 5.41922 13.7416 5.52127C13.8202 5.62331 13.877 5.74047 13.9083 5.86543C13.9397 5.9904 13.9449 6.12048 13.9238 6.24756C13.5 8.79662 12.4519 10.4101 10.7813 11.0888V11.7188C10.7813 12.0918 10.6331 12.4495 10.3694 12.7132C10.1057 12.9769 9.74798 13.1251 9.37502 13.1251H5.62502C5.25206 13.1251 4.89438 12.9769 4.63066 12.7132C4.36693 12.4495 4.21877 12.0918 4.21877 11.7188V11.0888C2.54815 10.4101 1.50002 8.79662 1.07627 6.24756C1.05582 6.12385 1.0604 5.9973 1.08972 5.87539C1.11905 5.75348 1.17253 5.63869 1.24701 5.53782C1.32148 5.43694 1.41544 5.35203 1.52331 5.28812C1.63118 5.2242 1.75078 5.18257 1.87502 5.16569V5.16475ZM2.81252 5.15631H3.75002C3.75002 4.53471 3.99695 3.93857 4.43649 3.49903C4.87603 3.05949 5.47217 2.81256 6.09377 2.81256C6.71538 2.81256 7.31152 3.05949 7.75106 3.49903C8.19059 3.93857 8.43752 4.53471 8.43752 5.15631H9.37502C9.37502 4.28607 9.02932 3.45147 8.41397 2.83612C7.79861 2.22076 6.96402 1.87506 6.09377 1.87506C5.22353 1.87506 4.38893 2.22076 3.77358 2.83612C3.15823 3.45147 2.81252 4.28607 2.81252 5.15631ZM4.68752 5.15631H7.50002C7.50002 4.78335 7.35187 4.42567 7.08814 4.16194C6.82442 3.89822 6.46674 3.75006 6.09377 3.75006C5.72081 3.75006 5.36313 3.89822 5.09941 4.16194C4.83568 4.42567 4.68752 4.78335 4.68752 5.15631ZM11.1244 5.15631H12.1285C12.1992 4.87925 12.2058 4.5897 12.1478 4.3097C12.0897 4.02971 11.9684 3.76667 11.7933 3.54062C11.6182 3.31458 11.3937 3.1315 11.1371 3.00532C10.8805 2.87915 10.5985 2.81323 10.3125 2.81256C10.0875 2.81256 9.87377 2.85194 9.67502 2.92412C9.84096 3.19037 9.97784 3.47725 10.0828 3.77819C10.2614 3.7339 10.449 3.74302 10.6225 3.80441C10.7959 3.86581 10.9475 3.97677 11.0584 4.12354C11.1693 4.27031 11.2347 4.44642 11.2464 4.63002C11.2582 4.81361 11.2157 4.99662 11.1244 5.15631ZM9.84377 11.2501H5.15627V11.7188C5.15627 11.8431 5.20566 11.9624 5.29357 12.0503C5.38148 12.1382 5.5007 12.1876 5.62502 12.1876H9.37502C9.49934 12.1876 9.61857 12.1382 9.70648 12.0503C9.79439 11.9624 9.84377 11.8431 9.84377 11.7188V11.2501ZM4.82627 10.3126H10.1738C11.6606 9.83444 12.6019 8.48256 12.9994 6.09381H2.00065C2.39815 8.48256 3.3394 9.83444 4.82627 10.3126Z" fill="#411E75"/>
</g>
</svg>
