<svg width="10" height="11" viewBox="0 0 10 11" fill="none" xmlns="http://www.w3.org/2000/svg">
<path fill-rule="evenodd" clip-rule="evenodd" d="M5.85755 2.09272C5.35872 1.68459 4.64136 1.68459 4.14253 2.09272L1.56975 4.19772C1.3742 4.35772 1.44466 4.67222 1.68977 4.7335C2.10475 4.83725 2.39587 5.21011 2.39587 5.63786V7.65402C2.39587 8.40191 3.00216 9.00819 3.75004 9.00819H6.25004C6.99793 9.00819 7.60421 8.40191 7.60421 7.65402V5.63786C7.60421 5.21011 7.89533 4.83725 8.31031 4.7335C8.55543 4.67222 8.62588 4.35772 8.43033 4.19772L5.85755 2.09272ZM3.74676 1.609C4.47582 1.0125 5.52427 1.0125 6.25332 1.609L8.82611 3.714C9.4195 4.19951 9.20571 5.15389 8.4619 5.33984C8.32514 5.37403 8.22921 5.4969 8.22921 5.63786V7.65402C8.22921 8.74708 7.3431 9.63319 6.25004 9.63319H3.75004C2.65698 9.63319 1.77087 8.74708 1.77087 7.65402V5.63786C1.77087 5.4969 1.67494 5.37403 1.53819 5.33984C0.794372 5.15389 0.580579 4.19951 1.17398 3.714L3.74676 1.609Z" fill="#411E75"/>
<path fill-rule="evenodd" clip-rule="evenodd" d="M4.99996 6.2998C4.71231 6.2998 4.47913 6.53299 4.47913 6.82064C4.47913 7.10829 4.71231 7.34147 4.99996 7.34147C5.28761 7.34147 5.52079 7.10829 5.52079 6.82064C5.52079 6.53299 5.28761 6.2998 4.99996 6.2998ZM3.85413 6.82064C3.85413 6.18781 4.36713 5.6748 4.99996 5.6748C5.63279 5.6748 6.14579 6.18781 6.14579 6.82064C6.14579 7.45346 5.63279 7.96647 4.99996 7.96647C4.36713 7.96647 3.85413 7.45346 3.85413 6.82064Z" fill="#411E75"/>
</svg>
