<svg width="13" height="14" viewBox="0 0 13 14" fill="none" xmlns="http://www.w3.org/2000/svg">
<g clip-path="url(#clip0_3095_10401)">
<path d="M9.03893 11.2348L10.4014 11.1588L10.4811 9.79681L7.88841 7.2041L6.44727 8.64264L9.03893 11.2348Z" fill="#411E75"/>
<path d="M5.3312 1.58707L4.52235 2.39592L3.47235 1.34592C3.28637 1.14524 3.06183 0.984127 2.81215 0.872234C2.56247 0.760341 2.29278 0.699962 2.01922 0.694711C1.74567 0.689459 1.47386 0.739443 1.22007 0.841671C0.966279 0.943899 0.735716 1.09627 0.542177 1.28967C0.348637 1.48307 0.196099 1.71352 0.0936868 1.96724C-0.00872506 2.22096 -0.0589055 2.49272 -0.0538522 2.76628C-0.0487989 3.03984 0.0113843 3.30957 0.123097 3.55934C0.234809 3.8091 0.395755 4.03376 0.596304 4.21988L0.597346 4.22092L1.64787 5.27092L0.839013 6.07977L1.86349 7.10425L2.72964 6.23759L8.73589 12.2433L10.6385 12.1355L11.751 13.248L12.5062 12.4928L11.3937 11.3803L11.5015 9.47769L5.49578 3.47196L6.36245 2.6053L5.3312 1.58707ZM10.6958 11.4558L8.99474 11.5527L3.20724 5.76519L5.00568 3.96675L10.7932 9.75425L10.6958 11.4558Z" fill="#411E75"/>
</g>
<defs>
<clipPath id="clip0_3095_10401">
<rect width="12.5" height="12.5" fill="white" transform="translate(0 0.75)"/>
</clipPath>
</defs>
</svg>
