<svg width="13" height="14" viewBox="0 0 13 14" fill="none" xmlns="http://www.w3.org/2000/svg">
<g id="map-pin-line 1" clip-path="url(#clip0_753_1461)">
<path id="Vector" d="M6.07642 11.288L8.65454 8.70992C9.16438 8.20003 9.51158 7.5504 9.65222 6.84319C9.79287 6.13598 9.72065 5.40294 9.44469 4.73677C9.16874 4.07061 8.70144 3.50123 8.1019 3.10063C7.50235 2.70004 6.79748 2.48623 6.07642 2.48623C5.35536 2.48623 4.65049 2.70004 4.05094 3.10063C3.45139 3.50123 2.9841 4.07061 2.70814 4.73677C2.43219 5.40294 2.35997 6.13598 2.50061 6.84319C2.64126 7.5504 2.98845 8.20003 3.49829 8.70992L6.07642 11.288ZM6.07642 12.761L2.76183 9.44638C2.10628 8.79082 1.65985 7.95558 1.47898 7.0463C1.29812 6.13702 1.39095 5.19452 1.74574 4.33799C2.10053 3.48147 2.70133 2.74938 3.47219 2.23432C4.24304 1.71925 5.14932 1.44434 6.07642 1.44434C7.00352 1.44434 7.90979 1.71925 8.68065 2.23432C9.4515 2.74938 10.0523 3.48147 10.4071 4.33799C10.7619 5.19452 10.8547 6.13702 10.6739 7.0463C10.493 7.95558 10.0466 8.79082 9.391 9.44638L6.07642 12.761ZM6.07642 7.17346C6.35268 7.17346 6.61764 7.06371 6.81299 6.86836C7.00834 6.67301 7.11808 6.40806 7.11808 6.1318C7.11808 5.85553 7.00834 5.59058 6.81299 5.39523C6.61764 5.19988 6.35268 5.09013 6.07642 5.09013C5.80015 5.09013 5.5352 5.19988 5.33985 5.39523C5.1445 5.59058 5.03475 5.85553 5.03475 6.1318C5.03475 6.40806 5.1445 6.67301 5.33985 6.86836C5.5352 7.06371 5.80015 7.17346 6.07642 7.17346ZM6.07642 8.21513C5.52388 8.21513 4.99398 7.99564 4.60328 7.60493C4.21258 7.21423 3.99308 6.68433 3.99308 6.1318C3.99308 5.57926 4.21258 5.04936 4.60328 4.65866C4.99398 4.26796 5.52388 4.04846 6.07642 4.04846C6.62895 4.04846 7.15886 4.26796 7.54956 4.65866C7.94026 5.04936 8.15975 5.57926 8.15975 6.1318C8.15975 6.68433 7.94026 7.21423 7.54956 7.60493C7.15886 7.99564 6.62895 8.21513 6.07642 8.21513Z" fill="#411E75"/>
</g>
<defs>
<clipPath id="clip0_753_1461">
<rect width="12.5" height="12.5" fill="white" transform="translate(0 0.75)"/>
</clipPath>
</defs>
</svg>
