<svg width="18" height="18" viewBox="0 0 18 18" fill="none" xmlns="http://www.w3.org/2000/svg">
<g id="ei:plus">
<path id="Vector" d="M9 15.1199C5.616 15.1199 2.88 12.3839 2.88 8.99988C2.88 5.61588 5.616 2.87988 9 2.87988C12.384 2.87988 15.12 5.61588 15.12 8.99988C15.12 12.3839 12.384 15.1199 9 15.1199ZM9 3.59988C6.012 3.59988 3.6 6.01188 3.6 8.99988C3.6 11.9879 6.012 14.3999 9 14.3999C11.988 14.3999 14.4 11.9879 14.4 8.99988C14.4 6.01188 11.988 3.59988 9 3.59988Z" fill="white"/>
<path id="Vector_2" d="M5.76001 8.63965H12.24V9.35965H5.76001V8.63965Z" fill="white"/>
<path id="Vector_3" d="M8.64001 5.75977H9.36001V12.2398H8.64001V5.75977Z" fill="white"/>
</g>
</svg>
