<svg width="13" height="14" viewBox="0 0 13 14" fill="none" xmlns="http://www.w3.org/2000/svg">
<path d="M6.771 5.43783H9.63558L6.771 2.57324V5.43783ZM3.12516 1.79199H7.29183L10.4168 4.91699V11.167C10.4168 11.4433 10.3071 11.7082 10.1117 11.9036C9.91638 12.0989 9.65143 12.2087 9.37516 12.2087H3.12516C2.8489 12.2087 2.58394 12.0989 2.38859 11.9036C2.19324 11.7082 2.0835 11.4433 2.0835 11.167V2.83366C2.0835 2.25553 2.54704 1.79199 3.12516 1.79199ZM3.646 11.167H4.68766V8.04199H3.646V11.167ZM5.72933 11.167H6.771V7.00033H5.72933V11.167ZM7.81266 11.167H8.85433V9.08366H7.81266V11.167Z" fill="#411E75"/>
</svg>
