<svg width="19" height="18" viewBox="0 0 19 18" fill="none" xmlns="http://www.w3.org/2000/svg">
<g id="search-normal">
<g id="vuesax/outline/search-normal">
<g id="search-normal_2">
<path id="Vector" d="M8.70886 15.5625C4.4497 15.5625 0.990112 12.285 0.990112 8.25C0.990112 4.215 4.4497 0.9375 8.70886 0.9375C12.968 0.9375 16.4276 4.215 16.4276 8.25C16.4276 12.285 12.968 15.5625 8.70886 15.5625ZM8.70886 2.0625C5.10678 2.0625 2.17761 4.8375 2.17761 8.25C2.17761 11.6625 5.10678 14.4375 8.70886 14.4375C12.3109 14.4375 15.2401 11.6625 15.2401 8.25C15.2401 4.8375 12.3109 2.0625 8.70886 2.0625Z" fill="#707B81"/>
<path id="Vector_2" d="M15.9602 17.0925C15.8969 17.0925 15.8335 17.085 15.7781 17.0775C15.406 17.0325 14.7331 16.7925 14.3531 15.72C14.1552 15.1575 14.2264 14.595 14.551 14.1675C14.8756 13.74 15.4219 13.5 16.0473 13.5C16.8548 13.5 17.4881 13.7925 17.7731 14.31C18.0581 14.8275 17.9789 15.4875 17.5277 16.125C16.9656 16.9275 16.356 17.0925 15.9602 17.0925ZM15.4852 15.3675C15.6198 15.7575 15.8098 15.9525 15.9364 15.9675C16.0631 15.9825 16.3006 15.84 16.546 15.5025C16.7756 15.18 16.7914 14.9475 16.736 14.8425C16.6806 14.7375 16.4589 14.625 16.0473 14.625C15.8019 14.625 15.6198 14.7 15.5169 14.8275C15.4219 14.955 15.406 15.15 15.4852 15.3675Z" fill="#707B81"/>
</g>
</g>
</g>
</svg>
