<svg width="14" height="15" viewBox="0 0 14 15" fill="none" xmlns="http://www.w3.org/2000/svg">
<path d="M6.64286 10.4696V4.29098L4.97857 5.95527L4.47286 5.44241L7 2.91455L9.52786 5.44241L9.02214 5.95598L7.35714 4.29098V10.4696H6.64286ZM3.15429 12.9146C2.82524 12.9146 2.55071 12.8046 2.33071 12.5846C2.11071 12.3646 2.00048 12.0898 2 11.7603V10.0296H2.71429V11.7603C2.71429 11.8703 2.76 11.9712 2.85143 12.0631C2.94286 12.155 3.04357 12.2007 3.15357 12.2003H10.8464C10.956 12.2003 11.0567 12.1546 11.1486 12.0631C11.2405 11.9717 11.2862 11.8707 11.2857 11.7603V10.0296H12V11.7603C12 12.0893 11.89 12.3638 11.67 12.5838C11.45 12.8038 11.1752 12.9141 10.8457 12.9146H3.15429Z" fill="white"/>
</svg>
