<svg width="16" height="16" viewBox="0 0 16 16" fill="none" xmlns="http://www.w3.org/2000/svg">
<g id="ic:outline-whatsapp">
<path id="Vector" d="M12.4739 3.72259C11.9008 3.14391 11.2183 2.68507 10.4661 2.37282C9.71388 2.06057 8.90706 1.90114 8.09263 1.90384C4.68013 1.90384 1.89888 4.68509 1.89888 8.09759C1.89888 9.19134 2.18638 10.2538 2.72388 11.1913L1.84888 14.4038L5.13013 13.5413C6.03638 14.0351 7.05513 14.2976 8.09263 14.2976C11.5051 14.2976 14.2864 11.5163 14.2864 8.10384C14.2864 6.44759 13.6426 4.89134 12.4739 3.72259ZM8.09263 13.2476C7.16763 13.2476 6.26138 12.9976 5.46763 12.5288L5.28013 12.4163L3.33013 12.9288L3.84888 11.0288L3.72388 10.8351C3.20984 10.0145 2.93696 9.06589 2.93638 8.09759C2.93638 5.26009 5.24888 2.94759 8.08638 2.94759C9.46138 2.94759 10.7551 3.48509 11.7239 4.46009C12.2036 4.93751 12.5838 5.50543 12.8424 6.13092C13.101 6.75641 13.2328 7.42702 13.2301 8.10384C13.2426 10.9413 10.9301 13.2476 8.09263 13.2476ZM10.9176 9.39759C10.7614 9.32259 9.99888 8.94759 9.86138 8.89134C9.71763 8.84134 9.61763 8.81634 9.51138 8.96634C9.40513 9.12259 9.11138 9.47259 9.02388 9.57259C8.93638 9.67884 8.84263 9.69134 8.68638 9.61009C8.53013 9.53509 8.03013 9.36634 7.44263 8.84134C6.98013 8.42884 6.67388 7.92259 6.58013 7.76634C6.49263 7.61009 6.56763 7.52884 6.64888 7.44759C6.71763 7.37884 6.80513 7.26634 6.88013 7.17884C6.95513 7.09134 6.98638 7.02259 7.03638 6.92259C7.08638 6.81634 7.06138 6.72884 7.02388 6.65384C6.98638 6.57884 6.67388 5.81634 6.54888 5.50384C6.42388 5.20384 6.29263 5.24134 6.19888 5.23509H5.89888C5.79263 5.23509 5.63013 5.27259 5.48638 5.42884C5.34888 5.58509 4.94888 5.96009 4.94888 6.72259C4.94888 7.48509 5.50513 8.22259 5.58013 8.32259C5.65513 8.42884 6.67388 9.99134 8.22388 10.6601C8.59263 10.8226 8.88013 10.9163 9.10513 10.9851C9.47388 11.1038 9.81138 11.0851 10.0801 11.0476C10.3801 11.0038 10.9989 10.6726 11.1239 10.3101C11.2551 9.94759 11.2551 9.64134 11.2114 9.57259C11.1676 9.50384 11.0739 9.47259 10.9176 9.39759Z" fill="white"/>
</g>
</svg>
