<svg width="20" height="20" viewBox="0 0 20 20" fill="none" xmlns="http://www.w3.org/2000/svg">
<g id="material-symbols-light:bike-lane-rounded">
<path id="Vector" d="M14.7116 16.6661C15.245 16.6661 15.7013 16.4761 16.0808 16.0961C16.4608 15.7167 16.6508 15.255 16.6508 14.7111C16.6508 14.1673 16.4608 13.7053 16.0808 13.3253C15.7008 12.9453 15.2444 12.7556 14.7116 12.7561C14.1677 12.7561 13.7033 12.9459 13.3183 13.3253C12.9327 13.7053 12.74 14.1673 12.74 14.7111C12.74 15.255 12.9327 15.7167 13.3183 16.0961C13.7038 16.4756 14.1683 16.6656 14.7116 16.6661ZM14.7116 17.4995C13.9338 17.4995 13.2747 17.2292 12.7341 16.6886C12.1936 16.1481 11.9233 15.4889 11.9233 14.7111C11.9233 13.9439 12.1936 13.2875 12.7341 12.742C13.2747 12.1959 13.9338 11.9228 14.7116 11.9228C15.4783 11.9228 16.1347 12.1959 16.6808 12.742C17.2269 13.2875 17.5 13.9439 17.5 14.7111C17.5 15.4889 17.2269 16.1481 16.6808 16.6886C16.1352 17.2292 15.4788 17.4995 14.7116 17.4995ZM12.3558 6.82615C12.0813 6.82615 11.8444 6.7267 11.645 6.52781C11.4461 6.32837 11.3466 6.09142 11.3466 5.81698C11.3466 5.54254 11.4461 5.30559 11.645 5.10615C11.8438 4.9067 12.0808 4.80698 12.3558 4.80698C12.6308 4.80698 12.8677 4.9067 13.0666 5.10615C13.2655 5.30559 13.3652 5.54254 13.3658 5.81698C13.3663 6.09142 13.2663 6.32837 13.0658 6.52781C12.8652 6.72726 12.6286 6.8267 12.3558 6.82615ZM8.65413 10.3678L10.1991 11.897C10.2713 11.9692 10.323 12.047 10.3541 12.1303C10.3852 12.2136 10.4008 12.2998 10.4008 12.3886V15.0953C10.4008 15.2142 10.3611 15.3134 10.2816 15.3928C10.2016 15.4723 10.1025 15.512 9.98413 15.512C9.86579 15.512 9.76663 15.4723 9.68663 15.3928C9.60663 15.3134 9.5669 15.2142 9.56746 15.0953V12.4336L7.59746 10.7978C7.33301 10.5745 7.19551 10.2864 7.18496 9.93365C7.17496 9.58142 7.30246 9.28142 7.56746 9.03365L9.10579 7.50865C9.33968 7.28587 9.62163 7.16976 9.95163 7.16031C10.2816 7.15087 10.5638 7.26865 10.7983 7.51365L11.6141 8.29615C12.1052 8.77115 12.5758 9.09059 13.0258 9.25448C13.4758 9.41892 13.91 9.51281 14.3283 9.53615C14.4472 9.54281 14.5438 9.58837 14.6183 9.67281C14.6933 9.7567 14.7275 9.85809 14.7208 9.97698C14.7147 10.0953 14.6702 10.192 14.5875 10.267C14.5041 10.342 14.4033 10.3761 14.285 10.3695C13.6294 10.3256 13.0044 10.16 12.41 9.87281C11.8161 9.58559 11.2969 9.2042 10.8525 8.72865L10.58 8.45615L8.65413 10.3678ZM5.28829 16.6661C5.83218 16.6661 6.29413 16.4761 6.67413 16.0961C7.05357 15.7167 7.24329 15.255 7.24329 14.7111C7.24329 14.1673 7.05385 13.705 6.67496 13.3245C6.29607 12.9439 5.83413 12.7542 5.28913 12.7553C4.74413 12.7564 4.28246 12.9461 3.90413 13.3245C3.52579 13.7028 3.33551 14.165 3.33329 14.7111C3.33107 15.2573 3.52107 15.7189 3.90329 16.0961C4.28552 16.4734 4.74718 16.6634 5.28829 16.6661ZM3.90413 5.41281L3.33663 4.86115C3.2544 4.77948 3.16663 4.73865 3.07329 4.73865C2.97996 4.73865 2.8919 4.77976 2.80913 4.86198C2.72635 4.9442 2.68524 5.03392 2.68579 5.13115C2.68635 5.22837 2.72746 5.31809 2.80913 5.40031L3.41163 6.00281C3.54607 6.13726 3.70301 6.20448 3.88246 6.20448C4.06246 6.20448 4.21968 6.13726 4.35413 6.00281L6.10079 4.26115C6.17246 4.18892 6.21079 4.10448 6.21579 4.00781C6.22135 3.91059 6.18302 3.82087 6.10079 3.73865C6.01857 3.65642 5.93163 3.61503 5.83996 3.61448C5.74829 3.61392 5.66107 3.65503 5.57829 3.73781L3.90413 5.41281ZM5.28746 17.4995C4.52079 17.4995 3.8644 17.2292 3.31829 16.6886C2.77218 16.1481 2.4994 15.4889 2.49996 14.7111C2.49996 13.9439 2.77301 13.2873 3.31913 12.7411C3.86524 12.195 4.52163 11.9223 5.28829 11.9228C6.06607 11.9228 6.72524 12.1956 7.26579 12.7411C7.80635 13.2873 8.07663 13.9439 8.07663 14.7111C8.07663 15.4889 7.80635 16.1481 7.26579 16.6886C6.72524 17.2292 6.06607 17.4995 5.28829 17.4995M4.45996 8.61781C4.3844 8.61781 4.3094 8.61281 4.23496 8.60281C4.16051 8.59281 4.08551 8.57392 4.00996 8.54615C3.29718 8.25226 2.72857 7.77281 2.30413 7.10781C1.87968 6.44281 1.66718 5.69531 1.66663 4.86531V3.21948C1.66663 3.08503 1.70468 2.95837 1.78079 2.83948C1.85635 2.72003 1.95968 2.63642 2.09079 2.58865L3.96329 1.84698C4.12551 1.78753 4.2894 1.75781 4.45496 1.75781C4.62052 1.75781 4.7844 1.78726 4.94663 1.84615L6.81913 2.58781C6.95024 2.63615 7.05385 2.72003 7.12996 2.83948C7.20551 2.95837 7.24329 3.08531 7.24329 3.22031V4.86448C7.24329 5.69448 7.03107 6.4417 6.60663 7.10615C6.18163 7.7717 5.61302 8.25142 4.90079 8.54531C4.82802 8.57309 4.75524 8.59198 4.68246 8.60198C4.60968 8.61198 4.53552 8.61698 4.45996 8.61698" fill="#411E75"/>
</g>
</svg>
