<svg width="20" height="20" viewBox="0 0 20 20" fill="none" xmlns="http://www.w3.org/2000/svg">
<g id="ic:round-people">
<path id="Vector" d="M13.3334 9.16602C14.7167 9.16602 15.825 8.04935 15.825 6.66602C15.825 5.28268 14.7167 4.16602 13.3334 4.16602C11.95 4.16602 10.8334 5.28268 10.8334 6.66602C10.8334 8.04935 11.95 9.16602 13.3334 9.16602ZM6.66671 9.16602C8.05004 9.16602 9.15837 8.04935 9.15837 6.66602C9.15837 5.28268 8.05004 4.16602 6.66671 4.16602C5.28337 4.16602 4.16671 5.28268 4.16671 6.66602C4.16671 8.04935 5.28337 9.16602 6.66671 9.16602ZM6.66671 10.8327C4.72504 10.8327 0.833374 11.8077 0.833374 13.7494V14.9994C0.833374 15.4577 1.20837 15.8327 1.66671 15.8327H11.6667C12.125 15.8327 12.5 15.4577 12.5 14.9994V13.7494C12.5 11.8077 8.60837 10.8327 6.66671 10.8327ZM13.3334 10.8327C13.0917 10.8327 12.8167 10.8493 12.525 10.8744C12.5417 10.8827 12.55 10.8993 12.5584 10.9077C13.5084 11.5993 14.1667 12.5244 14.1667 13.7494V14.9994C14.1667 15.291 14.1084 15.5744 14.0167 15.8327H18.3334C18.7917 15.8327 19.1667 15.4577 19.1667 14.9994V13.7494C19.1667 11.8077 15.275 10.8327 13.3334 10.8327Z" fill="#411E75"/>
</g>
</svg>
