<svg width="24" height="24" viewBox="0 0 24 24" fill="none" xmlns="http://www.w3.org/2000/svg">
<path d="M6.404 14.692H8.71V13.808H6.52C6.44333 13.808 6.373 13.776 6.309 13.712C6.24433 13.648 6.212 13.5773 6.212 13.5V10.5C6.212 10.4233 6.24433 10.3527 6.309 10.288C6.373 10.224 6.44333 10.192 6.52 10.192H8.713V9.308H6.404C6.108 9.308 5.85467 9.41333 5.644 9.624C5.43267 9.83467 5.327 10.088 5.327 10.384V13.615C5.327 13.911 5.43233 14.1647 5.643 14.376C5.85433 14.5867 6.10867 14.692 6.404 14.692ZM10.112 14.692H12.419C12.7157 14.692 12.969 14.5867 13.179 14.376C13.3903 14.1653 13.496 13.912 13.496 13.616V12.692C13.496 12.396 13.3907 12.1367 13.18 11.914C12.9693 11.692 12.716 11.581 12.42 11.581H11.304C11.2273 11.581 11.1567 11.549 11.092 11.485C11.0273 11.421 10.9953 11.3503 10.996 11.273V10.5C10.996 10.4233 11.028 10.3527 11.092 10.288C11.156 10.2233 11.2267 10.1913 11.304 10.192H13.496V9.308H11.19C10.8933 9.308 10.6397 9.41333 10.429 9.624C10.2183 9.83467 10.113 10.088 10.113 10.384V11.308C10.113 11.604 10.2183 11.8613 10.429 12.08C10.6397 12.2987 10.893 12.408 11.189 12.408H12.305C12.3817 12.408 12.4523 12.44 12.517 12.504C12.5817 12.568 12.6137 12.6383 12.613 12.715V13.5C12.613 13.5773 12.5807 13.648 12.516 13.712C12.452 13.776 12.3817 13.808 12.305 13.808H10.11L10.112 14.692ZM16.25 14.692H17.442L19 9.308H18.077L16.847 13.566L15.615 9.308H14.692L16.25 14.692ZM4.616 19C4.15533 19 3.771 18.846 3.463 18.538C3.155 18.23 3.00067 17.8453 3 17.384V6.616C3 6.15533 3.15433 5.771 3.463 5.463C3.77167 5.155 4.15567 5.00067 4.615 5H19.385C19.845 5 20.229 5.15433 20.537 5.463C20.845 5.77167 20.9993 6.156 21 6.616V17.385C21 17.845 20.8457 18.2293 20.537 18.538C20.2283 18.8467 19.8443 19.0007 19.385 19H4.616Z" fill="#B23C97"/>
</svg>
