<svg width="24" height="24" viewBox="0 0 24 24" fill="none" xmlns="http://www.w3.org/2000/svg">
<path fill-rule="evenodd" clip-rule="evenodd" d="M7.26802 4.65823C10.4171 4.38476 13.5839 4.38476 16.733 4.65823L18.243 4.79023C18.9449 4.8517 19.6057 5.14744 20.1192 5.62991C20.6327 6.11238 20.969 6.75352 21.074 7.45023C21.5276 10.4666 21.5276 13.5339 21.074 16.5502C21.0333 16.8149 20.9627 17.0662 20.862 17.3042C20.796 17.4612 20.592 17.4852 20.476 17.3592L16.055 12.4952C15.9573 12.3877 15.8304 12.3109 15.6897 12.2741C15.5491 12.2374 15.4009 12.2423 15.263 12.2882L12.732 13.1322L9.06102 9.00223C8.99311 8.92583 8.91031 8.86412 8.81769 8.82088C8.72507 8.77764 8.62459 8.75379 8.52242 8.7508C8.42025 8.7478 8.31855 8.76572 8.22355 8.80345C8.12856 8.84119 8.04228 8.89794 7.97002 8.97023L3.05602 13.8842C3.02263 13.9185 2.97996 13.9424 2.93324 13.9528C2.88651 13.9632 2.83776 13.9598 2.79296 13.9429C2.74816 13.926 2.70926 13.8964 2.68103 13.8578C2.6528 13.8191 2.63646 13.773 2.63402 13.7252C2.51576 11.6288 2.61361 9.52567 2.92602 7.44923C3.03104 6.75252 3.36733 6.11138 3.88081 5.62891C4.39429 5.14644 5.05512 4.8507 5.75702 4.78923L7.26802 4.65823ZM14 9.00023C14 8.60241 14.1581 8.22088 14.4394 7.93957C14.7207 7.65827 15.1022 7.50023 15.5 7.50023C15.8978 7.50023 16.2794 7.65827 16.5607 7.93957C16.842 8.22088 17 8.60241 17 9.00023C17 9.39806 16.842 9.77959 16.5607 10.0609C16.2794 10.3422 15.8978 10.5002 15.5 10.5002C15.1022 10.5002 14.7207 10.3422 14.4394 10.0609C14.1581 9.77959 14 9.39806 14 9.00023Z" fill="#B23C97"/>
<path d="M2.96101 16.0998C2.934 16.1271 2.91364 16.1602 2.9015 16.1966C2.88936 16.233 2.88577 16.2717 2.89101 16.3098L2.92601 16.5498C3.03103 17.2465 3.36732 17.8876 3.88081 18.3701C4.39429 18.8526 5.05511 19.1483 5.75701 19.2098L7.26701 19.3408C10.417 19.6148 13.583 19.6148 16.733 19.3408L18.243 19.2098C18.6573 19.1747 19.0603 19.0567 19.428 18.8628C19.565 18.7918 19.588 18.6108 19.484 18.4968L15.384 13.9868C15.3515 13.9506 15.309 13.9247 15.262 13.9122C15.2149 13.8998 15.1652 13.9014 15.119 13.9168L12.737 14.7108C12.5977 14.7573 12.4479 14.7619 12.306 14.724C12.1642 14.6862 12.0366 14.6075 11.939 14.4978L8.64401 10.7908C8.62133 10.7653 8.59367 10.7447 8.56274 10.7304C8.53181 10.716 8.49827 10.7081 8.46417 10.7071C8.43007 10.7062 8.39614 10.7122 8.36447 10.7249C8.3328 10.7376 8.30406 10.7566 8.28001 10.7808L2.96101 16.0998Z" fill="#B23C97"/>
</svg>
