<svg width="303" height="215" viewBox="0 0 303 215" fill="none" xmlns="http://www.w3.org/2000/svg">
<g clip-path="url(#clip0_761_1535)">
<path opacity="0.1" d="M100.902 214.565C115.61 214.565 127.532 212.649 127.532 210.286C127.532 207.923 115.61 206.008 100.902 206.008C86.1952 206.008 74.2727 207.923 74.2727 210.286C74.2727 212.649 86.1952 214.565 100.902 214.565Z" fill="#411E75"/>
<path opacity="0.1" d="M245.658 214.685C264.01 214.685 278.887 212.77 278.887 210.407C278.887 208.044 264.01 206.128 245.658 206.128C227.305 206.128 212.428 208.044 212.428 210.407C212.428 212.77 227.305 214.685 245.658 214.685Z" fill="#411E75"/>
<path opacity="0.1" d="M4.28244 93.1487H32.019V130.968H6.31301C6.24469 131.356 6.1791 131.747 6.10804 132.138H32.019V162.638C31.9725 162.625 31.9315 162.608 31.8878 162.592C31.1554 162.302 30.4284 161.996 29.7014 161.668L29.2368 161.457C28.5081 161.113 27.7793 160.748 27.0505 160.364C26.7963 160.23 26.5422 160.09 26.2907 159.948C22.2449 157.681 18.5694 154.808 15.3918 151.429C15.2989 151.339 15.2114 151.243 15.1185 151.156C14.6758 150.674 14.2412 150.188 13.8204 149.69L13.3558 149.143C12.8584 148.534 12.3774 147.908 11.9101 147.273C11.8417 147.18 11.7761 147.087 11.7051 147C9.80446 144.364 8.22634 141.509 7.00444 138.497C6.96618 138.407 6.93338 138.309 6.89786 138.224C6.52253 137.258 6.19003 136.283 5.90034 135.299C5.77462 134.886 5.65437 134.478 5.55052 134.049C5.51226 133.923 5.47946 133.8 5.4494 133.677C3.8971 127.616 3.71399 121.32 3.71399 115.067C3.71399 114.337 3.71399 113.604 3.71399 112.88C3.71399 110.351 3.74405 107.806 3.78778 105.263C3.78778 104.604 3.81511 103.948 3.82877 103.286C3.86703 101.608 3.92169 99.929 3.99275 98.2503C4.00915 97.7828 4.03101 97.318 4.05561 96.8532C4.05561 96.5853 4.06927 96.3174 4.0966 96.0494C4.16219 95.0761 4.21685 94.111 4.28244 93.1487Z" fill="#411E75"/>
<path opacity="0.1" d="M32.0189 51.0398H16.8047C19.2778 47.1673 21.9801 43.4461 24.8969 39.8961C27.157 37.1183 29.5429 34.4117 32.0189 31.8035V51.0398Z" fill="#411E75"/>
<path opacity="0.1" d="M32.0188 52.21V91.9785H4.36975C4.36975 91.8637 4.38888 91.7461 4.39708 91.6313C4.42168 91.3169 4.44627 91.0025 4.4736 90.6908C4.50366 90.3245 4.53646 89.9554 4.57199 89.5972C4.60752 89.2391 4.64578 88.8016 4.68677 88.4052C4.72777 88.0088 4.76603 87.6069 4.81249 87.2104C4.85895 86.814 4.89994 86.4176 4.94913 86.0239C4.99833 85.6302 5.04205 85.231 5.09398 84.8373C5.13497 84.5093 5.1787 84.1839 5.22242 83.8559C5.28528 83.3938 5.35087 82.929 5.42193 82.4697C5.42193 82.4014 5.44106 82.3303 5.45199 82.2647C5.9508 78.9023 6.63047 75.5693 7.48803 72.2802C8.38568 68.8298 9.53196 65.4491 10.9179 62.1644C12.3908 58.7283 14.1154 55.4056 16.0776 52.2236L32.0188 52.21Z" fill="#411E75"/>
<path opacity="0.1" d="M38.6409 93.146V130.968H97.8826V93.146H38.6409ZM38.6409 132.135V164.615C38.9798 164.686 39.3159 164.755 39.6493 164.812C40.103 164.899 40.5539 164.979 41.0158 165.047C41.1032 165.061 41.1934 165.074 41.2891 165.083C41.4695 165.113 41.6553 165.137 41.8357 165.162C42.2921 165.225 42.7457 165.277 43.2021 165.318C43.418 165.34 43.6367 165.359 43.8553 165.375L44.3828 165.416C44.6697 165.438 44.9539 165.454 45.2354 165.463C45.4103 165.463 45.5852 165.479 45.7656 165.485C45.9023 165.485 46.0389 165.485 46.181 165.485C46.3231 165.485 46.5254 165.485 46.6976 165.485C46.9326 165.485 47.1676 165.485 47.3999 165.485H47.7142C47.9492 165.485 48.1843 165.485 48.4166 165.463H48.433C48.5942 165.463 48.7582 165.463 48.9222 165.441C48.9677 165.444 49.0133 165.444 49.0588 165.441C49.1955 165.441 49.3321 165.441 49.4633 165.422H49.5589L50.4745 165.351C50.7751 165.323 51.0784 165.288 51.3845 165.255L52.0076 165.181C54.5427 164.826 57.0495 164.292 59.5095 163.584C65.0355 162.042 70.4413 159.885 75.9645 158.305C83.1057 156.268 90.9957 155.268 97.8963 157.758V132.135H38.6409ZM97.8826 51.0399V0.688065C91.3967 0.617768 84.9283 1.37667 78.6346 2.94634C63.6335 6.7165 50.1738 14.8939 38.6409 25.3377V51.0372H41.6143V52.2046H38.6409V91.9786H97.8826V52.2073H53.8223V51.0399H97.8826ZM173.976 34.0318C170.264 33.9005 166.575 32.7249 163.238 30.9095C156.857 27.4374 151.76 22.076 146.064 17.5513C134.231 8.12724 119.555 2.44055 104.499 1.02981V51.0399H189.07L189.28 50.8184L173.976 34.0318ZM181.68 32.6648L189.849 41.6322V30.3135C187.113 30.6526 184.716 31.4591 181.691 32.6538L181.68 32.6648ZM189.849 172.68V132.135H172.443C172.396 131.963 172.35 131.788 172.295 131.613C172.347 131.788 172.391 131.963 172.44 132.135H104.51V161.457C105.155 161.936 105.792 162.439 106.423 162.95C107.104 163.497 107.776 164.074 108.451 164.64L109.131 165.203C109.457 165.476 109.785 165.75 110.115 166.007C110.771 166.539 111.433 167.064 112.102 167.582C112.433 167.855 112.772 168.101 113.108 168.358C118.444 172.44 124.074 176.123 129.951 179.379C131.268 180.108 132.597 180.819 133.938 181.514C134.832 181.97 135.731 182.424 136.633 182.864C137.988 183.526 139.355 184.164 140.732 184.778C153.431 190.481 166.859 194.394 180.633 196.406C183.692 196.858 186.763 197.213 189.846 197.472V172.678H190.119L189.849 172.68ZM104.51 52.2073V91.9786H189.859V52.2073H104.51ZM104.51 93.146V130.968H189.859V93.146H104.51ZM196.484 30.2643V42.8899L206.91 31.4454C203.456 30.8877 199.98 30.4894 196.484 30.2507V30.2643ZM196.484 93.1597V130.968H279.497V93.146L196.484 93.1597ZM279.194 175.682L279.486 132.135H196.484V197.907C201.831 198.132 207.186 198.068 212.526 197.715H212.619C215.17 197.555 217.709 197.322 220.236 197.016H220.293C233.775 195.446 246.958 191.927 259.429 186.569M295.504 99.374C295.192 98.6386 294.867 97.9086 294.536 97.1868C293.919 95.8198 293.265 94.4911 292.593 93.1624H286.116V130.968H302.492C302.484 120.262 299.775 109.326 295.512 99.3604L295.504 99.374ZM286.116 132.149V169.605C290.729 165.181 294.626 160.12 297.433 154.335C300.808 147.369 302.352 139.826 302.478 132.144L286.116 132.149ZM286.116 82.139V91.9813H291.986C290.211 88.5932 288.254 85.3031 286.124 82.1253L286.116 82.139ZM229.818 37.6844C229.386 37.5203 228.954 37.3536 228.52 37.1922C223.937 35.4992 219.254 34.0912 214.497 32.9764L198.542 50.4931L198.236 50.8184L198.441 51.0426H255.226C247.317 45.5967 238.791 41.108 229.826 37.6707L229.818 37.6844ZM256.89 52.221H197.648L196.484 53.2872V91.9786H206.689H206.705H279.508V73.2371C272.922 65.2691 265.321 58.199 256.898 52.2073L256.89 52.221Z" fill="#411E75"/>
<path opacity="0.1" d="M32.0188 72.2693V91.9786H4.36975C4.36975 91.8638 4.38888 91.7462 4.39708 91.6314C4.42168 91.317 4.44627 91.0026 4.4736 90.6909C4.50366 90.3245 4.53646 89.9554 4.57199 89.5973C4.60752 89.2391 4.64578 88.8017 4.68677 88.4053C4.72777 88.0088 4.76603 87.6069 4.81249 87.2105C4.85895 86.8141 4.89994 86.4177 4.94913 86.024C4.99833 85.6303 5.04205 85.2311 5.09398 84.8374C5.13497 84.5093 5.1787 84.184 5.22242 83.8559C5.28528 83.3939 5.35087 82.9291 5.42193 82.4698C5.42193 82.4014 5.44106 82.3304 5.45199 82.2647C5.9508 78.9024 6.63047 75.5694 7.48803 72.2802L32.0188 72.2693Z" fill="#411E75"/>
<path opacity="0.1" d="M4.28244 93.1487H32.019V130.968H6.31301C6.24469 131.356 6.1791 131.747 6.10804 132.138H32.019V162.638C31.9725 162.625 31.9315 162.608 31.8878 162.592C31.1554 162.302 30.4284 161.996 29.7014 161.668L29.2368 161.457C28.5081 161.113 27.7793 160.748 27.0505 160.364C26.7963 160.23 26.5422 160.09 26.2907 159.948C22.2449 157.681 18.5694 154.808 15.3918 151.429C15.2989 151.339 15.2114 151.243 15.1185 151.156C14.6758 150.674 14.2412 150.188 13.8204 149.69L13.3558 149.143C12.8584 148.534 12.3774 147.908 11.9101 147.273C11.8417 147.18 11.7761 147.087 11.7051 147C9.80446 144.364 8.22634 141.509 7.00444 138.497C6.96618 138.407 6.93338 138.309 6.89786 138.224C6.52253 137.258 6.19003 136.283 5.90034 135.299C5.77462 134.886 5.65437 134.478 5.55052 134.049C5.51226 133.923 5.47946 133.8 5.4494 133.677C3.8971 127.616 3.71399 121.32 3.71399 115.067C3.71399 114.337 3.71399 113.604 3.71399 112.88C3.71399 110.351 3.74405 107.806 3.78778 105.263C3.78778 104.604 3.81511 103.948 3.82877 103.286C3.86703 101.608 3.92169 99.929 3.99275 98.2503C4.00915 97.7828 4.03101 97.318 4.05561 96.8532C4.05561 96.5853 4.06927 96.3174 4.0966 96.0494C4.16219 95.0761 4.21685 94.111 4.28244 93.1487Z" fill="#411E75"/>
<path opacity="0.1" d="M59.4959 57.9022V91.9786H38.6409V57.9022H41.6143V46.3647H53.8196V57.9022H59.4959Z" fill="#411E75"/>
<path opacity="0.1" d="M59.4958 93.146H38.6436V130.965H59.4958V93.146Z" fill="#411E75"/>
<path opacity="0.1" d="M38.6409 132.138H59.4959V163.579C57.0358 164.286 54.529 164.819 51.994 165.173L51.3709 165.249C51.0648 165.285 50.7614 165.315 50.4608 165.345C50.1602 165.375 49.8486 165.397 49.5453 165.416H49.4496C49.3184 165.416 49.1763 165.433 49.0479 165.435H48.9085C48.7445 165.435 48.5805 165.452 48.4166 165.457C48.1843 165.471 47.952 165.474 47.7142 165.476C47.6131 165.476 47.5174 165.476 47.4163 165.476C47.1813 165.476 46.949 165.476 46.714 165.476H46.1974C46.058 165.476 45.9241 165.476 45.7793 165.476L45.2518 165.457C44.9785 165.457 44.6834 165.427 44.3992 165.408L43.8744 165.37L43.2213 165.31C42.7621 165.269 42.3057 165.217 41.8548 165.154L41.3082 165.077L41.0349 165.039C40.5785 164.968 40.1276 164.891 39.6685 164.804C39.3323 164.746 38.9989 164.675 38.66 164.607L38.6409 132.138Z" fill="#411E75"/>
<path opacity="0.1" d="M189.859 53.8778H172.664V91.9759H189.859V53.8778Z" fill="#411E75"/>
<path opacity="0.1" d="M189.862 93.146V130.968H104.51V114.654H149.972V124.278H172.664V93.146H189.862Z" fill="#411E75"/>
<path opacity="0.1" d="M190.133 172.689H189.859V197.5C186.78 197.239 183.71 196.884 180.65 196.436C166.869 194.418 153.435 190.496 140.732 184.784C137.065 183.132 133.472 181.33 129.954 179.376C124.077 176.119 118.446 172.435 113.108 168.355C111.767 167.327 110.443 166.276 109.137 165.2C108.232 164.454 107.333 163.688 106.423 162.945C105.792 162.433 105.155 161.93 104.51 161.449V132.138H172.437C172.391 131.963 172.344 131.788 172.295 131.616C172.347 131.788 172.396 131.963 172.443 132.138H189.859V172.672C189.952 172.675 190.043 172.683 190.133 172.689Z" fill="#411E75"/>
<path opacity="0.1" d="M234.707 51.0399H223.502V47.5568H228.525V37.1813C228.96 37.3398 229.394 37.503 229.826 37.6707V47.5568H234.707V51.0399Z" fill="#411E75"/>
<path opacity="0.1" d="M261.703 91.9785H206.694C206.694 91.9785 206.694 91.9785 206.713 91.9922L206.689 91.9785H196.484V53.8804H199.376V82.0405H212.589V65.3632H223.505V52.21H234.71V65.3741H245.625V82.0514H261.703V91.9785Z" fill="#411E75"/>
<path opacity="0.1" d="M196.484 93.146V130.968H261.703V93.146H196.484ZM279.407 175.488L279.497 145.551H261.703V132.155H196.484V197.907C201.831 198.132 207.186 198.068 212.526 197.715H212.619C215.17 197.555 217.709 197.322 220.236 197.016H220.293C233.775 195.446 246.958 191.927 259.429 186.569" fill="#411E75"/>
<path opacity="0.1" d="M287.275 132.138H302.489C302.355 139.818 300.814 147.361 297.441 154.327C294.635 160.115 290.735 165.176 286.127 169.597V145.537H287.275V132.138Z" fill="#411E75"/>
<path opacity="0.1" d="M302.497 130.968H287.275V99.3604H295.512C299.775 109.326 302.484 120.262 302.497 130.968Z" fill="#411E75"/>
<path opacity="0.1" d="M189.862 64.4692H180.649V76.414H189.862V64.4692Z" fill="#411E75"/>
<path opacity="0.1" d="M189.862 89.2281H180.649V91.9785H189.862V89.2281Z" fill="#411E75"/>
<path opacity="0.1" d="M189.862 93.146H180.649V101.17H189.862V93.146Z" fill="#411E75"/>
<path opacity="0.1" d="M189.862 113.987H180.649V125.932H189.862V113.987Z" fill="#411E75"/>
<path opacity="0.1" d="M189.862 138.746H180.649V150.691H189.862V138.746Z" fill="#411E75"/>
<path opacity="0.1" d="M189.859 172.672C189.952 172.672 190.043 172.672 190.133 172.689H189.859V175.464H180.649V163.505H189.859V172.672Z" fill="#411E75"/>
<path opacity="0.1" d="M189.859 188.259V197.486C186.78 197.225 183.71 196.871 180.649 196.422V188.259H189.859Z" fill="#411E75"/>
<path opacity="0.1" d="M143.993 130.09H104.51V130.968H143.993V130.09Z" fill="#411E75"/>
<path opacity="0.1" d="M143.993 132.135H104.51V135.498H143.993V132.135Z" fill="#411E75"/>
<path opacity="0.1" d="M143.993 146.521H104.51V151.929H143.993V146.521Z" fill="#411E75"/>
<path opacity="0.1" d="M143.99 162.953V168.361H113.108C111.767 167.336 110.442 166.285 109.134 165.206C108.229 164.459 107.333 163.694 106.42 162.953H143.99Z" fill="#411E75"/>
<path opacity="0.1" d="M143.99 179.381V184.784H140.729C137.065 183.13 133.474 181.327 129.953 179.373L143.99 179.381Z" fill="#411E75"/>
<path opacity="0.1" d="M220.302 96.8123H212.529V104.588H220.302V96.8123Z" fill="#411E75"/>
<path opacity="0.1" d="M52.0131 60.5842H44.2406V68.3597H52.0131V60.5842Z" fill="#411E75"/>
<path opacity="0.1" d="M52.0131 78.6449H44.2406V86.4204H52.0131V78.6449Z" fill="#411E75"/>
<path opacity="0.1" d="M52.0131 96.7056H44.2406V104.481H52.0131V96.7056Z" fill="#411E75"/>
<path opacity="0.1" d="M52.0131 114.764H44.2406V122.539H52.0131V114.764Z" fill="#411E75"/>
<path opacity="0.1" d="M52.0131 132.824H44.2406V140.6H52.0131V132.824Z" fill="#411E75"/>
<path opacity="0.1" d="M52.0131 150.885H44.2406V158.66H52.0131V150.885Z" fill="#411E75"/>
<path opacity="0.1" d="M249.973 96.8123H242.201V104.588H249.973V96.8123Z" fill="#411E75"/>
<path opacity="0.1" d="M220.302 115.991H212.529V123.767H220.302V115.991Z" fill="#411E75"/>
<path opacity="0.1" d="M249.973 115.991H242.201V123.767H249.973V115.991Z" fill="#411E75"/>
<path opacity="0.1" d="M220.302 135.167H212.529V142.943H220.302V135.167Z" fill="#411E75"/>
<path opacity="0.1" d="M249.973 135.167H242.201V142.943H249.973V135.167Z" fill="#411E75"/>
<path opacity="0.1" d="M220.302 154.346H212.529V162.122H220.302V154.346Z" fill="#411E75"/>
<path opacity="0.1" d="M249.973 154.346H242.201V162.122H249.973V154.346Z" fill="#411E75"/>
<path opacity="0.1" d="M220.302 173.525H212.529V181.301H220.302V173.525Z" fill="#411E75"/>
<path opacity="0.1" d="M249.973 173.525H242.201V181.301H249.973V173.525Z" fill="#411E75"/>
<path opacity="0.1" d="M212.529 197.716V192.701H220.299V197.002L212.529 197.716Z" fill="#411E75"/>
<path opacity="0.1" d="M5.41931 82.2593V86.7075H32.0189V82.2593H5.41931ZM8.07026 86.4286H5.90031V82.5327H8.08665L8.07026 86.4286ZM10.7185 86.4286H8.53212V82.5327H10.7185V86.4286ZM13.3612 86.4286H11.1749V82.5327H13.3612V86.4286ZM16.0094 86.4286H13.8258V82.5327H16.0122L16.0094 86.4286ZM18.6549 86.4286H16.4686V82.5327H18.6549V86.4286ZM21.3031 86.4286H19.1168V82.5327H21.3031V86.4286ZM23.9513 86.4286H21.765V82.5327H23.9513V86.4286ZM26.5968 86.4286H24.4105V82.5327H26.5968V86.4286ZM29.2423 86.4286H27.0559V82.5327H29.2423V86.4286ZM31.8878 86.4286H29.7014V82.5327H31.8878V86.4286Z" fill="#411E75"/>
<path opacity="0.1" d="M5.41931 95.2019V99.6501H32.0189V95.2019H5.41931ZM8.07026 99.3685H5.90031V95.4835H8.08665L8.07026 99.3685ZM10.7185 99.3685H8.53212V95.4835H10.7185V99.3685ZM13.3612 99.3685H11.1749V95.4835H13.3612V99.3685ZM16.0094 99.3685H13.8258V95.4835H16.0122L16.0094 99.3685ZM18.6549 99.3685H16.4686V95.4835H18.6549V99.3685ZM21.3031 99.3685H19.1168V95.4835H21.3031V99.3685ZM23.9513 99.3685H21.765V95.4835H23.9513V99.3685ZM26.5968 99.3685H24.4105V95.4835H26.5968V99.3685ZM29.2423 99.3685H27.0559V95.4835H29.2423V99.3685ZM31.8878 99.3685H29.7014V95.4835H31.8878V99.3685Z" fill="#411E75"/>
<path opacity="0.1" d="M5.41931 108.15V112.607H32.0189V108.15H5.41931ZM8.07026 112.317H5.90031V108.429H8.08665L8.07026 112.317ZM10.7185 112.317H8.53212V108.429H10.7185V112.317ZM13.3612 112.317H11.1749V108.429H13.3612V112.317ZM16.0094 112.317H13.8258V108.429H16.0122L16.0094 112.317ZM18.6549 112.317H16.4686V108.429H18.6549V112.317ZM21.3031 112.317H19.1168V108.429H21.3031V112.317ZM23.9513 112.317H21.765V108.429H23.9513V112.317ZM26.5968 112.317H24.4105V108.429H26.5968V112.317ZM29.2423 112.317H27.0559V108.429H29.2423V112.317ZM31.8878 112.317H29.7014V108.429H31.8878V112.317Z" fill="#411E75"/>
<path opacity="0.1" d="M5.41931 121.098V125.541H32.0189V121.098H5.41931ZM8.07026 125.265H5.90031V121.374H8.08665L8.07026 125.265ZM10.7185 125.265H8.53212V121.374H10.7185V125.265ZM13.3612 125.265H11.1749V121.374H13.3612V125.265ZM16.0094 125.265H13.8258V121.374H16.0122L16.0094 125.265ZM18.6549 125.265H16.4686V121.374H18.6549V125.265ZM21.3031 125.265H19.1168V121.374H21.3031V125.265ZM23.9513 125.265H21.765V121.374H23.9513V125.265ZM26.5968 125.265H24.4105V121.374H26.5968V125.265ZM29.2423 125.265H27.0559V121.374H29.2423V125.265ZM31.8878 125.265H29.7014V121.374H31.8878V125.265Z" fill="#411E75"/>
<path opacity="0.1" d="M5.53406 134.044C5.64064 134.462 5.76089 134.88 5.8866 135.293V134.323H8.07295V138.21H6.90326C6.93878 138.301 6.97431 138.399 7.00984 138.484H32.0189V134.044H5.53406ZM10.7266 138.21H8.54028V134.323H10.7266V138.21ZM13.3694 138.21H11.183V134.323H13.3694V138.21ZM16.0176 138.21H13.8258V134.323H16.0121L16.0176 138.21ZM18.6631 138.21H16.4767V134.323H18.6631V138.21ZM21.3113 138.21H19.1249V134.323H21.3113V138.21ZM23.9595 138.21H21.7731V134.323H23.9595V138.21ZM26.605 138.21H24.4186V134.323H26.605V138.21ZM29.2504 138.21H27.0641V134.323H29.2504V138.21ZM31.8959 138.21H29.7096V134.323H31.8959V138.21Z" fill="#411E75"/>
<path opacity="0.1" d="M11.7104 146.992C11.7788 147.079 11.8444 147.178 11.9154 147.265H13.3611V149.133C13.5169 149.319 13.67 149.504 13.8285 149.679V147.254H16.0148V151.156H15.1293C15.2168 151.246 15.3015 151.342 15.4026 151.429H32.0271V146.992H11.7104ZM18.6548 151.156H16.4685V147.271H18.6548V151.156ZM21.303 151.156H19.1167V147.271H21.303V151.156ZM23.9513 151.156H21.7649V147.271H23.9513V151.156ZM26.5967 151.156H24.4104V147.271H26.5967V151.156ZM29.2422 151.156H27.0559V147.271H29.2422V151.156ZM31.8877 151.156H29.7013V147.271H31.8877V151.156Z" fill="#411E75"/>
<path opacity="0.1" d="M26.3016 159.937C26.5503 160.079 26.8045 160.211 27.0614 160.353V160.216H29.2477V161.446L29.7123 161.662V160.216H31.8987V162.581C31.9406 162.602 31.9846 162.618 32.0299 162.63V159.937H26.3016Z" fill="#411E75"/>
<path opacity="0.1" d="M172.295 131.613C172.347 131.788 172.39 131.963 172.44 132.135C172.396 131.963 172.349 131.788 172.295 131.613ZM41.6251 51.0316V52.199H53.8331V51.0316H41.6251ZM172.295 131.613C172.347 131.788 172.39 131.963 172.44 132.135C172.396 131.963 172.349 131.788 172.295 131.613ZM172.295 131.613C172.347 131.788 172.39 131.963 172.44 132.135C172.396 131.963 172.349 131.788 172.295 131.613Z" fill="#411E75"/>
<path d="M126.652 104.487C126.652 104.487 125.575 104.336 125.575 102.767C125.575 101.198 124.805 98.2667 124.805 98.2667C124.805 98.2531 124.138 93.1624 123.217 92.3531C122.296 91.5439 121.112 86.7922 121.112 86.7922C121.112 86.7922 120.91 84.2141 120.498 83.6591C120.085 83.1041 119.527 81.7453 118.705 79.8069C117.882 77.8685 114.452 76.5261 114.452 76.5261C114.452 76.5261 108.251 72.9282 106.494 71.7553C106.334 71.6589 106.185 71.5462 106.049 71.419C105.742 71.0171 104.409 71.0089 104.409 71.0089C104.269 70.1286 104.135 69.117 104.092 68.2011C104.092 68.1027 104.092 68.0043 104.078 67.9058C106.038 66.7471 107.513 64.9202 108.235 62.7605C108.268 62.6566 108.295 62.5472 108.325 62.4433C108.442 62.4046 108.55 62.3419 108.642 62.259C108.734 62.1761 108.807 62.075 108.858 61.9621C109.016 61.6095 109.019 61.1966 109.216 60.8686C109.446 60.4803 109.883 60.2725 110.227 59.98C111.096 59.2418 111.32 57.9979 111.279 56.866C111.252 55.9501 111.104 55.026 111.162 54.1156L111.178 53.886C111.195 53.7493 111.214 53.6126 111.238 53.4813C111.372 52.8033 111.665 52.1635 111.829 51.491C111.993 50.8184 112.009 50.0611 111.626 49.4815C111.066 48.6312 109.899 48.4617 108.874 48.3742C107.713 48.2758 106.674 48.4043 105.931 47.4392C105.583 46.9348 105.192 46.4618 104.761 46.0257C104.608 45.8836 103.122 44.9759 103.122 44.9157C101.671 44.2434 100.026 44.1172 98.4892 44.5603C97.7185 44.7845 96.9916 45.1509 96.21 45.334C94.5237 45.7332 92.5833 45.3012 91.1513 46.2663C90.3533 46.8131 89.875 47.6825 89.4268 48.5301C89.0624 49.2282 88.6926 49.9253 88.3172 50.6216C87.7133 51.7671 87.0984 52.9318 86.8442 54.2004C86.7907 54.4764 86.7579 54.756 86.7458 55.037V55.0506C86.7458 55.1518 86.7458 55.2529 86.7458 55.3541V55.4826C86.7458 55.5783 86.7458 55.6712 86.7622 55.756C86.7786 55.8407 86.7759 55.8681 86.7841 55.9255C86.7923 55.9829 86.8059 56.1114 86.8223 56.1989C86.8387 56.2864 86.8715 56.4395 86.9043 56.5598C86.918 56.6117 86.9371 56.6609 86.9535 56.7102C86.9808 56.8031 87.0136 56.8933 87.0492 56.9836C87.0683 57.03 87.0874 57.0792 87.1093 57.1257C87.1503 57.2214 87.1995 57.3144 87.2487 57.3991C87.2705 57.4374 87.2869 57.4729 87.3088 57.5085C87.385 57.6356 87.469 57.758 87.5602 57.8748C88.1451 58.6048 89.0059 59.0696 89.6427 59.7531C89.6427 59.7804 89.6427 59.8078 89.6427 59.8324C89.6427 59.9089 89.6427 59.9827 89.6427 60.0593C89.6765 61.5836 90.0821 63.0766 90.8241 64.4084C91.5662 65.7402 92.6223 66.8704 93.9006 67.7008C93.9006 67.8047 93.9143 67.9113 93.9198 68.0152C93.973 68.8267 93.963 69.6412 93.8897 70.4512C93.7784 70.32 93.6391 70.2156 93.482 70.1456C93.325 70.0755 93.1542 70.0417 92.9824 70.0465C92.8649 70.0408 92.7473 70.0509 92.6325 70.0766L92.6079 70.0575V70.0821C92.0067 70.2297 91.2661 70.8558 90.5582 72.6356C90.5582 72.6356 88.4047 75.0634 86.7649 74.9622C85.1252 74.8611 80.9739 77.4884 80.9739 77.4884C80.9739 77.4884 76.9236 80.1185 76.0546 82.7979C75.5688 84.3172 74.9864 85.8038 74.311 87.2488L69.3042 97.5696L68.3805 105.758C68.3805 105.758 68.8916 109.4 68.7904 109.955C68.6893 110.51 70.8921 115.515 70.8921 115.515C70.8921 115.515 78.1699 128.308 81.1433 128.964L81.3565 128.814C81.4837 128.88 81.6186 128.931 81.7582 128.964L82.3704 128.532C82.4071 129.013 82.3916 129.497 82.3239 129.976C81.914 131.239 82.477 139.482 83.193 141.097C83.909 142.713 83.6549 163.899 83.6549 163.899L83.5537 165.769C83.5537 165.769 83.5537 165.829 83.5783 165.933L83.5537 166.376L83.6275 166.414C83.7042 167.007 83.6792 167.609 83.5537 168.194C83.2968 169.014 83.193 171.333 83.193 171.333C83.193 171.333 81.146 184.423 82.1162 187.053C83.0864 189.683 83.9118 192.565 83.9118 192.565C83.9118 192.565 84.9366 195.845 83.9609 196.406C82.9853 196.966 80.2114 197.907 80.7825 199.274C81.3018 200.537 83.2722 203.922 83.5647 204.416L83.5401 204.676L83.1383 209.031C83.2034 209.606 83.3593 210.168 83.6002 210.694C84.0402 211.642 84.8956 212.627 86.5217 212.52C86.795 212.501 87.112 212.468 87.4181 212.427C90.3943 212.028 94.0591 210.699 94.0591 210.699C93.8689 210.578 93.6944 210.434 93.5399 210.27C93.3936 210.128 93.2777 209.958 93.1992 209.77C93.1208 209.582 93.0814 209.38 93.0835 209.176C93.1272 208.383 91.6432 204.605 91.2743 203.676C91.2169 203.542 91.1868 203.465 91.1868 203.465C91.1868 203.465 94.5702 199.927 94.0072 196.791C94.0072 196.791 90.2631 194.604 91.4956 193.404C92.7282 192.204 94.9309 188.756 94.9309 188.756C94.9309 188.756 95.0321 175.865 94.9309 173.941C94.8255 172.605 94.8888 171.261 95.1195 169.941C95.1605 169.741 95.2097 169.547 95.2616 169.356C96.9662 169.61 98.687 169.741 100.41 169.747C101.039 169.747 101.679 169.747 102.324 169.709C102.324 169.891 102.332 170.088 102.348 170.299C102.49 173.492 102.755 179.092 102.971 181.172C103.277 184.155 104.969 192.193 104.969 192.193C104.969 192.193 101.741 194.265 105.532 199.372C105.532 199.372 105.532 201.223 105.281 201.491C105.012 202.367 104.796 203.258 104.633 204.159C104.474 205.122 104.409 206.095 104.666 206.601C105.281 207.809 108.97 207.711 108.97 207.711L109.06 207.695C109.757 207.622 110.461 207.69 111.131 207.892C111.801 208.094 112.425 208.428 112.966 208.873C114.368 209.999 119.689 209.504 122.569 209.146C123.698 209.004 124.452 208.873 124.452 208.873C124.489 208.745 124.502 208.612 124.49 208.479C124.46 207.771 123.905 206.218 120.145 204.832C120.145 204.832 116.609 202.453 116.658 200.381H116.584H116.174C116.472 200.365 116.663 200.381 116.663 200.381C116.663 200.381 115.278 195.323 115.843 194.913C116.409 194.503 114.715 188.898 114.715 188.898C114.715 188.898 113.744 179.493 113.693 178.835C113.695 178.269 113.78 177.707 113.947 177.167L113.693 172.011C113.693 172.011 113.643 170.296 113.693 169.739C113.684 169.254 113.645 168.771 113.575 168.292C113.55 168.101 113.526 167.901 113.498 167.705C114.824 167.368 115.685 167.057 115.685 167.057L115.532 149.108C116.658 146.921 116.865 142.123 116.86 138.719C116.86 136.532 116.762 134.913 116.762 134.913L118.3 132.401C118.3 132.401 118.656 129.393 118.093 128.734C117.844 128.436 117.956 128.127 118.161 127.873C118.267 127.789 118.38 127.712 118.497 127.643C118.497 127.643 118.481 127.619 118.461 127.583C118.569 127.493 118.683 127.412 118.803 127.34C118.803 127.34 118.257 126.492 118.746 126.134C119.205 126.446 119.615 126.681 119.926 126.872C119.904 127.072 119.883 127.187 119.883 127.187L120.014 126.913C120.314 127.083 120.498 127.187 120.498 127.187C120.498 127.187 122.908 122.383 122.856 121.675C122.804 120.967 124.496 117.984 124.496 117.984C124.496 117.984 124.701 116.418 125.625 115.762C126.548 115.105 126.341 110.351 126.341 110.351C126.341 110.351 126.597 107.874 127.212 106.862C127.827 105.851 126.652 104.487 126.652 104.487ZM80.5311 102.379L80.5776 103.524C80.3043 103.084 80.1075 102.767 80.1075 102.767L80.5311 102.379Z" fill="url(#paint0_linear_761_1535)"/>
<path d="M120.629 125.112L120.038 127.627C120.038 127.627 115.31 125.213 114.458 122.145C113.605 119.078 115.884 117.913 115.884 117.913L120.29 119.78L120.629 125.112Z" fill="white"/>
<path opacity="0.1" d="M120.629 125.112L120.038 127.627C120.038 127.627 115.31 125.213 114.458 122.145C113.605 119.078 115.884 117.913 115.884 117.913L120.29 119.78L120.629 125.112Z" fill="black"/>
<path d="M94.0948 210.716C94.0948 210.716 89.7221 212.323 86.7158 212.525C85.1198 212.632 84.2808 211.653 83.849 210.71C83.6131 210.186 83.461 209.628 83.3981 209.056L83.7889 204.723L83.9966 202.415L90.3834 200.756L91.288 203.522L91.3728 203.733C91.7362 204.657 93.1929 208.416 93.1492 209.201C93.1474 209.402 93.1862 209.601 93.2632 209.787C93.3402 209.972 93.4539 210.14 93.5974 210.281C93.744 210.446 93.9112 210.592 94.0948 210.716Z" fill="#411E75"/>
<path d="M123.963 208.512C123.974 208.643 123.961 208.776 123.925 208.903C123.925 208.903 114.573 210.464 112.66 208.903C112.12 208.447 111.491 208.109 110.814 207.91C110.136 207.711 109.424 207.656 108.724 207.749C108.724 207.749 105.106 207.848 104.502 206.656C104.25 206.155 104.316 205.185 104.472 204.228C104.631 203.331 104.842 202.445 105.106 201.573L105.251 201.458L106.111 200.767L116.191 200.469H116.267C116.218 202.53 119.689 204.895 119.689 204.895C123.375 206.262 123.919 207.807 123.963 208.512Z" fill="#411E75"/>
<path opacity="0.1" d="M123.963 208.512C123.973 208.644 123.959 208.776 123.922 208.903C123.922 208.903 114.573 210.464 112.66 208.903C112.121 208.447 111.492 208.109 110.815 207.911C110.138 207.712 109.427 207.657 108.727 207.749C108.727 207.749 105.106 207.848 104.505 206.656C104.253 206.153 104.316 205.185 104.472 204.228C105.866 204.367 108.066 204.714 108.929 205.543C110.235 206.803 112.449 208.061 113.807 208.159C114.871 208.228 121.23 208.43 123.963 208.512Z" fill="black"/>
<path opacity="0.1" d="M94.0947 210.715C94.0947 210.715 89.722 212.323 86.7158 212.525C85.1198 212.632 84.2808 211.653 83.8517 210.707C84.964 211.082 86.5081 211.476 87.3198 211.115C88.2818 210.688 91.6925 210.412 93.6055 210.294C93.7511 210.454 93.9154 210.595 94.0947 210.715Z" fill="black"/>
<path d="M100.583 81.1656C96.9753 79.7631 92.3348 75.129 93.4935 72.9637C93.7509 72.4173 93.9038 71.8275 93.9445 71.2249C94.019 70.4068 94.03 69.5841 93.9773 68.7643C93.896 67.4216 93.7345 66.085 93.4935 64.7617C93.4935 64.7617 104.756 65.016 104.1 66.6755C103.909 67.1622 103.879 68.007 103.931 68.9529C103.983 69.8989 104.119 70.9679 104.261 71.8728C104.458 73.114 104.655 74.06 104.655 74.06C104.655 74.06 103.966 75.0251 103.562 75.0771C103.157 75.129 105.759 83.1642 100.583 81.1656Z" fill="#FFB0B1"/>
<path opacity="0.1" d="M91.3645 203.733L91.2798 203.826C87.9128 199.752 83.8408 204.829 83.8408 204.829L83.7806 204.723L83.9883 202.415L90.3752 200.756L91.2798 203.522L91.3645 203.733Z" fill="black"/>
<path opacity="0.1" d="M116.27 200.756C116.27 200.756 113.81 200.704 112.498 201.863C111.187 203.022 104.846 202.114 105.119 201.863C105.2 201.738 105.249 201.595 105.262 201.447L106.122 200.756L116.201 200.458C116.24 200.641 116.27 200.756 116.27 200.756Z" fill="black"/>
<path d="M95.5541 168.765C95.3709 169.218 95.2318 169.688 95.1387 170.168C94.9108 171.482 94.8474 172.819 94.9501 174.149C95.0512 176.062 94.9501 188.887 94.9501 188.887C94.9501 188.887 92.7883 192.308 91.5831 193.513C90.3779 194.719 94.0428 196.884 94.0428 196.884C94.5893 200.001 91.277 203.523 91.277 203.523C87.9101 199.449 83.838 204.529 83.838 204.529C83.838 204.529 81.6243 200.701 81.0723 199.334C80.5202 197.967 83.234 197.021 84.1878 196.466C85.1416 195.911 84.1414 192.639 84.1414 192.639C84.1414 192.639 83.3351 189.771 82.3786 187.154C81.4221 184.538 83.4335 171.513 83.4335 171.513C83.4335 171.513 83.5374 169.2 83.7861 168.394C83.9115 167.812 83.9365 167.212 83.8599 166.622C83.8435 166.422 83.8243 166.256 83.8107 166.143C83.797 166.031 83.7861 165.979 83.7861 165.979L83.8243 165.914L85.1908 163.366C85.1908 163.366 96.21 167.16 95.5541 168.765Z" fill="#B23C97"/>
<path d="M116.27 200.455C116.27 200.455 113.81 200.403 112.498 201.549C111.186 202.694 104.846 201.8 105.119 201.549C105.393 201.297 105.371 199.435 105.371 199.435C101.651 194.355 104.824 192.294 104.824 192.294C104.824 192.294 103.163 184.297 102.862 181.331C102.652 179.258 102.392 173.689 102.253 170.51C102.192 169.143 102.157 168.202 102.157 168.202L105.196 167.59L105.587 167.51L112.916 166.04C112.916 166.04 113.119 167.407 113.255 168.525C113.323 169.002 113.362 169.483 113.37 169.966C113.321 170.512 113.37 172.224 113.37 172.224L113.619 177.356C113.456 177.894 113.373 178.453 113.37 179.015C113.419 179.668 114.373 189.024 114.373 189.024C114.373 189.024 116.032 194.607 115.466 195.009C114.901 195.411 116.27 200.455 116.27 200.455Z" fill="#B23C97"/>
<path opacity="0.1" d="M104.1 66.6755C103.909 67.1622 103.879 68.007 103.931 68.9529C102.422 69.8617 100.688 70.3263 98.9272 70.2934C97.1665 70.2606 95.4509 69.7315 93.9773 68.767C93.8961 67.4234 93.7346 66.086 93.4935 64.7617C93.4935 64.7617 104.756 65.0105 104.1 66.6755Z" fill="black"/>
<path d="M108.454 60.6334C108.456 61.6186 108.301 62.5979 107.994 63.5342C107.31 65.6321 105.906 67.4204 104.03 68.5829C102.155 69.7455 99.9295 70.2074 97.7468 69.8871C95.5641 69.5668 93.5648 68.4849 92.1023 66.8326C90.6398 65.1802 89.8083 63.0639 89.7548 60.8576C89.7548 60.7811 89.7548 60.71 89.7548 60.6334C89.7336 59.3915 89.9597 58.1579 90.4201 57.0043C90.8805 55.8508 91.5659 54.8006 92.4363 53.9148C93.3067 53.0291 94.3447 52.3256 95.4897 51.8453C96.6348 51.3651 97.8639 51.1178 99.1055 51.1178C100.347 51.1178 101.576 51.3651 102.721 51.8453C103.866 52.3256 104.904 53.0291 105.775 53.9148C106.645 54.8006 107.331 55.8508 107.791 57.0043C108.251 58.1579 108.477 59.3915 108.456 60.6334H108.454Z" fill="#FFB0B1"/>
<path opacity="0.1" d="M100.583 81.1656C96.9753 79.7631 92.3348 75.129 93.4935 72.9637C93.7509 72.4172 93.9038 71.8275 93.9445 71.2249L98.8829 75.2848L101.938 77.7919L104.261 71.8755C104.458 73.1168 104.655 74.0627 104.655 74.0627C104.655 74.0627 103.966 75.0278 103.562 75.0798C103.157 75.1317 105.759 83.1642 100.583 81.1656Z" fill="black"/>
<path d="M113.354 99.1088L109.23 168.415L103.851 168.768L89.9243 128.581L92.2091 80.8704L92.69 70.7902L98.8829 75.8781L101.941 78.3852L104.332 72.2966L108.779 76.1734L113.354 99.1088Z" fill="#B23C97"/>
<path opacity="0.1" d="M95.5541 168.765C95.3709 169.218 95.2318 169.688 95.1387 170.168C91.2251 169.563 87.4242 168.375 83.8626 166.644L83.7888 166.605L83.8134 166.165L83.8271 165.936L85.1935 163.387C85.1935 163.387 96.21 167.16 95.5541 168.765Z" fill="black"/>
<path opacity="0.1" d="M105.259 170.179C104.258 170.349 103.249 170.464 102.236 170.523C102.176 169.156 102.141 168.216 102.141 168.216L105.18 167.603L105.259 170.179Z" fill="black"/>
<path opacity="0.1" d="M113.239 168.538C111.296 169.044 108.295 169.613 105.609 169.257L105.57 167.524L112.9 166.053C112.9 166.053 113.102 167.407 113.239 168.538Z" fill="black"/>
<path opacity="0.1" d="M105.559 169.575C94.3543 171.488 84.0922 166.001 84.0922 166.001L84.1905 164.142C84.1905 164.142 84.4447 143.066 83.7396 141.45C83.0345 139.834 82.4852 131.641 82.8842 130.383C83.2832 129.125 81.4276 110.266 81.4276 110.266L81.1269 102.611L70.1241 98.152L75.0434 87.894C75.7079 86.4558 76.2793 84.9765 76.7542 83.465C77.6097 80.8021 81.5806 78.1857 81.5806 78.1857C81.5806 78.1857 85.6527 75.572 87.2624 75.6704C88.8721 75.7688 90.9819 73.3574 90.9819 73.3574C92.5397 69.385 93.9499 71.1839 93.9499 71.1839C93.9499 71.3726 93.9499 71.1839 93.8733 71.7717C93.3267 76.1324 102.712 89.9117 102.846 90.1551L103.739 111.934L104.644 139.495L105.559 169.575Z" fill="black"/>
<path d="M105.259 169.575C94.0537 171.488 83.7888 166.001 83.7888 166.001L83.8899 164.142C83.8899 164.142 84.1441 143.066 83.4362 141.45C82.7284 139.834 82.1818 131.64 82.5836 130.383C82.9853 129.125 81.1269 110.266 81.1269 110.266L80.8236 102.611L69.8153 98.1355L74.7346 87.8776C75.3976 86.4388 75.969 84.9595 76.4454 83.4485C77.2981 80.7856 81.2718 78.1692 81.2718 78.1692C81.2718 78.1692 85.3438 75.5555 86.9508 75.6539C88.5578 75.7523 90.6703 73.341 90.6703 73.341C92.2308 69.3685 93.9498 71.1674 93.9498 71.1674C93.9498 71.3561 93.7859 71.4408 93.8733 71.7553C95.0758 75.9847 102.411 89.8953 102.545 90.1386L103.45 111.918L104.354 139.479L105.259 169.575Z" fill="white"/>
<path opacity="0.1" d="M102.239 90.7591C101.034 90.2561 94.6496 82.9645 94.6496 82.9645V81.305C94.4173 80.7582 93.0371 81.0917 91.9166 81.4745L92.3976 71.3943L92.9442 71.8481C94.1412 76.0749 102.1 90.5158 102.239 90.7591Z" fill="black"/>
<path d="M102.542 90.155C101.334 89.6519 94.9502 82.3604 94.9502 82.3604V80.7009C94.7179 80.1541 93.3378 80.4876 92.2173 80.8704L92.701 70.7902L93.2476 71.244C94.4474 75.4707 102.408 89.9144 102.542 90.155Z" fill="white"/>
<path opacity="0.1" d="M84.0922 126.52C84.2425 126.52 91.8838 125.716 91.8838 125.716C91.8838 125.716 96.5107 134.818 96.2073 137.032C95.9039 139.247 95.3546 141.207 93.4935 140.86C91.6324 140.512 83.4773 141.133 83.4773 141.133L84.0922 126.52Z" fill="black"/>
<path d="M83.7889 125.916C83.9392 125.916 91.5805 125.112 91.5805 125.112C91.5805 125.112 96.2046 134.216 95.9039 136.428C95.6033 138.64 95.0485 140.603 93.1901 140.255C91.3318 139.908 83.174 140.529 83.174 140.529L83.7889 125.916Z" fill="white"/>
<path d="M89.5472 121.642C89.5472 121.642 96.5599 125.413 96.7102 126.564C96.8605 127.715 93.141 126.06 92.3375 125.861C91.8087 125.733 91.2703 125.649 90.7278 125.609L85.3685 125.754L89.5472 121.642Z" fill="#FFB0B1"/>
<path opacity="0.1" d="M100.282 91.2294C100.69 91.2294 101.02 90.8989 101.02 90.4912C101.02 90.0835 100.69 89.7531 100.282 89.7531C99.8745 89.7531 99.5442 90.0835 99.5442 90.4912C99.5442 90.8989 99.8745 91.2294 100.282 91.2294Z" fill="black"/>
<path d="M100.282 90.9287C100.69 90.9287 101.02 90.5983 101.02 90.1906C101.02 89.7829 100.69 89.4524 100.282 89.4524C99.8745 89.4524 99.5442 89.7829 99.5442 90.1906C99.5442 90.5983 99.8745 90.9287 100.282 90.9287Z" fill="#3F3D56"/>
<path opacity="0.1" d="M101.64 123.184C102.048 123.184 102.378 122.854 102.378 122.446C102.378 122.038 102.048 121.708 101.64 121.708C101.233 121.708 100.902 122.038 100.902 122.446C100.902 122.854 101.233 123.184 101.64 123.184Z" fill="black"/>
<path d="M101.64 122.881C102.048 122.881 102.378 122.55 102.378 122.143C102.378 121.735 102.048 121.405 101.64 121.405C101.233 121.405 100.902 121.735 100.902 122.143C100.902 122.55 101.233 122.881 101.64 122.881Z" fill="#3F3D56"/>
<path opacity="0.1" d="M101.017 107.207C101.425 107.207 101.755 106.876 101.755 106.469C101.755 106.061 101.425 105.73 101.017 105.73C100.61 105.73 100.279 106.061 100.279 106.469C100.279 106.876 100.61 107.207 101.017 107.207Z" fill="black"/>
<path d="M101.017 106.906C101.425 106.906 101.755 106.576 101.755 106.168C101.755 105.76 101.425 105.43 101.017 105.43C100.61 105.43 100.279 105.76 100.279 106.168C100.279 106.576 100.61 106.906 101.017 106.906Z" fill="#3F3D56"/>
<path d="M118.027 125.456C118.027 125.456 118.53 126.211 118.027 126.563C117.524 126.916 118.076 127.769 118.076 127.769C118.076 127.769 116.822 128.505 117.374 129.166C117.926 129.828 117.576 132.816 117.576 132.816L116.068 135.315C116.068 135.315 116.158 136.925 116.163 139.102C116.163 142.497 115.964 147.271 114.86 149.447L115.013 167.303C115.013 167.303 109.73 169.233 105.308 168.645L104.652 139.993C104.652 139.993 105.609 123.745 105.961 120.628C106.167 119.01 106.252 117.379 106.213 115.748C106.213 115.748 106.062 110.87 105.557 108.607C105.557 108.607 105.01 98.7999 104.955 96.085C104.931 94.7864 104.999 90.9971 105.076 87.3937C105.16 83.454 105.256 79.7385 105.256 79.7385L104.259 71.8428C104.259 71.8428 105.256 71.7416 105.557 72.1435C105.691 72.2693 105.838 72.382 105.994 72.4798C107.716 73.6445 113.799 77.226 113.799 77.226C113.799 77.226 117.166 78.5656 117.972 80.4849C118.779 82.4042 119.339 83.7657 119.73 84.3125C120.12 84.8593 120.334 87.4292 120.334 87.4292C120.334 87.4292 121.492 92.159 122.397 92.9601C123.302 93.7611 123.963 98.8573 123.963 98.8573L115.969 105.145C115.969 105.145 115.267 115.606 115.116 116.01C114.966 116.415 118.027 125.456 118.027 125.456Z" fill="white"/>
<path d="M118.33 125.456C118.33 125.456 118.831 126.211 118.33 126.563C117.83 126.916 118.377 127.769 118.377 127.769C118.377 127.769 117.131 128.513 117.677 129.174C118.224 129.836 117.879 132.824 117.879 132.824L116.371 135.323C116.371 135.323 116.461 136.933 116.469 139.11C116.469 142.505 116.27 147.279 115.166 149.455L115.316 167.311C115.316 167.311 110.025 169.241 105.609 168.653L104.955 140.001C104.955 140.001 105.912 123.753 106.264 120.636C106.471 119.018 106.554 117.387 106.513 115.756C106.513 115.756 106.363 110.879 105.86 108.615C105.86 108.615 105.313 98.808 105.256 96.0931C105.231 94.7945 105.302 91.0052 105.376 87.4018C105.461 83.4621 105.557 79.7466 105.557 79.7466L104.239 71.7443C104.239 71.7443 105.557 71.7443 105.86 72.1516C105.993 72.2789 106.14 72.3917 106.297 72.4879C108.019 73.6526 114.105 77.2341 114.105 77.2341C114.105 77.2341 117.47 78.5738 118.276 80.493C119.082 82.4123 119.642 83.7738 120.036 84.3206C120.429 84.8674 120.637 87.4373 120.637 87.4373C120.637 87.4373 121.796 92.1671 122.7 92.9682C123.605 93.7693 124.258 98.8545 124.258 98.8545L116.264 105.143C116.264 105.143 115.562 115.603 115.409 116.007C115.256 116.412 118.33 125.456 118.33 125.456Z" fill="white"/>
<path opacity="0.1" d="M108.757 82.0679L109.478 84.1731L105.68 88.0007C105.764 84.0637 105.86 80.3455 105.86 80.3455L104.543 72.3431C104.543 72.3431 105.86 72.3431 106.163 72.7505C106.296 72.8775 106.443 72.9893 106.601 73.084L109.831 82.4069L108.757 82.0679Z" fill="black"/>
<path d="M108.454 81.4636L109.178 83.5687L105.379 87.3963C105.464 83.4566 105.559 79.7412 105.559 79.7412L104.239 71.7388C104.239 71.7388 105.559 71.7388 105.86 72.1461C105.994 72.2727 106.141 72.3854 106.297 72.4824L109.53 81.8026L108.454 81.4636Z" fill="white"/>
<path opacity="0.1" d="M108.454 60.6334C108.456 61.6186 108.301 62.5979 107.994 63.5342C107.943 63.5422 107.89 63.5399 107.839 63.5272C107.789 63.5145 107.741 63.4918 107.699 63.4604C107.628 60.9998 106.417 58.6896 104.928 56.7238C104.51 56.1303 104.003 55.6047 103.425 55.1654C102.841 54.7264 102.114 54.5208 101.386 54.5886C100.566 54.7007 99.842 55.2584 99.014 55.3295C97.9208 55.4197 96.9424 54.6624 95.8574 54.6241C95.4164 54.6283 94.9812 54.7266 94.5811 54.9123C94.181 55.0981 93.8251 55.367 93.5372 55.7013C92.9672 56.3759 92.5437 57.1617 92.2937 58.0088C91.864 59.2933 91.63 60.6353 91.5995 61.9895C91.5858 62.755 91.5121 63.7146 90.8015 63.9935C90.855 63.4305 90.791 62.8625 90.6137 62.3256C90.4363 61.7886 90.1494 61.2943 89.7712 60.874L89.7548 60.8576C89.7548 60.7811 89.7548 60.71 89.7548 60.6334C89.7336 59.3915 89.9597 58.1579 90.4201 57.0043C90.8805 55.8508 91.5659 54.8006 92.4363 53.9148C93.3067 53.0291 94.3447 52.3256 95.4897 51.8453C96.6348 51.3651 97.8639 51.1178 99.1055 51.1178C100.347 51.1178 101.576 51.3651 102.721 51.8453C103.866 52.3256 104.904 53.0291 105.775 53.9148C106.645 54.8006 107.331 55.8508 107.791 57.0043C108.251 58.1579 108.477 59.3915 108.456 60.6334H108.454Z" fill="black"/>
<path d="M102.977 45.7797C101.557 45.1114 99.9414 44.985 98.4347 45.4242C97.6776 45.6484 96.9643 46.012 96.1964 46.1952C94.5566 46.5916 92.6436 46.1624 91.2361 47.122C90.4545 47.6688 89.9844 48.5328 89.5472 49.3721L88.454 51.4554C87.8582 52.5955 87.257 53.7547 87.0083 55.0096C86.7596 56.2645 86.9099 57.6698 87.7052 58.6786C88.2846 59.414 89.14 59.8761 89.7685 60.5678C90.1451 60.9885 90.4308 61.4825 90.6076 62.0188C90.7844 62.5552 90.8486 63.1222 90.7961 63.6845C91.5094 63.4111 91.5777 62.4488 91.5941 61.6832C91.6246 60.329 91.8586 58.9871 92.2883 57.7026C92.5377 56.8552 92.9613 56.0693 93.5318 55.3951C93.82 55.0611 94.1759 54.7923 94.576 54.6066C94.976 54.4208 95.411 54.3224 95.8521 54.3179C96.9452 54.3562 97.9263 55.1107 99.0086 55.0205C99.8285 54.9522 100.555 54.3917 101.381 54.2823C102.108 54.2135 102.836 54.4192 103.42 54.8592C103.997 55.2978 104.503 55.8235 104.92 56.4176C106.412 58.3833 107.623 60.6881 107.694 63.1541C108.003 63.3811 108.448 63.0858 108.601 62.7358C108.754 62.3859 108.76 61.9758 108.954 61.6422C109.178 61.2567 109.607 61.0517 109.943 60.7619C110.796 60.0265 111.009 58.788 110.976 57.6643C110.943 56.5406 110.725 55.4005 110.938 54.296C111.066 53.618 111.356 52.9837 111.514 52.3139C111.673 51.6441 111.692 50.8922 111.318 50.3153C110.771 49.4678 109.621 49.301 108.618 49.2217C107.478 49.1233 106.459 49.2491 105.732 48.2894C105.39 47.7887 105.006 47.3185 104.584 46.8842C104.439 46.742 102.977 45.8398 102.977 45.7797Z" fill="#512E4E"/>
<path opacity="0.1" d="M73.2725 103.434L70.4166 98.1519L69.512 106.302C69.512 106.302 70.0148 109.922 69.9137 110.477C69.8126 111.032 71.9743 116.008 71.9743 116.008C71.9743 116.008 79.1155 128.731 82.0315 129.388L91.8837 122.345L89.2711 119.026C89.2711 119.026 88.3665 118.673 88.1396 119.026C88.1396 119.026 83.2887 110.676 82.7858 110.072C82.283 109.468 82.3813 108.262 82.3813 108.262C82.3813 108.262 81.6271 107.458 81.8785 106.704C82.1299 105.949 80.4218 103.333 80.4218 103.333L81.9796 101.876L73.2725 103.434Z" fill="black"/>
<path d="M70.567 97.5504L69.8127 98.1519L68.9081 106.302C68.9081 106.302 69.4109 109.922 69.3098 110.477C69.2087 111.032 71.3732 116.008 71.3732 116.008C71.3732 116.008 78.5116 128.732 81.4276 129.388L91.2826 122.345L88.6672 119.026C88.6672 119.026 87.7626 118.673 87.5358 119.026C87.5358 119.026 82.6848 110.676 82.1819 110.072C81.6791 109.468 81.7802 108.262 81.7802 108.262C81.7802 108.262 81.0259 107.458 81.2773 106.704C81.5288 105.949 79.818 103.333 79.818 103.333L81.3757 101.876L70.567 97.5504Z" fill="white"/>
<path opacity="0.1" d="M117.374 129.478C117.92 130.142 117.576 133.125 117.576 133.125L116.068 135.624C116.068 135.624 116.158 137.237 116.163 139.41L113.627 140.203C113.398 140.275 113.155 140.291 112.918 140.249C112.682 140.208 112.459 140.11 112.267 139.965C112.076 139.82 111.922 139.631 111.819 139.414C111.716 139.197 111.666 138.959 111.673 138.719L112.11 124.609L118.027 126.872C117.524 127.222 118.076 128.081 118.076 128.081C118.076 128.081 116.822 128.814 117.374 129.478Z" fill="black"/>
<path d="M117.677 129.174C118.224 129.839 117.879 132.824 117.879 132.824L116.371 135.323C116.371 135.323 116.461 136.933 116.469 139.11L113.887 139.916C113.662 139.986 113.424 140.001 113.193 139.96C112.961 139.92 112.743 139.824 112.556 139.682C112.369 139.539 112.218 139.355 112.117 139.142C112.016 138.93 111.966 138.697 111.974 138.462L112.414 124.308L118.333 126.572C117.828 126.922 118.38 127.777 118.38 127.777C118.38 127.777 117.131 128.513 117.677 129.174Z" fill="white"/>
<path d="M119.637 122.449C119.637 122.449 119.235 125.016 118.229 125.166C117.224 125.317 116.773 129.319 115.77 129.177C114.767 129.035 115.431 125.456 115.466 124.762C115.502 124.067 114.373 121.191 115.218 120.538C116.062 119.884 118.735 120.538 118.735 120.538L119.637 122.449Z" fill="#FFB0B1"/>
<path opacity="0.1" d="M121.777 102.679L123.673 98.8518C123.673 98.8518 124.428 101.769 124.428 103.327C124.428 104.886 125.482 105.039 125.482 105.039C125.482 105.039 126.639 106.406 126.029 107.401C125.42 108.396 125.174 110.873 125.174 110.873C125.174 110.873 125.373 115.6 124.469 116.254C123.564 116.907 123.375 118.468 123.375 118.468C123.375 118.468 121.714 121.435 121.766 122.14C121.818 122.845 119.454 127.622 119.454 127.622C119.454 127.622 120.61 121.686 113.873 119.122C113.873 119.122 113.821 117.107 114.324 116.554C114.827 116.002 115.611 115.751 115.119 112.959C114.627 110.168 114.977 106.832 114.977 106.162C114.977 105.493 116.486 101.315 116.486 101.315L121.777 102.679Z" fill="black"/>
<path d="M122.597 98.3051L124.253 98.8519C124.253 98.8519 125.01 101.769 125.01 103.327C125.01 104.886 126.065 105.039 126.065 105.039C126.065 105.039 127.221 106.406 126.611 107.401C126.002 108.396 125.759 110.873 125.759 110.873C125.759 110.873 125.958 115.6 125.053 116.254C124.149 116.907 123.947 118.468 123.947 118.468C123.947 118.468 122.288 121.435 122.34 122.14C122.392 122.845 120.025 127.622 120.025 127.622C120.025 127.622 121.184 121.686 114.444 119.122C114.444 119.122 114.395 117.107 114.898 116.554C115.401 116.002 116.185 115.751 115.693 112.959C115.201 110.168 115.551 106.832 115.551 106.163C115.551 105.493 117.06 101.315 117.06 101.315L122.597 98.3051Z" fill="white"/>
<path opacity="0.1" d="M86.0161 197.513C86.0161 197.513 88.6561 195.854 90.3888 197.059C92.1215 198.265 86.0161 197.513 86.0161 197.513Z" fill="black"/>
<path opacity="0.1" d="M106.53 192.381C106.53 192.381 108.866 192.081 110.828 194.194C112.791 196.307 106.53 192.381 106.53 192.381Z" fill="black"/>
<g opacity="0.1">
<path d="M109.948 60.1632C109.612 60.453 109.181 60.6607 108.956 61.0462C108.765 61.377 108.76 61.7844 108.607 62.1398C108.454 62.4952 108.008 62.7851 107.699 62.5609C107.628 60.1003 106.415 57.7901 104.925 55.8216C104.509 55.2275 104.003 54.7018 103.425 54.2632C102.84 53.8233 102.112 53.6176 101.383 53.6863C100.564 53.7984 99.8421 54.3562 99.014 54.4245C97.9208 54.5175 96.9397 53.7602 95.8547 53.7219C95.4138 53.7263 94.9789 53.8249 94.5792 54.0112C94.1795 54.1974 93.8243 54.467 93.5372 54.8018C92.9667 55.475 92.5431 56.26 92.2937 57.1066C91.8643 58.3912 91.6303 59.733 91.5996 61.0872C91.5832 61.85 91.5121 62.8015 90.807 63.0858C90.8234 63.2878 90.8234 63.4907 90.807 63.6927C91.5176 63.4193 91.5886 62.457 91.605 61.6915C91.6355 60.3372 91.8695 58.9953 92.2992 57.7108C92.5486 56.8634 92.9722 56.0775 93.5427 55.4033C93.8303 55.0694 94.1858 54.8006 94.5854 54.6148C94.985 54.4291 95.4196 54.3307 95.8602 54.3261C96.9534 54.3644 97.9372 55.119 99.0195 55.0287C99.8394 54.9604 100.566 54.3999 101.389 54.2906C102.117 54.2218 102.845 54.4275 103.43 54.8674C104.008 55.306 104.514 55.8317 104.931 56.4258C106.42 58.3915 107.634 60.6963 107.705 63.1623C108.014 63.3893 108.459 63.094 108.612 62.744C108.765 62.3941 108.771 61.984 108.962 61.6504C109.186 61.265 109.618 61.0599 109.954 60.7701C110.807 60.0347 111.02 58.7962 110.987 57.6725C110.987 57.637 110.987 57.6014 110.987 57.5686C110.935 58.5419 110.675 59.5343 109.948 60.1632Z" fill="black"/>
<path d="M89.7739 59.969C89.1454 59.2773 88.2872 58.8152 87.7106 58.0825C87.225 57.4339 86.9477 56.6531 86.9153 55.8434C86.8293 56.8552 87.1117 57.864 87.7106 58.684C88.2872 59.4194 89.1454 59.8815 89.7739 60.5732C90.3774 61.2498 90.7398 62.1074 90.8043 63.0119C90.8461 62.4614 90.7764 61.9082 90.5994 61.3853C90.4223 60.8624 90.1416 60.3807 89.7739 59.969Z" fill="black"/>
<path d="M111.52 51.7152C111.359 52.385 111.072 53.022 110.94 53.6973C110.863 54.1485 110.834 54.6069 110.856 55.0643C110.865 54.8037 110.893 54.5442 110.94 54.2878C111.072 53.6098 111.359 52.9755 111.52 52.3057C111.614 51.9362 111.644 51.5535 111.61 51.1738C111.593 51.3562 111.563 51.5371 111.52 51.7152Z" fill="black"/>
</g>
<path opacity="0.1" d="M36.7742 208.63C51.4814 208.63 63.4039 206.714 63.4039 204.351C63.4039 201.988 51.4814 200.072 36.7742 200.072C22.067 200.072 10.1445 201.988 10.1445 204.351C10.1445 206.714 22.067 208.63 36.7742 208.63Z" fill="#411E75"/>
<path d="M37.6324 122.386H35.9188V160.982H37.6324V122.386Z" fill="#535461"/>
<path d="M48.4001 160.864L48.2935 162.603L48.1405 165.063L48.0776 166.086L47.9273 168.547L47.8617 169.569L47.7087 172.03L45.9815 199.935C45.9064 201.136 45.3768 202.263 44.5005 203.087C43.6242 203.911 42.467 204.37 41.2644 204.37H32.284C31.0818 204.369 29.9249 203.911 29.049 203.087C28.1731 202.263 27.6441 201.136 27.5697 199.935L25.8507 172.011L25.6977 169.55L25.6348 168.527L25.4818 166.067L25.4189 165.044L25.2659 162.584L25.1565 160.845C25.1376 160.51 25.1871 160.175 25.3022 159.86C25.4173 159.546 25.5954 159.258 25.8258 159.014C26.0561 158.771 26.3337 158.577 26.6416 158.445C26.9495 158.312 27.2811 158.244 27.6162 158.245H45.9842C46.318 158.248 46.6477 158.319 46.9529 158.454C47.2581 158.59 47.5324 158.786 47.7588 159.031C47.9851 159.277 48.1588 159.566 48.2692 159.881C48.3795 160.196 48.424 160.531 48.4001 160.864Z" fill="#3F3D56"/>
<path d="M48.2935 162.603L48.1405 165.055H25.4079L25.2549 162.603H48.2935Z" fill="#9D9CB5"/>
<path d="M48.0776 166.078L47.9273 168.533H25.6239L25.4708 166.078H48.0776Z" fill="#9D9CB5"/>
<path d="M47.8617 169.558L47.7114 172.01H25.8397L25.6866 169.558H47.8617Z" fill="#9D9CB5"/>
<path d="M22.6395 136.852C32.6174 144.075 36.7824 155.372 36.7824 155.372C36.7824 155.372 24.7575 154.959 14.7769 147.736C4.7962 140.512 0.639404 129.218 0.639404 129.218C0.639404 129.218 12.6588 129.628 22.6395 136.852Z" fill="#411E75"/>
<path d="M0.631226 129.218C0.631226 129.218 13.1153 136.149 17.119 141.888C21.1228 147.626 36.7825 155.372 36.7825 155.372" stroke="#535461" stroke-width="0.772823" stroke-miterlimit="10"/>
<path d="M29.0811 122.301C34.5114 126.23 36.7825 132.379 36.7825 132.379C36.7825 132.379 30.2371 132.154 24.804 128.226C19.3709 124.297 17.1053 118.146 17.1053 118.146C17.1053 118.146 23.648 118.37 29.0811 122.301Z" fill="#411E75"/>
<path d="M17.1053 118.146C17.1053 118.146 23.8994 121.918 26.0776 125.041C28.2557 128.163 36.7825 132.379 36.7825 132.379" stroke="#535461" stroke-width="0.772823" stroke-miterlimit="10"/>
<path d="M44.667 132.067C38.4277 138.927 37.1077 147.891 37.1077 147.891C37.1077 147.891 45.905 145.732 52.1388 138.869C58.3726 132.007 59.6981 123.045 59.6981 123.045C59.6981 123.045 50.9062 125.208 44.667 132.067Z" fill="#411E75"/>
<path d="M59.7036 123.048C59.7036 123.048 51.5758 130.079 49.5097 134.924C47.4436 139.769 37.1077 147.891 37.1077 147.891" stroke="#535461" stroke-width="0.772823" stroke-miterlimit="10"/>
<path d="M273.703 129.653C273.703 129.653 269.191 107.196 270.918 104.402C270.918 104.402 270.981 101.804 270.877 98.4936C270.877 98.3679 270.877 98.2421 270.877 98.1136C271.181 98.3163 271.498 98.4989 271.826 98.6604C273.417 99.4783 275.244 99.7143 276.991 99.3275L275.624 97.8047C275.296 97.441 274.955 97.0474 274.884 96.5662C274.813 96.085 275.009 95.6558 275.179 95.2265C276.477 91.9457 276.545 87.8202 274.045 85.3158C271.932 83.2107 271.418 80.4931 269.125 78.5711C267.45 77.1631 266.529 75.0989 265.66 73.1031C264.925 71.4162 264.184 69.7157 263.763 67.9277C263.435 66.5306 263.304 65.0843 262.853 63.7201C262.402 62.3558 261.558 61.0298 260.238 60.4201C259.768 60.2042 259.246 60.0811 258.817 59.7941C258.254 59.414 257.915 58.7962 257.508 58.2548C255.439 55.5208 248.511 57.1312 245.231 58.2412C244.34 58.5207 243.514 58.9783 242.805 59.5863L242.835 59.5371C242.859 59.4961 242.889 59.455 242.917 59.414C242.558 59.7044 242.248 60.0506 241.998 60.4393C241.52 61.1966 241.321 62.0797 240.922 62.8999C240.441 63.8704 237.765 66.5798 238.916 67.6707C238.996 67.7439 239.089 67.8031 239.189 67.8457C239.621 68.0255 240.096 68.0731 240.555 67.9824L240.506 68.0999C240.113 69.0624 239.912 70.0923 239.913 71.1319C239.913 75.6238 243.616 79.2655 248.188 79.2655C249.048 79.2663 249.902 79.1345 250.722 78.8745C250.741 78.9784 250.757 79.0823 250.776 79.1862C250.776 79.2272 250.79 79.2682 250.796 79.3093L250.651 79.5116C250.644 79.4991 250.635 79.4872 250.626 79.476L246.335 85.4744C245.68 85.9364 241.903 88.6704 241.689 90.7209C241.465 92.9655 241.241 95.5929 241.241 95.5929L241.211 96.1561C241.024 96.3128 240.804 96.427 240.568 96.4907C240.333 96.5545 240.086 96.5662 239.845 96.5252C238.506 96.3064 238.506 101.446 238.506 101.446C238.506 101.446 237.615 102.267 237.003 101.556C236.39 100.845 234.772 103.254 234.772 103.254L224.633 103.691L224.401 103.705L223.854 102.012C223.796 101.834 223.669 101.686 223.501 101.6C223.334 101.515 223.14 101.499 222.961 101.556C222.918 101.57 222.877 101.587 222.838 101.608L222.799 101.63L222.728 101.679L222.693 101.712C222.673 101.729 222.655 101.749 222.638 101.769L222.605 101.807L222.589 101.824C222.526 101.911 222.484 102.012 222.467 102.118C222.45 102.224 222.458 102.333 222.491 102.436L222.961 103.888C221.004 104.281 219.003 105.391 220.635 108.448L212.365 106.92L215.041 109.167L228.853 112.019C228.67 112.347 228.79 112.822 229.361 113.492C231.821 116.382 236.303 117.167 238.107 117.369C238.583 118.435 239.178 119.444 239.88 120.376L239.725 123.255C239.725 123.255 235.158 145.198 234.322 146.311C234.744 145.833 235.13 145.324 235.478 144.788C234.152 149.297 232.299 155.467 231.813 156.391C231.031 157.868 230.307 163.841 231.198 164.224C231.471 164.342 232.253 164.284 233.368 164.2V164.694L233.319 183.447C233.319 183.447 233.543 194.949 232.928 196.045C232.313 197.141 232.149 199.441 232.149 199.441C232.149 199.441 229.689 203.976 227.741 205.8C227.727 205.814 227.713 205.827 227.697 205.838L227.637 205.412C227.637 205.412 225.295 208.37 220.113 208.203C220.113 208.203 216.995 210.232 221.619 210.341C226.243 210.45 232.149 210.177 232.149 210.177C232.149 210.177 236.273 203.889 239.727 204.709V209.474H240.785V204.632C241.275 204.309 241.695 203.89 242.019 203.4C242.343 202.91 242.563 202.359 242.668 201.781C242.758 201.185 242.692 200.576 242.475 200.013C242.259 199.451 241.899 198.955 241.433 198.574C241.223 198.384 241.055 198.153 240.938 197.895C240.822 197.638 240.761 197.359 240.758 197.076L240.719 197.109C240.719 197.013 240.695 196.914 240.684 196.813C240.38 194.353 240.001 189.276 241.342 185.519C243.182 180.368 243.739 173.194 242.4 168.924C241.968 167.559 241.613 166.17 241.337 164.765C241.304 164.588 241.274 164.418 241.247 164.26C242.162 164.384 243.069 164.566 243.961 164.806C247.062 165.662 253.848 165.821 259.642 165.774C259.656 165.933 259.672 166.1 259.691 166.266C259.795 167.426 260.011 168.572 260.336 169.689C261.063 171.877 261.397 181.519 261.397 181.519C261.397 181.519 262.334 189.448 261.823 192.674C261.55 194.467 261.276 196.269 261.121 198.079V198.115C261.121 198.115 259.585 202.489 258.461 204.865C258.434 204.925 258.404 204.985 258.377 205.043C258.077 205.07 257.783 205.135 257.5 205.237C257.5 205.237 255.994 208.244 254.493 208.742C252.993 209.239 253.49 210.877 256.887 210.275C260.284 209.674 265.414 209.182 265.414 209.182L265.635 206.114L266.679 204.807L266.406 207.867L267.518 207.648L267.371 203.927L269.079 201.789C269.079 201.789 271.142 199.952 268.076 196.338V196.417C268.043 196.365 268.013 196.31 267.978 196.258V196.242C267.469 195.454 267.065 193.986 267.805 191.381C269.145 186.673 269.923 182.4 269.923 182.4C269.923 182.4 272.913 170.952 269.319 165.536H269.478C269.11 164.774 268.849 163.965 268.705 163.131C268.686 163.032 268.67 162.931 268.655 162.827C271.314 162.674 273.924 162.193 276.053 161.154C276.045 161.143 274.763 133.978 273.703 129.653ZM239.943 110.706V110.761L239.397 110.788L239.943 110.706ZM238.068 110.966C237.978 110.986 237.894 111.026 237.822 111.084C237.587 111.416 237.44 111.803 237.393 112.207L236.541 112.016C236.541 112.016 235.942 111.887 235.081 111.743L234.674 111.332C235.795 111.239 236.959 111.103 238.068 110.966Z" fill="url(#paint1_linear_761_1535)"/>
<path d="M266.28 203.965L265.955 207.839L267.046 207.621L266.882 203.418L266.28 203.965Z" fill="#B23C97"/>
<path d="M241.403 185.571C240.088 189.317 240.46 194.372 240.755 196.827C240.864 197.735 240.965 198.287 240.965 198.287C240.965 198.287 239 202.765 238.836 202.935C238.672 203.104 233.053 206.535 233.053 206.535L229.126 208.829C229.126 208.829 225.142 207.082 227.052 206.481C227.442 206.324 227.794 206.084 228.082 205.778C229.995 203.96 232.398 199.441 232.398 199.441C232.398 199.441 232.562 197.147 233.163 196.056C233.764 194.965 233.545 183.501 233.545 183.501L233.592 164.815V162.379L241.066 162.433C241.114 163.26 241.221 164.083 241.389 164.894C241.657 166.294 242.005 167.678 242.43 169.039C243.747 173.301 243.201 180.439 241.403 185.571Z" fill="#FFB0B1"/>
<path opacity="0.1" d="M240.965 198.287C240.965 198.287 239 202.765 238.836 202.935C238.672 203.104 233.053 206.535 233.053 206.535L229.126 208.829C229.126 208.829 225.142 207.082 227.052 206.481C227.442 206.324 227.794 206.084 228.082 205.778L228.252 206.973L229.561 206.918L240.766 196.832C240.864 197.734 240.965 198.287 240.965 198.287Z" fill="black"/>
<path d="M240.829 197.087L229.561 207.241L228.252 207.295L227.978 205.382C227.978 205.382 225.688 208.329 220.6 208.165C220.6 208.165 217.544 210.185 222.073 210.295C226.601 210.404 232.384 210.131 232.384 210.131C232.384 210.131 236.423 203.842 239.804 204.663V209.411H240.842V204.619C241.325 204.294 241.737 203.874 242.054 203.385C242.37 202.897 242.585 202.349 242.684 201.775C242.774 201.184 242.711 200.58 242.5 200.021C242.288 199.462 241.937 198.966 241.479 198.582C241.275 198.39 241.111 198.159 241 197.902C240.888 197.644 240.83 197.367 240.829 197.087Z" fill="#411E75"/>
<path d="M267.319 191.411C266.592 194.008 266.988 195.471 267.486 196.256V196.272C268.124 197.241 268.567 198.324 268.792 199.462L268.836 199.709L263.709 207.186L260.927 208.28C260.927 208.28 256.453 206.751 257.27 206.314C257.475 206.207 257.795 205.639 258.161 204.854C259.254 202.489 260.763 198.126 260.763 198.126V198.09C260.921 196.288 261.173 194.492 261.451 192.704C261.952 189.486 261.033 181.588 261.033 181.588C261.033 181.588 260.705 171.983 259.995 169.799C259.674 168.688 259.461 167.549 259.358 166.398C259.21 165.031 259.178 163.904 259.178 163.904C259.178 163.904 262.124 159.803 267.524 164.232C267.956 164.586 268.336 164.998 268.653 165.457C272.383 170.767 269.38 182.463 269.38 182.463C269.38 182.463 268.628 186.717 267.319 191.411Z" fill="#FFB0B1"/>
<path opacity="0.1" d="M268.844 199.709L263.717 207.186L260.935 208.28C260.935 208.28 256.461 206.751 257.278 206.314C257.483 206.207 257.803 205.639 258.169 204.854C260.063 204.838 261.044 206.642 261.044 206.642L263.444 206.259C263.444 206.259 266.608 200.037 267.319 199.657C268.03 199.277 267.428 196.816 267.428 196.816V196.19C267.447 196.212 267.464 196.236 267.486 196.258V196.275C268.124 197.244 268.567 198.327 268.792 199.465L268.844 199.709Z" fill="black"/>
<path d="M261.208 206.803C261.208 206.803 259.842 204.293 257.224 205.22C257.224 205.22 255.751 208.228 254.277 208.714C252.804 209.201 253.296 210.841 256.625 210.243C259.954 209.644 264.971 209.149 264.971 209.149L265.19 206.09L268.573 201.778C268.573 201.778 270.59 199.949 267.59 196.348V196.974C267.59 196.974 268.191 199.435 267.48 199.815C266.77 200.195 263.616 206.42 263.616 206.42L261.208 206.803Z" fill="#411E75"/>
<path opacity="0.1" d="M241.075 162.428C241.122 163.255 241.229 164.077 241.397 164.889C238.32 164.437 235.464 164.662 233.592 164.809V162.373L241.075 162.428Z" fill="black"/>
<path opacity="0.1" d="M268.956 166.138C268.956 166.138 264.583 166.351 259.369 166.395C259.221 165.028 259.188 163.902 259.188 163.902C259.188 163.902 262.135 159.801 267.535 164.23C267.967 164.583 268.347 164.995 268.664 165.454C268.748 165.688 268.846 165.916 268.956 166.138Z" fill="black"/>
<path d="M268.956 165.646C268.956 165.646 249.804 166.573 243.966 164.935C238.128 163.297 232.343 164.716 231.471 164.336C230.599 163.956 231.307 158.004 232.072 156.531C232.838 155.057 237.035 140.154 237.035 140.154L241.075 119.086L245.33 117.913L245.63 117.828L253.045 115.783L258.478 114.282C258.478 114.282 269.281 156.476 268.355 159.587C268.018 160.779 267.964 162.032 268.196 163.248C268.338 164.079 268.593 164.885 268.956 165.646Z" fill="#B23C97"/>
<path d="M226.994 104.678C226.994 104.678 223.168 108.779 226.065 111.065C228.962 113.35 230.867 111.283 230.867 111.283L226.994 104.678Z" fill="#C7DAF5"/>
<path opacity="0.1" d="M226.994 104.678C226.994 104.678 223.168 108.779 226.065 111.065C228.962 113.35 230.867 111.283 230.867 111.283L226.994 104.678Z" fill="black"/>
<path d="M257.907 77.7153C257.907 77.7153 257.458 78.1418 256.783 78.7707C255.821 79.6701 254.398 80.9852 253.135 82.087C251.386 83.6098 249.943 84.728 250.459 83.7739C250.976 82.8197 250.878 81.1574 250.621 79.6018C250.602 79.4979 250.585 79.394 250.566 79.2928C250.353 78.1504 250.071 77.0219 249.722 75.9136C249.722 75.9136 252.547 72.261 254.111 70.8202C254.693 70.2734 255.1 70.0492 255.125 70.4293C255.152 70.9405 255.535 72.0697 256.01 73.2671C256.024 73.3054 256.037 73.341 256.054 73.3792C256.371 74.1994 256.729 75.0415 257.043 75.7687C257.524 76.8842 257.907 77.7153 257.907 77.7153Z" fill="#FFB0B1"/>
<path opacity="0.1" d="M256.054 73.3793C255.788 74.8082 255.144 76.1395 254.188 77.2341C253.232 78.3287 252 79.1465 250.621 79.6019C250.403 78.3538 250.103 77.1217 249.722 75.9137C249.722 75.9137 255.043 69.0378 255.125 70.4294C255.144 70.957 255.559 72.1272 256.054 73.3793Z" fill="black"/>
<path opacity="0.1" d="M250.09 81.4391L250.779 80.4685C250.779 80.4685 251.236 83.2517 252.914 82.0241C254.592 80.7966 254.674 91.2623 254.674 91.2623L252.873 118.2L239.858 117.421L240.227 104.405L241.7 97.843L245.343 88.3041L247.511 85.1518L250.09 81.4391Z" fill="black"/>
<path d="M254.674 91.429L253.034 115.786L252.862 118.367L245.606 117.932L245.332 117.916L239.867 117.588L240.236 104.569L241.709 98.007L245.352 88.4681L247.519 85.3158L250.099 81.5894L250.787 80.6216C250.787 80.6216 251.244 83.4048 252.922 82.1772L252.957 82.1526C254.597 81.1137 254.674 91.429 254.674 91.429Z" fill="#B23C97"/>
<path d="M241.892 95.7268C241.892 95.7268 241.239 97.0938 239.927 96.8723C238.615 96.6509 238.618 101.794 238.618 101.794C238.618 101.794 237.746 102.614 237.145 101.903C236.543 101.192 234.958 103.595 234.958 103.595L225.027 104.033C225.027 104.033 229.446 106.053 228.58 112.166C228.58 112.166 243.583 111.237 244.075 109.818C244.567 108.399 241.892 95.7268 241.892 95.7268Z" fill="white"/>
<path opacity="0.03" d="M241.892 95.7268C241.892 95.7268 241.239 97.0938 239.927 96.8723C238.615 96.6509 238.618 101.794 238.618 101.794C238.618 101.794 237.746 102.614 237.145 101.903C236.543 101.192 234.958 103.595 234.958 103.595L225.027 104.033C225.027 104.033 229.446 106.053 228.58 112.166C228.58 112.166 243.583 111.237 244.075 109.818C244.567 108.399 241.892 95.7268 241.892 95.7268Z" fill="black"/>
<path d="M213.029 107.245L215.647 109.482L237.199 114.012L234.526 111.283L213.029 107.245Z" fill="white"/>
<path d="M250.132 82.3002C249.774 82.847 248.749 85.6466 247.893 88.0908C247.18 90.1276 246.584 91.9183 246.584 91.9183C246.584 91.9183 245.193 100.979 244.483 102.616C243.772 104.254 244.157 110.641 244.157 110.641L241.509 126.413C241.509 126.413 240.309 134.547 238.457 139.405C236.628 144.187 234.592 146.429 234.529 146.5C235.349 145.39 239.818 123.534 239.818 123.534L241.293 95.9701C241.293 95.9701 241.509 93.3509 241.728 91.1118C241.946 88.8727 246.374 85.8161 246.374 85.8161L250.643 79.7439C251.072 80.318 250.785 81.3187 250.132 82.3002Z" fill="white"/>
<path d="M239 117.725C239 117.725 232.715 117.451 229.67 113.793C226.626 110.135 236.707 112.333 236.707 112.333L239.328 112.935L239 117.725Z" fill="#FFB0B1"/>
<path opacity="0.1" d="M268.355 159.59C268.018 160.781 267.964 162.035 268.196 163.251C261.339 163.737 254.004 161.884 254.004 161.884C252.638 163.141 249.038 164.995 249.038 164.995L247.076 140.663C245.822 137.382 245.33 120.193 245.33 120.193C245.33 120.193 245.442 119.294 245.603 117.946C245.603 117.913 245.603 117.878 245.617 117.845C246.106 114.08 247.076 107.013 247.552 106.059C248.208 104.746 245.535 101.255 245.535 101.255L246.751 90.8794L246.899 89.6273C249.462 88.4817 251.427 84.8237 251.427 84.8237L252.936 82.1799C254.575 81.1273 254.66 91.4426 254.66 91.4426L253.02 115.8L258.453 114.299C258.453 114.299 269.281 156.479 268.355 159.59Z" fill="black"/>
<path d="M275.392 161.271C267.917 164.984 254.332 161.545 254.332 161.545C252.966 162.802 249.366 164.656 249.366 164.656L247.401 140.324C246.15 137.043 245.658 119.854 245.658 119.854C245.658 119.854 247.237 107.029 247.893 105.72C248.085 105.337 247.992 104.768 247.765 104.156C246.65 101.241 246.239 98.1033 246.568 94.9996L247.093 90.5404L247.237 89.291C249.804 88.1427 251.769 84.4846 251.769 84.4846L253.135 82.0897L255.649 77.677L256.841 75.5883L257.043 75.7714L258.587 77.1712C258.587 77.1712 259.243 77.718 260.227 78.5382C262.367 80.3427 266.065 83.5195 267.972 85.4634C269.65 87.1749 270.18 93.8321 270.333 98.8435C270.434 102.143 270.374 104.73 270.374 104.73C268.683 107.516 273.107 129.882 273.107 129.882C274.138 134.205 275.392 161.271 275.392 161.271Z" fill="white"/>
<path opacity="0.03" d="M261.044 84.4301C261.044 84.4301 255.914 94.1986 256.51 97.9113C257.106 101.624 258.8 105.826 257.983 106.808C257.703 107.18 257.34 107.481 256.923 107.69C256.506 107.898 256.047 108.007 255.581 108.008C254.761 108.063 252.575 109.591 252.575 109.755C252.575 109.919 250.555 109.919 248.749 110.685C246.942 111.45 244.275 111.885 244.275 111.885C244.275 111.885 239.082 111.721 238.599 112.213C238.115 112.705 237.617 115.649 238.653 117.998C239.689 120.346 240.84 122.099 241.709 122.419C242.578 122.739 248.093 120.89 252.567 120.453C257.04 120.016 261.897 116.47 261.897 116.47C261.897 116.47 267.245 114.556 268.183 111.338C269.12 108.12 267.038 90.4339 267.038 90.4339C267.038 90.4339 265.463 82.1909 261.044 84.4301Z" fill="black"/>
<path opacity="0.03" d="M260.388 83.6098C260.388 83.6098 255.259 93.3811 255.86 97.0911C256.461 100.801 258.15 105.006 257.33 105.99C257.05 106.363 256.688 106.665 256.272 106.873C255.855 107.081 255.396 107.19 254.931 107.19C254.111 107.245 251.924 108.773 251.924 108.937C251.924 109.102 249.905 109.102 248.098 109.864C246.292 110.627 243.624 111.065 243.624 111.065C243.624 111.065 238.432 110.9 237.951 111.393C237.47 111.885 236.967 114.832 238.006 117.178C239.044 119.523 240.192 121.279 241.061 121.599C241.93 121.918 247.445 120.07 251.919 119.636C256.393 119.201 261.249 115.649 261.249 115.649C261.249 115.649 266.595 113.736 267.521 110.52C268.448 107.305 266.376 89.6137 266.376 89.6137C266.376 89.6137 264.807 81.3734 260.388 83.6098Z" fill="black"/>
<path d="M260.883 83.9379C260.883 83.9379 255.753 93.7091 256.354 97.4191C256.956 101.129 258.645 105.334 257.828 106.316C257.548 106.689 257.185 106.992 256.768 107.2C256.351 107.409 255.892 107.518 255.425 107.518C254.605 107.573 252.419 109.101 252.419 109.263C252.419 109.424 250.402 109.427 248.593 110.192C246.784 110.958 244.119 111.393 244.119 111.393C244.119 111.393 238.927 111.229 238.443 111.721C237.959 112.213 237.462 115.16 238.497 117.506C239.533 119.851 240.684 121.607 241.553 121.927C242.422 122.246 247.937 120.398 252.411 119.961C256.885 119.523 261.741 115.977 261.741 115.977C261.741 115.977 267.089 114.064 268.027 110.846C268.964 107.628 266.895 89.9417 266.895 89.9417C266.895 89.9417 265.299 81.7124 260.883 83.9379Z" fill="white"/>
<path opacity="0.1" d="M260.771 110.146C260.771 110.146 256.671 109.326 258.098 110.693C259.525 112.06 259.516 113.257 261.263 113.202C263.009 113.148 260.771 110.146 260.771 110.146Z" fill="black"/>
<path opacity="0.1" d="M267.699 139.558C267.699 139.558 265.846 140.813 269.39 143.706C272.935 146.598 267.699 139.558 267.699 139.558Z" fill="black"/>
<path opacity="0.1" d="M264.162 149.874C264.162 150.038 263.506 155.888 265.961 157.351C268.415 158.814 264.162 149.874 264.162 149.874Z" fill="black"/>
<path d="M225.196 104.019C223.218 104.087 218.943 104.692 221.16 108.828C223.119 112.489 226.412 110.042 228.265 108.186C227.813 106.455 226.715 104.964 225.196 104.019Z" fill="#FFB0B1"/>
<path opacity="0.1" d="M260.227 78.7051C258.128 80.1404 256.368 81.3516 256.024 81.6031C255.084 82.3003 253.291 86.393 252.135 88.4818C251.214 90.1632 248.221 90.5952 247.093 90.7018L247.237 89.4524C249.804 88.3041 251.769 84.646 251.769 84.646L256.841 75.7496L258.587 77.3381C258.587 77.3381 259.243 77.8849 260.227 78.7051Z" fill="black"/>
<path d="M260.227 78.541C258.128 79.9764 256.368 81.1875 256.024 81.4418C255.084 82.1362 253.291 86.229 252.135 88.3177C251.214 89.9991 248.221 90.4311 247.093 90.5377L247.237 89.2883C249.804 88.14 251.769 84.482 251.769 84.482L256.841 75.5856L258.587 77.1686C258.587 77.1686 259.243 77.7099 260.227 78.541Z" fill="#DCE7FF"/>
<path d="M256.188 71.5749C256.189 73.2161 255.691 74.8189 254.761 76.1707C253.662 77.7691 252.028 78.9206 250.153 79.4162C248.278 79.9118 246.288 79.7187 244.544 78.872C242.799 78.0252 241.416 76.5809 240.645 74.8011C239.873 73.0214 239.766 71.024 240.341 69.1715C240.916 67.319 242.135 65.7341 243.779 64.7043C245.422 63.6745 247.38 63.2682 249.297 63.5589C251.214 63.8497 252.963 64.8183 254.228 66.289C255.492 67.7597 256.187 69.6351 256.188 71.5749Z" fill="#FFB0B1"/>
<path opacity="0.1" d="M270.333 98.8463C269.224 98.1633 268.32 97.192 267.718 96.0358C267.262 95.1336 266.958 94.0919 266.179 93.4522C265.477 92.878 264.54 92.7386 263.665 92.4816C260.79 91.6313 258.38 89.0067 258.289 86.0102C258.246 84.5995 258.686 83.1915 258.486 81.7944C258.373 81.0038 258.058 80.2554 257.573 79.6209C257.332 79.3175 257.068 79.0332 256.784 78.7706C256.401 78.4098 255.999 78.0598 255.649 77.6771C255.429 77.4401 255.236 77.1786 255.075 76.8979C254.945 76.6681 254.84 76.4253 254.761 76.1734C254.215 74.5002 254.712 72.5153 254.111 70.823L254.078 70.73C253.851 70.1285 253.389 69.527 252.747 69.4806C252.105 69.4341 251.555 69.9672 250.943 70.2051C249.662 70.7027 248.279 69.8551 247.21 68.9912C246.141 68.1272 244.936 67.1403 243.578 67.3317C242.679 67.4602 241.968 68.0726 241.14 68.3897C240.953 68.4621 240.76 68.5179 240.564 68.5565C241.264 66.8081 242.552 65.3585 244.205 64.4566C245.858 63.5548 247.774 63.257 249.622 63.6145C251.471 63.9719 253.138 64.9623 254.336 66.4155C255.534 67.8687 256.189 69.6939 256.188 71.5775C256.189 72.1463 256.129 72.7137 256.01 73.2699C256.024 73.3081 256.037 73.3437 256.054 73.382C256.371 74.2022 256.729 75.0442 257.043 75.7715L258.587 77.1713C258.587 77.1713 259.243 77.7181 260.227 78.5383C262.367 80.3427 266.065 83.5196 267.972 85.4635C269.65 87.1804 270.175 93.8349 270.333 98.8463Z" fill="black"/>
<path d="M241.045 63.3947C241.435 62.5991 241.629 61.7078 242.097 60.9532C242.783 59.8597 243.98 59.1597 245.21 58.736C248.421 57.6287 255.207 56.0211 257.234 58.736C257.633 59.2828 257.964 59.8897 258.516 60.267C258.937 60.5541 259.445 60.6771 259.907 60.8931C261.2 61.5 262.025 62.8233 262.465 64.1739C262.905 65.5245 263.036 66.9735 263.359 68.3651C263.772 70.1504 264.496 71.8427 265.217 73.5241C266.067 75.509 266.969 77.5677 268.609 78.9702C270.847 80.884 271.342 83.5934 273.419 85.6931C275.878 88.1865 275.799 92.3011 274.531 95.5682C274.364 95.9975 274.176 96.4458 274.241 96.9024C274.307 97.359 274.646 97.7746 274.966 98.1382L276.31 99.6555C273.129 100.424 269.53 98.7615 268.049 95.8444C267.592 94.9422 267.289 93.9032 266.507 93.2608C265.808 92.6866 264.868 92.5499 263.996 92.2929C261.121 91.4399 258.71 88.8126 258.62 85.8161C258.576 84.4081 259.016 83.0001 258.817 81.6058C258.706 80.8098 258.39 80.0562 257.901 79.4186C257.15 78.4371 256.016 77.7782 255.403 76.6846C254.368 74.8556 255.155 72.4797 254.409 70.5167C254.179 69.9152 253.72 69.3138 253.078 69.2673C252.435 69.2208 251.886 69.7539 251.271 69.9918C249.992 70.4894 248.609 69.6446 247.541 68.7779C246.472 67.9112 245.267 66.927 243.906 67.1211C243.007 67.2469 242.299 67.8593 241.471 68.1792C240.859 68.4143 239.618 68.6248 239.082 68.1081C237.951 67.0664 240.572 64.368 241.045 63.3947Z" fill="#591D4B"/>
<path opacity="0.1" d="M268.808 94.9422C268.349 94.04 268.049 93.0011 267.267 92.3613C266.567 91.7872 265.627 91.6478 264.753 91.3908C261.88 90.5405 259.47 87.9131 259.377 84.9167C259.333 83.5087 259.773 82.0979 259.576 80.7036C259.462 79.9127 259.147 79.1644 258.661 78.5301C257.907 77.5486 256.773 76.8897 256.163 75.7961C255.127 73.9698 255.914 71.594 255.166 69.6282C254.939 69.0295 254.477 68.428 253.837 68.3788C253.198 68.3296 252.643 68.8682 252.031 69.106C250.752 69.6036 249.366 68.7561 248.3 67.8921C247.235 67.0282 246.024 66.0412 244.666 66.2326C243.766 66.3611 243.056 66.9735 242.231 67.2907C241.618 67.5258 240.375 67.739 239.839 67.2223C238.713 66.1287 241.334 63.4357 241.804 62.4679C242.195 61.6696 242.389 60.781 242.859 60.0265C242.884 59.9855 242.911 59.9445 242.938 59.9034C242.587 60.1948 242.283 60.5399 242.039 60.926C241.572 61.6805 241.378 62.5663 240.987 63.3674C240.514 64.3352 237.893 67.0364 239.022 68.1218C239.569 68.6413 240.799 68.428 241.411 68.1929C242.231 67.873 242.947 67.2606 243.846 67.1348C245.212 66.9407 246.415 67.9277 247.481 68.7916C248.546 69.6556 249.94 70.5031 251.214 70.0055C251.826 69.7677 252.362 69.2318 253.017 69.281C253.673 69.3302 254.111 69.929 254.348 70.5304C255.094 72.4934 254.307 74.8693 255.343 76.6983C255.955 77.7728 257.09 78.4453 257.841 79.4323C258.33 80.0699 258.646 80.8235 258.757 81.6195C258.956 83.0138 258.516 84.4218 258.56 85.8298C258.65 88.8372 261.06 91.4536 263.936 92.3066C264.802 92.5636 265.747 92.7003 266.447 93.2745C267.231 93.917 267.54 94.9559 267.988 95.8581C269.47 98.7752 273.069 100.438 276.25 99.6693L275.616 98.953C272.859 98.994 270.068 97.4247 268.808 94.9422Z" fill="black"/>
<path opacity="0.1" d="M249.968 82.4642C249.61 83.011 248.585 85.8106 247.729 88.2548C246.929 87.9431 246.202 85.9555 246.202 85.9555L250.47 79.8806C250.908 80.4821 250.621 81.48 249.968 82.4642Z" fill="black"/>
<path d="M250.132 82.3002C249.774 82.847 248.749 85.6466 247.893 88.0908C247.093 87.7819 246.366 85.7915 246.366 85.7915L250.634 79.7194C251.072 80.3181 250.785 81.3187 250.132 82.3002Z" fill="#DCE7FF"/>
<path d="M225.311 110.231L222.944 102.764C222.916 102.677 222.906 102.585 222.914 102.493C222.921 102.402 222.947 102.313 222.989 102.231C223.031 102.15 223.089 102.077 223.159 102.018C223.229 101.959 223.311 101.914 223.398 101.887C223.574 101.832 223.765 101.848 223.929 101.933C224.093 102.018 224.216 102.165 224.273 102.34L226.639 109.799L226.404 111.36L225.311 110.231Z" fill="#BE8B87"/>
<path opacity="0.1" d="M223.168 102.108C223.345 102.052 223.536 102.069 223.701 102.154C223.865 102.239 223.989 102.386 224.046 102.562L226.412 110.02L226.235 111.19L226.407 111.371L226.642 109.81L224.262 102.351C224.205 102.176 224.081 102.029 223.918 101.944C223.754 101.859 223.563 101.843 223.387 101.898C223.239 101.946 223.111 102.042 223.024 102.171C223.07 102.146 223.118 102.125 223.168 102.108Z" fill="white"/>
<path d="M225.311 110.231L226.639 109.81L226.445 111.089L226.404 111.371L226.016 110.966L225.311 110.231Z" fill="#EFC8C4"/>
<path d="M226.016 110.966C226.039 110.937 226.068 110.913 226.101 110.895C226.12 110.883 226.142 110.876 226.165 110.876C226.188 110.876 226.21 110.883 226.229 110.895C226.248 110.918 226.264 110.942 226.276 110.969C226.294 110.999 226.318 111.025 226.348 111.044C226.377 111.064 226.41 111.076 226.445 111.081L226.404 111.354L226.016 110.966Z" fill="#727A9C"/>
<path d="M222.931 105.416C222.931 105.416 227.678 105.389 226.56 107.409C225.442 109.43 223.696 109.673 223.696 109.673L222.931 105.416Z" fill="#FFB0B1"/>
<path d="M193.407 14.7434H193.202C185.047 14.7434 177.835 19.0604 173.686 25.4306C169.537 19.0604 162.325 14.7434 154.17 14.7434H153.965C147.845 14.8018 141.995 17.274 137.687 21.6229C133.378 25.9717 130.96 31.8458 130.957 37.9686C130.957 45.5718 134.285 56.3601 140.776 65.2374C153.142 82.1526 173.686 96.9516 173.686 96.9516C173.686 96.9516 194.229 82.1553 206.593 65.2374C213.087 56.3601 216.413 45.5718 216.413 37.9686C216.409 31.8463 213.991 25.9726 209.683 21.6238C205.376 17.275 199.526 14.8025 193.407 14.7434ZM190.474 66.5388C189.546 66.5352 188.64 66.2508 187.875 65.7229C187.111 65.195 186.524 64.4482 186.192 63.5806H181.316C180.995 63.5786 180.683 63.4764 180.423 63.2881C180.162 63.0999 179.968 62.8351 179.865 62.5307L178.367 58.0169L173.629 74.5822C173.536 74.901 173.343 75.1814 173.078 75.381C172.813 75.5807 172.49 75.6889 172.158 75.6894H172.063C171.716 75.6727 171.386 75.5376 171.128 75.3067C170.869 75.0758 170.697 74.7631 170.641 74.4208L165.758 45.036L162.188 62.4241C162.107 62.7544 161.917 63.0478 161.649 63.2574C161.381 63.467 161.05 63.5808 160.71 63.5806H153.842C153.636 63.5893 153.431 63.5563 153.238 63.4835C153.045 63.4107 152.869 63.2996 152.72 63.1569C152.572 63.0143 152.453 62.843 152.372 62.6534C152.291 62.4638 152.25 62.2598 152.25 62.0537C152.25 61.8475 152.291 61.6435 152.372 61.4539C152.453 61.2643 152.572 61.093 152.72 60.9504C152.869 60.8077 153.045 60.6967 153.238 60.6239C153.431 60.5511 153.636 60.518 153.842 60.5267H159.507L164.563 37.1484C164.646 36.8028 164.847 36.4967 165.13 36.2825C165.414 36.0684 165.763 35.9594 166.118 35.9742C166.473 35.9891 166.812 36.1269 167.077 36.364C167.342 36.6011 167.516 36.9228 167.57 37.2742L172.557 67.2496L176.804 52.4287C176.893 52.1165 177.08 51.8414 177.337 51.6443C177.595 51.4472 177.909 51.3387 178.234 51.3351H178.264C178.585 51.3352 178.898 51.4367 179.158 51.6252C179.418 51.8138 179.612 52.0796 179.712 52.3849L182.42 60.5349H186.132C186.396 59.733 186.876 59.0195 187.519 58.4733C188.163 57.9271 188.945 57.5695 189.779 57.4398C190.613 57.3101 191.466 57.4134 192.245 57.7384C193.024 58.0633 193.698 58.5973 194.193 59.2813C194.688 59.9653 194.984 60.7727 195.049 61.6145C195.114 62.4563 194.946 63.2997 194.562 64.0517C194.178 64.8036 193.594 65.4348 192.874 65.8756C192.154 66.3164 191.327 66.5497 190.483 66.5497L190.474 66.5388Z" fill="#411E75"/>
</g>
<defs>
<linearGradient id="paint0_linear_761_1535" x1="97.8825" y1="212.534" x2="97.8825" y2="44.3006" gradientUnits="userSpaceOnUse">
<stop stop-color="#808080" stop-opacity="0.25"/>
<stop offset="0.54" stop-color="#808080" stop-opacity="0.12"/>
<stop offset="1" stop-color="#808080" stop-opacity="0.1"/>
</linearGradient>
<linearGradient id="paint1_linear_761_1535" x1="244.668" y1="210.407" x2="244.668" y2="56.7566" gradientUnits="userSpaceOnUse">
<stop stop-color="#808080" stop-opacity="0.25"/>
<stop offset="0.54" stop-color="#808080" stop-opacity="0.12"/>
<stop offset="1" stop-color="#808080" stop-opacity="0.1"/>
</linearGradient>
<clipPath id="clip0_761_1535">
<rect width="302" height="214" fill="white" transform="translate(0.5 0.685303)"/>
</clipPath>
</defs>
</svg>
