<svg width="95" height="112" viewBox="0 0 95 112" fill="none" xmlns="http://www.w3.org/2000/svg">
<path d="M77.562 18.2815C77.2727 17.5946 76.7884 17.0077 76.1689 16.5932C75.5495 16.1787 74.8221 15.955 74.0768 15.9497H4.51031C3.51033 15.9502 2.55146 16.3477 1.84437 17.0548C1.13727 17.7619 0.739795 18.7208 0.739258 19.7208V107.729C0.739795 108.729 1.13727 109.688 1.84437 110.395C2.55146 111.102 3.51033 111.499 4.51031 111.5H74.0793C75.079 111.499 76.0374 111.101 76.7444 110.394C77.4513 109.687 77.849 108.729 77.8503 107.729V19.7208C77.852 19.2268 77.7548 18.7374 77.5645 18.2815H77.562ZM77.0104 107.729C77.0095 108.507 76.7001 109.252 76.1501 109.802C75.6002 110.352 74.8546 110.661 74.0768 110.662H4.51031C3.7324 110.662 2.98637 110.353 2.43626 109.803C1.88614 109.253 1.57696 108.507 1.5767 107.729V19.7213C1.57776 18.9435 1.88718 18.198 2.43711 17.6481C2.98704 17.0981 3.7326 16.7887 4.51031 16.7877H74.0793C74.6652 16.7899 75.2371 16.9666 75.7221 17.2953C76.2071 17.624 76.5831 18.0897 76.8023 18.6331C76.8449 18.7413 76.8818 18.8518 76.9126 18.964C76.9791 19.2109 77.0129 19.4655 77.0129 19.7213L77.0104 107.729Z" fill="#411E75"/>
<path d="M63.0444 36.7283H42.09C41.6454 36.7283 41.219 36.5517 40.9046 36.2373C40.5902 35.9229 40.4136 35.4965 40.4136 35.0519C40.4136 34.6073 40.5902 34.1809 40.9046 33.8665C41.219 33.5521 41.6454 33.3755 42.09 33.3755H63.0444C63.489 33.3755 63.9154 33.5521 64.2298 33.8665C64.5442 34.1809 64.7208 34.6073 64.7208 35.0519C64.7208 35.4965 64.5442 35.9229 64.2298 36.2373C63.9154 36.5517 63.489 36.7283 63.0444 36.7283Z" fill="#411E75"/>
<path d="M63.0447 45.5291H42.0903C41.8699 45.5294 41.6517 45.4862 41.4481 45.4021C41.2444 45.318 41.0593 45.1946 40.9034 45.0389C40.7475 44.8832 40.6238 44.6983 40.5394 44.4947C40.4551 44.2912 40.4116 44.073 40.4116 43.8527C40.4116 43.6323 40.4551 43.4142 40.5394 43.2106C40.6238 43.0071 40.7475 42.8222 40.9034 42.6665C41.0593 42.5108 41.2444 42.3873 41.4481 42.3032C41.6517 42.2191 41.8699 42.176 42.0903 42.1763H63.0447C63.265 42.176 63.4833 42.2191 63.6869 42.3032C63.8906 42.3873 64.0756 42.5108 64.2316 42.6665C64.3875 42.8222 64.5111 43.0071 64.5955 43.2106C64.6799 43.4142 64.7233 43.6323 64.7233 43.8527C64.7233 44.073 64.6799 44.2912 64.5955 44.4947C64.5111 44.6983 64.3875 44.8832 64.2316 45.0389C64.0756 45.1946 63.8906 45.318 63.6869 45.4021C63.4833 45.4862 63.265 45.5294 63.0447 45.5291Z" fill="#411E75"/>
<path d="M31.3386 50.5403H16.0252C15.5251 50.5398 15.0457 50.3409 14.6921 49.9873C14.3386 49.6337 14.1397 49.1543 14.1392 48.6543V30.5833C14.1397 30.0832 14.3386 29.6038 14.6921 29.2503C15.0457 28.8967 15.5251 28.6978 16.0252 28.6973H31.3386C31.8386 28.6978 32.318 28.8967 32.6716 29.2503C33.0252 29.6038 33.2241 30.0832 33.2246 30.5833V48.6543C33.2241 49.1543 33.0252 49.6337 32.6716 49.9873C32.318 50.3409 31.8386 50.5398 31.3386 50.5403Z" fill="#B23C97"/>
<path d="M62.899 63.5501H15.5421C15.0975 63.5501 14.6711 63.3735 14.3567 63.0591C14.0423 62.7447 13.8657 62.3183 13.8657 61.8737C13.8657 61.4291 14.0423 61.0027 14.3567 60.6883C14.6711 60.3739 15.0975 60.1973 15.5421 60.1973H62.899C63.3436 60.1973 63.77 60.3739 64.0844 60.6883C64.3988 61.0027 64.5754 61.4291 64.5754 61.8737C64.5754 62.3183 64.3988 62.7447 64.0844 63.0591C63.77 63.3735 63.3436 63.5501 62.899 63.5501Z" fill="#411E75" fill-opacity="0.05"/>
<path d="M62.899 72.3509H15.5421C15.0975 72.3509 14.6711 72.1743 14.3567 71.8599C14.0423 71.5455 13.8657 71.1191 13.8657 70.6745C13.8657 70.2298 14.0423 69.8034 14.3567 69.4891C14.6711 69.1747 15.0975 68.998 15.5421 68.998H62.899C63.3436 68.998 63.77 69.1747 64.0844 69.4891C64.3988 69.8034 64.5754 70.2298 64.5754 70.6745C64.5754 71.1191 64.3988 71.5455 64.0844 71.8599C63.77 72.1743 63.3436 72.3509 62.899 72.3509Z" fill="#411E75" fill-opacity="0.05"/>
<path d="M62.8992 81.1517H15.5423C15.0981 81.1511 14.6723 80.9742 14.3584 80.6599C14.0445 80.3455 13.8682 79.9195 13.8682 79.4752C13.8682 79.031 14.0445 78.605 14.3584 78.2906C14.6723 77.9763 15.0981 77.7994 15.5423 77.7988H62.8992C63.1195 77.7985 63.3378 77.8417 63.5414 77.9258C63.7451 78.0099 63.9301 78.1333 64.0861 78.289C64.242 78.4447 64.3656 78.6296 64.45 78.8332C64.5344 79.0367 64.5779 79.2549 64.5779 79.4752C64.5779 79.6956 64.5344 79.9138 64.45 80.1173C64.3656 80.3208 64.242 80.5057 64.0861 80.6614C63.9301 80.8171 63.7451 80.9406 63.5414 81.0247C63.3378 81.1088 63.1195 81.152 62.8992 81.1517Z" fill="#411E75" fill-opacity="0.05"/>
<path d="M62.899 89.9524H15.5421C15.0975 89.9524 14.6711 89.7758 14.3567 89.4614C14.0423 89.147 13.8657 88.7206 13.8657 88.276C13.8657 87.8314 14.0423 87.405 14.3567 87.0906C14.6711 86.7762 15.0975 86.5996 15.5421 86.5996H62.899C63.3436 86.5996 63.77 86.7762 64.0844 87.0906C64.3988 87.405 64.5754 87.8314 64.5754 88.276C64.5754 88.7206 64.3988 89.147 64.0844 89.4614C63.77 89.7758 63.3436 89.9524 62.899 89.9524Z" fill="#411E75" fill-opacity="0.05"/>
<path d="M62.899 98.7532H15.5421C15.0975 98.7532 14.6711 98.5766 14.3567 98.2622C14.0423 97.9478 13.8657 97.5214 13.8657 97.0768C13.8657 96.6322 14.0423 96.2058 14.3567 95.8914C14.6711 95.577 15.0975 95.4004 15.5421 95.4004H62.899C63.3436 95.4004 63.77 95.577 64.0844 95.8914C64.3988 96.2058 64.5754 96.6322 64.5754 97.0768C64.5754 97.5214 64.3988 97.9478 64.0844 98.2622C63.77 98.5766 63.3436 98.7532 62.899 98.7532Z" fill="#411E75" fill-opacity="0.05"/>
<path d="M78.0822 32.8569C87.0174 32.8569 94.2607 25.6135 94.2607 16.6784C94.2607 7.74333 87.0174 0.5 78.0822 0.5C69.1471 0.5 61.9038 7.74333 61.9038 16.6784C61.9038 25.6135 69.1471 32.8569 78.0822 32.8569Z" fill="#B23C97"/>
<path d="M76.4786 22.8499C76.1147 22.8505 75.7603 22.7328 75.4691 22.5144L75.4511 22.5009L71.6489 19.5923C71.4729 19.4573 71.3251 19.289 71.214 19.0969C71.103 18.9048 71.0309 18.6927 71.0019 18.4727C70.9728 18.2527 70.9874 18.0292 71.0447 17.8148C71.102 17.6004 71.201 17.3995 71.336 17.2234C71.471 17.0473 71.6394 16.8995 71.8315 16.7885C72.0236 16.6775 72.2357 16.6054 72.4557 16.5763C72.6757 16.5473 72.8992 16.5618 73.1136 16.6192C73.3279 16.6765 73.5289 16.7755 73.705 16.9105L76.1677 18.799L81.9873 11.2068C82.1222 11.0307 82.2905 10.883 82.4826 10.772C82.6746 10.6611 82.8866 10.589 83.1065 10.56C83.3264 10.5309 83.5498 10.5455 83.7641 10.6028C83.9783 10.6601 84.1792 10.759 84.3552 10.894L84.3557 10.8944L84.3196 10.9445L84.3567 10.8944C84.7118 11.1673 84.9441 11.5699 85.0027 12.014C85.0613 12.458 84.9413 12.9071 84.6691 13.2628L77.824 22.189C77.6657 22.3946 77.4621 22.561 77.229 22.6753C76.9959 22.7896 76.7397 22.8486 76.4801 22.8479L76.4786 22.8499Z" fill="white"/>
</svg>
