<svg width="25" height="25" viewBox="0 0 25 25" fill="none" xmlns="http://www.w3.org/2000/svg">
<g id="solar:wallet-linear">
<g id="Group">
<path id="Vector" d="M6.23071 8.9375H10.2307" stroke="#411E75" stroke-width="1.5" stroke-linecap="round" stroke-linejoin="round"/>
<path id="Vector_2" d="M21.0637 9.9375H18.4617C16.6767 9.9375 15.2307 11.2805 15.2307 12.9375C15.2307 14.5945 16.6777 15.9375 18.4607 15.9375H21.0637C21.1477 15.9375 21.1887 15.9375 21.2237 15.9355C21.7637 15.9025 22.1937 15.5035 22.2287 15.0025C22.2307 14.9705 22.2307 14.9315 22.2307 14.8545V11.0205C22.2307 10.9435 22.2307 10.9045 22.2287 10.8725C22.1927 10.3715 21.7637 9.9725 21.2237 9.9395C21.1897 9.9375 21.1477 9.9375 21.0637 9.9375Z" stroke="#411E75" stroke-width="1.5"/>
<path id="Vector_3" d="M21.1957 9.9375C21.1177 8.0655 20.8677 6.9175 20.0587 6.1095C18.8877 4.9375 17.0017 4.9375 13.2307 4.9375H10.2307C6.45971 4.9375 4.57371 4.9375 3.40271 6.1095C2.23171 7.2815 2.23071 9.1665 2.23071 12.9375C2.23071 16.7085 2.23071 18.5945 3.40271 19.7655C4.57471 20.9365 6.45971 20.9375 10.2307 20.9375H13.2307C17.0017 20.9375 18.8877 20.9375 20.0587 19.7655C20.8677 18.9575 21.1187 17.8095 21.1957 15.9375" stroke="#411E75" stroke-width="1.5"/>
<path id="Vector_4" d="M18.2217 12.9375H18.2317" stroke="#411E75" stroke-width="1.5" stroke-linecap="round" stroke-linejoin="round"/>
</g>
</g>
</svg>
